<svg width="116" height="80" viewBox="0 0 116 80" fill="none" xmlns="http://www.w3.org/2000/svg">
<path d="M116 48.5352C116.005 44.4184 114.441 40.4542 111.624 37.4498C108.807 34.4453 104.95 32.6265 100.839 32.3637C100.978 31.4248 101.047 30.4769 101.045 29.5278C101.047 25.9553 100.072 22.4503 98.2245 19.3916C96.3775 16.3328 93.7291 13.8364 90.5655 12.1722C87.402 10.508 83.8434 9.73922 80.2744 9.9489C76.7054 10.1586 73.2615 11.3388 70.3149 13.3619C67.51 8.35934 63.1365 4.41728 57.8684 2.14322C52.6003 -0.130838 46.73 -0.610687 41.1621 0.777615C35.5942 2.16592 30.6377 5.34532 27.0564 9.82588C23.4751 14.3064 21.4677 19.8395 21.3437 25.5724C20.8266 25.5322 20.3038 25.5035 19.7752 25.5035C14.5718 25.4624 9.56518 27.4885 5.85672 31.136C2.14825 34.7834 0.0417538 39.7536 0.000614034 44.953C-0.0405258 50.1525 1.98706 55.1553 5.63735 58.8609C9.28763 62.5665 14.2616 64.6714 19.465 64.7125H101.39V64.6379C105.391 64.2433 109.102 62.3767 111.802 59.4008C114.502 56.4248 115.998 52.5521 116 48.5352Z" fill="#62C7D3"/>
<path d="M69.9073 40.769H46.0928V64.6152H69.9073V40.769Z" fill="#FEFEFE"/>
<path d="M58.0607 21.9155L76.6001 48.6328H58.0607H39.5212L58.0607 21.9155Z" fill="#FEFEFE"/>
</svg>
