<svg width="298" height="363" viewBox="0 0 298 363" fill="none" xmlns="http://www.w3.org/2000/svg">
<path d="M271.71 328.7L160.18 328.18C156.99 328.166 153.835 327.523 150.893 326.289C147.952 325.055 145.282 323.254 143.037 320.988C140.791 318.722 139.014 316.037 137.807 313.084C136.6 310.132 135.986 306.97 136 303.78L137.18 24.1902C137.195 20.9991 137.837 17.8421 139.072 14.8994C140.307 11.9567 142.109 9.28596 144.375 7.0397C146.642 4.79345 149.329 3.01565 152.283 1.80782C155.236 0.599986 158.399 -0.014228 161.59 0.000250116L273.11 0.520251C279.551 0.549362 285.716 3.13506 290.25 7.7088C294.785 12.2825 297.317 18.4698 297.29 24.9102L296.11 304.5C296.098 307.692 295.458 310.85 294.225 313.793C292.992 316.737 291.191 319.409 288.925 321.657C286.659 323.904 283.972 325.683 281.019 326.892C278.065 328.1 274.902 328.715 271.71 328.7Z" fill="#263238"/>
<path d="M272.95 10.1702L251.33 10.0702C250.625 10.0819 249.93 10.2325 249.283 10.5134C248.637 10.7943 248.052 11.1999 247.563 11.7071C247.073 12.2142 246.688 12.813 246.431 13.469C246.173 14.125 246.047 14.8255 246.06 15.5302V19.4502C246.073 20.1554 245.948 20.8564 245.69 21.513C245.432 22.1696 245.048 22.769 244.558 23.2769C244.069 23.7849 243.484 24.1914 242.838 24.4734C242.191 24.7554 241.495 24.9072 240.79 24.9202L198.64 24.7202C197.217 24.6809 195.867 24.0789 194.886 23.046C193.906 22.0132 193.375 20.6338 193.41 19.2102L193.45 15.3102C193.485 13.8866 192.954 12.5072 191.974 11.4744C190.993 10.4415 189.644 9.83947 188.22 9.8002H180.62L161.69 9.7102C159.45 9.69834 157.23 10.1293 155.157 10.9783C153.084 11.8273 151.199 13.0777 149.611 14.6574C148.023 16.2372 146.763 18.1153 145.903 20.1837C145.043 22.2521 144.6 24.4701 144.6 26.7102L143.45 299.5C143.44 301.734 143.869 303.947 144.714 306.014C145.56 308.081 146.804 309.962 148.376 311.548C149.948 313.134 151.818 314.395 153.878 315.258C155.937 316.122 158.147 316.571 160.38 316.58L271.68 317.1C273.92 317.112 276.14 316.681 278.213 315.832C280.286 314.983 282.171 313.733 283.759 312.153C285.347 310.573 286.608 308.695 287.468 306.627C288.327 304.558 288.77 302.34 288.77 300.1L289.93 27.2002C289.934 24.9669 289.498 22.7547 288.647 20.69C287.795 18.6253 286.546 16.7486 284.969 15.1671C283.392 13.5855 281.519 12.3302 279.457 11.4728C277.394 10.6155 275.183 10.1728 272.95 10.1702Z" fill="#FAFAFA"/>
<path d="M233.23 42.5503H204.52V47.8203H233.23V42.5503Z" fill="#455A64"/>
<path d="M170.63 86.9404C170.86 86.946 171.088 86.9761 171.31 87.0304C171.516 86.976 171.728 86.9458 171.94 86.9404H170.63Z" fill="#455A64"/>
<path d="M178.5 72.4804C177.973 71.7518 177.332 71.1135 176.6 70.5904C175.068 69.46 173.214 68.8501 171.31 68.8501C169.406 68.8501 167.552 69.46 166.02 70.5904C165.286 71.1133 164.641 71.7516 164.11 72.4804C163.587 73.1646 163.175 73.9274 162.89 74.7404C162.369 76.1511 162.209 77.67 162.425 79.1583C162.642 80.6467 163.228 82.057 164.13 83.2604C164.24 83.4104 164.36 83.5404 164.47 83.6704C164.841 82.4763 165.551 81.4154 166.513 80.6166C167.475 79.8179 168.648 79.3155 169.89 79.1704C169.114 78.8312 168.454 78.2711 167.994 77.5599C167.533 76.8486 167.292 76.0177 167.3 75.1704C167.261 74.6133 167.337 74.0541 167.523 73.5276C167.71 73.0011 168.002 72.5185 168.383 72.11C168.764 71.7015 169.225 71.3757 169.737 71.153C170.249 70.9303 170.802 70.8153 171.36 70.8153C171.919 70.8153 172.471 70.9303 172.983 71.153C173.496 71.3757 173.956 71.7015 174.337 72.11C174.718 72.5185 175.011 73.0011 175.197 73.5276C175.383 74.0541 175.459 74.6133 175.42 75.1704C175.428 76.0163 175.188 76.8459 174.729 77.5567C174.271 78.2676 173.614 78.8286 172.84 79.1704C174.068 79.3183 175.226 79.8221 176.172 80.6199C177.117 81.4178 177.808 82.4747 178.16 83.6604L178.49 83.2604C179.392 82.057 179.979 80.6467 180.195 79.1583C180.412 77.67 180.252 76.1511 179.73 74.7404C179.438 73.9287 179.023 73.1666 178.5 72.4804Z" fill="#FAFAFA"/>
<path d="M170.63 173.1C171.07 173.16 171.31 173.16 171.31 173.2C171.516 173.146 171.728 173.115 171.94 173.11L170.63 173.1Z" fill="#455A64"/>
<path d="M178.5 158.65C177.976 157.919 177.334 157.281 176.6 156.76C175.068 155.63 173.214 155.02 171.31 155.02C169.406 155.02 167.552 155.63 166.02 156.76C164.588 157.802 163.498 159.247 162.89 160.91C162.369 162.321 162.209 163.84 162.425 165.328C162.642 166.817 163.228 168.227 164.13 169.43L164.47 169.84C164.838 168.644 165.546 167.581 166.509 166.782C167.472 165.983 168.647 165.482 169.89 165.34C169.114 165.001 168.454 164.441 167.994 163.73C167.533 163.019 167.292 162.188 167.3 161.34C167.261 160.783 167.337 160.224 167.523 159.698C167.71 159.171 168.002 158.688 168.383 158.28C168.764 157.871 169.225 157.546 169.737 157.323C170.249 157.1 170.802 156.985 171.36 156.985C171.919 156.985 172.471 157.1 172.983 157.323C173.496 157.546 173.956 157.871 174.337 158.28C174.718 158.688 175.011 159.171 175.197 159.698C175.383 160.224 175.459 160.783 175.42 161.34C175.427 162.186 175.186 163.015 174.728 163.726C174.269 164.436 173.613 164.997 172.84 165.34C174.068 165.486 175.225 165.988 176.171 166.784C177.116 167.58 177.808 168.636 178.16 169.82L178.49 169.43C179.392 168.227 179.979 166.817 180.195 165.328C180.412 163.84 180.252 162.321 179.73 160.91C179.438 160.099 179.023 159.336 178.5 158.65Z" fill="#FAFAFA"/>
<path d="M209.96 290.97C209.879 291.521 209.602 292.023 209.181 292.387C208.759 292.75 208.222 292.95 207.665 292.95C207.109 292.95 206.571 292.75 206.149 292.387C205.728 292.023 205.452 291.521 205.37 290.97C205.452 290.42 205.728 289.917 206.149 289.553C206.571 289.19 207.109 288.99 207.665 288.99C208.222 288.99 208.759 289.19 209.181 289.553C209.602 289.917 209.879 290.42 209.96 290.97Z" fill="#455A64"/>
<path d="M217.08 291C217.145 291.468 217.066 291.945 216.853 292.367C216.639 292.789 216.302 293.136 215.886 293.361C215.47 293.586 214.995 293.678 214.525 293.626C214.055 293.573 213.612 293.378 213.256 293.067C212.9 292.756 212.648 292.344 212.532 291.885C212.417 291.427 212.445 290.944 212.612 290.501C212.778 290.059 213.077 289.678 213.466 289.41C213.855 289.141 214.317 288.998 214.79 289C215.359 288.962 215.92 289.151 216.349 289.526C216.779 289.901 217.042 290.431 217.08 291Z" fill="#455A64"/>
<path d="M224.19 291.03C224.255 291.499 224.176 291.976 223.962 292.399C223.748 292.821 223.41 293.167 222.993 293.392C222.577 293.617 222.101 293.709 221.631 293.655C221.161 293.602 220.718 293.406 220.362 293.094C220.007 292.782 219.755 292.369 219.641 291.909C219.527 291.45 219.556 290.967 219.724 290.524C219.893 290.082 220.192 289.702 220.583 289.435C220.974 289.168 221.437 289.026 221.91 289.03C222.477 288.994 223.036 289.185 223.463 289.56C223.89 289.934 224.152 290.463 224.19 291.03Z" fill="#455A64"/>
<path d="M170.63 217.79C171.07 217.85 171.31 217.85 171.31 217.89C171.31 217.93 171.53 217.89 171.94 217.8L170.63 217.79Z" fill="#455A64"/>
<path d="M178.5 203.31C177.973 202.585 177.331 201.95 176.6 201.43C175.068 200.3 173.214 199.69 171.31 199.69C169.406 199.69 167.552 200.3 166.02 201.43C165.286 201.95 164.641 202.585 164.11 203.31C163.587 203.998 163.175 204.764 162.89 205.58C162.369 206.991 162.209 208.51 162.425 209.998C162.642 211.487 163.228 212.897 164.13 214.1C164.24 214.24 164.36 214.37 164.47 214.5C164.841 213.307 165.55 212.247 166.513 211.449C167.475 210.652 168.649 210.152 169.89 210.01C169.106 209.668 168.441 209.1 167.98 208.379C167.519 207.658 167.282 206.816 167.3 205.96C167.261 205.403 167.337 204.844 167.523 204.317C167.71 203.791 168.002 203.308 168.383 202.9C168.764 202.491 169.225 202.166 169.737 201.943C170.249 201.72 170.802 201.605 171.36 201.605C171.919 201.605 172.471 201.72 172.983 201.943C173.496 202.166 173.956 202.491 174.337 202.9C174.718 203.308 175.011 203.791 175.197 204.317C175.383 204.844 175.459 205.403 175.42 205.96C175.427 206.806 175.186 207.635 174.728 208.346C174.269 209.056 173.613 209.617 172.84 209.96C174.068 210.106 175.225 210.608 176.171 211.404C177.116 212.2 177.808 213.256 178.16 214.44L178.49 214.05C179.388 212.845 179.972 211.435 180.188 209.947C180.405 208.46 180.247 206.942 179.73 205.53C179.434 204.733 179.019 203.985 178.5 203.31Z" fill="#FAFAFA"/>
<path d="M170.63 261.59C171.07 261.64 171.31 261.65 171.31 261.69C171.31 261.73 171.53 261.64 171.94 261.6L170.63 261.59Z" fill="#455A64"/>
<path d="M178.5 247.13C177.971 246.404 177.329 245.766 176.6 245.24C175.063 244.123 173.211 243.521 171.31 243.521C169.41 243.521 167.558 244.123 166.02 245.24C165.288 245.766 164.644 246.404 164.11 247.13C163.587 247.818 163.175 248.584 162.89 249.4C162.369 250.811 162.209 252.33 162.425 253.818C162.642 255.307 163.228 256.717 164.13 257.92C164.24 258.06 164.36 258.19 164.47 258.32C164.841 257.127 165.55 256.067 166.513 255.269C167.475 254.472 168.649 253.972 169.89 253.83C169.115 253.49 168.456 252.93 167.996 252.219C167.535 251.508 167.293 250.677 167.3 249.83C167.261 249.273 167.337 248.714 167.523 248.187C167.71 247.661 168.002 247.178 168.383 246.77C168.764 246.361 169.225 246.036 169.737 245.813C170.249 245.59 170.802 245.475 171.36 245.475C171.919 245.475 172.471 245.59 172.983 245.813C173.496 246.036 173.956 246.361 174.337 246.77C174.718 247.178 175.011 247.661 175.197 248.187C175.383 248.714 175.459 249.273 175.42 249.83C175.427 250.676 175.186 251.505 174.728 252.216C174.269 252.926 173.613 253.487 172.84 253.83C174.068 253.975 175.226 254.476 176.172 255.273C177.118 256.069 177.809 257.125 178.16 258.31C178.27 258.18 178.38 258.06 178.49 257.91C179.333 256.792 179.899 255.49 180.14 254.11C180.426 252.532 180.284 250.906 179.73 249.4C179.438 248.585 179.023 247.82 178.5 247.13Z" fill="#FAFAFA"/>
<rect x="207" y="78" width="74" height="34" rx="5" fill="#F5978E"/>
<rect x="151.5" y="75.5" width="51" height="90" rx="4.5" stroke="#F5978E" stroke-dasharray="2 2"/>
<rect x="151.5" y="223.5" width="51" height="72" rx="4.5" transform="rotate(-90 151.5 223.5)" stroke="#F5978E" stroke-dasharray="2 2"/>
<rect x="235.5" y="221.5" width="51" height="45" rx="4.5" transform="rotate(-90 235.5 221.5)" stroke="#F5978E" stroke-dasharray="2 2"/>
<rect x="210.5" y="161.5" width="34" height="70" rx="4.5" transform="rotate(-90 210.5 161.5)" stroke="#F5978E" stroke-dasharray="2 2"/>
<rect x="155.5" y="278.5" width="47" height="123" rx="4.5" transform="rotate(-90 155.5 278.5)" stroke="#F5978E" stroke-dasharray="2 2"/>
<path d="M48.7006 235.31C46.5063 237.65 43.2779 239.674 41.002 240.936C44.4039 245.131 48.9897 249.336 55.0724 253.445L56.8142 257.354L62.39 250.669C62.39 250.669 52.3679 245.689 48.7006 235.31Z" fill="#FFBE9D"/>
<path d="M164.945 151.697C164.945 151.697 149.48 114.68 182.295 99.6776C215.11 84.675 225.398 105.995 252.886 90.9346C252.886 90.9346 233.709 156.269 164.945 151.697Z" fill="url(#paint0_linear_286_1176)"/>
<path d="M202.023 91.4924C200.584 91.3733 192.617 88.7708 190.205 93.0947C187.793 97.4186 191.385 100.579 202.023 101.753C212.661 102.926 213.784 110.285 204.799 115.197C195.815 120.11 200.605 126.665 210.841 123.563C221.077 120.46 220.897 124.042 216.601 129.795C212.304 135.548 220.727 141.552 229.868 135.041C238.247 129.057 253.967 112.928 259.9 90.7779C260.041 90.2438 260.032 89.6813 259.875 89.1519C259.717 88.6225 259.417 88.1466 259.007 87.7764C258.597 87.4062 258.093 87.1559 257.551 87.0528C257.008 86.9498 256.448 86.9981 255.93 87.1923C248.249 89.9955 231.593 93.9452 202.023 91.4924Z" fill="url(#paint1_linear_286_1176)"/>
<path opacity="0.43" d="M168.47 141.16C167.836 139.299 167.402 137.375 167.174 135.421C166.928 133.466 166.865 131.493 166.983 129.526C167.1 127.554 167.405 125.598 167.895 123.685C168.38 121.763 169.064 119.896 169.936 118.116C171.691 114.54 174.081 111.312 176.988 108.59C179.887 105.865 183.121 103.52 186.613 101.613C186.77 101.523 186.958 101.499 187.133 101.547C187.309 101.594 187.458 101.71 187.548 101.868C187.638 102.026 187.662 102.213 187.614 102.389C187.566 102.564 187.451 102.713 187.293 102.803H187.273C183.818 104.563 180.603 106.756 177.703 109.328C174.792 111.898 172.371 114.975 170.559 118.408C169.653 120.128 168.929 121.937 168.398 123.807C167.86 125.68 167.503 127.601 167.334 129.543C167.158 131.49 167.165 133.449 167.354 135.394C167.521 137.35 167.895 139.283 168.47 141.16Z" fill="white"/>
<path d="M122.69 180.817C56.3314 236.473 15.6441 290.078 0.648269 311.452C-1.36569 314.323 1.66886 318.049 4.8735 316.633C74.9775 285.676 117.274 240.246 141.241 205.339C136.856 191.598 128.817 184.437 122.69 180.817Z" fill="#6768FD"/>
<path d="M163.942 148.604C149.235 159.273 135.488 170.084 122.69 180.817C128.813 184.437 136.855 191.598 141.241 205.345C161.203 176.265 168.456 154.493 168.456 154.493C168.79 148.876 163.942 148.604 163.942 148.604Z" fill="#6768FD"/>
<path d="M78.5257 362.07C78.53 361.949 78.5174 361.827 78.4883 361.709C76.6819 354.565 67.7177 350.088 67.7177 350.088L64.1661 350.367C62.1249 356.678 62.3869 360.549 62.7135 362.274C62.7135 362.322 62.7373 362.366 62.7509 362.414C68.0083 362.793 73.2898 362.678 78.5257 362.07Z" fill="#2A2653"/>
<path d="M62.7373 345.06L64.241 352.303C64.2851 352.553 64.4079 352.782 64.5914 352.958C64.775 353.134 65.0097 353.246 65.2615 353.279C66.0371 353.357 66.8192 353.345 67.5919 353.242C67.7843 353.205 67.9675 353.13 68.1311 353.022C68.2946 352.914 68.4352 352.775 68.5449 352.612C68.6545 352.45 68.7311 352.267 68.7701 352.075C68.8091 351.883 68.8099 351.686 68.7724 351.493L67.7178 345.06H62.7373Z" fill="url(#paint2_linear_286_1176)"/>
<path d="M109.994 361.75C109.969 361.695 109.94 361.642 109.909 361.59C108.003 358.93 103.159 353.636 93.5792 351.344L88.9865 351.197C88.9865 351.197 86.9453 354.752 86.9011 361.335C87.9489 361.764 89.9799 362.226 93.9023 362.356C99.9748 362.505 107.167 361.985 109.994 361.75Z" fill="#2A2653"/>
<path d="M88.1396 344.237C88.1907 344.577 88.82 349.782 89.065 351.8C89.0839 352.023 89.1774 352.233 89.3304 352.397C89.4835 352.56 89.6872 352.667 89.9087 352.701C90.9562 352.845 92.0196 352.829 93.0623 352.653C93.3617 352.576 93.6259 352.399 93.8114 352.152C93.9969 351.905 94.0926 351.602 94.0829 351.293V343.128L88.1396 344.237Z" fill="url(#paint3_linear_286_1176)"/>
<path d="M84.4552 249.278C84.4552 249.278 95.532 291.377 95.3415 344.355C95.3417 344.826 95.1797 345.281 94.8828 345.646C94.586 346.01 94.1724 346.261 93.7119 346.356C92.0272 346.738 90.3059 346.936 88.5784 346.948C88.1389 346.934 87.7179 346.768 87.3872 346.478C87.0565 346.188 86.8367 345.793 86.7652 345.359C85.2105 336.252 76.2974 284.934 71.2183 276.602C71.2183 276.602 67.8775 322.307 68.9458 346.002C68.9589 346.287 68.8637 346.565 68.6794 346.783C68.4951 347 68.2353 347.139 67.9524 347.172C66.5821 347.322 65.1995 347.322 63.8292 347.172C63.4955 347.138 63.1826 346.994 62.9399 346.762C62.6972 346.531 62.5385 346.225 62.4889 345.893C61.3832 338.184 55.0046 292.295 55.2869 259.239C55.2869 257.374 60.2163 249.271 60.2163 249.271L84.4552 249.278Z" fill="#2A2653"/>
<path d="M99.8627 198.324C98.0795 196.094 96.5089 193.702 95.1714 191.18C93.3309 187.703 91.9123 183.899 91.4088 179.974C78.9781 182.107 59.9918 184.58 51.9666 185.59C49.3369 185.923 46.9238 187.219 45.1934 189.227C38.3146 197.188 23.2236 218.977 40.9852 240.937C43.2611 239.674 46.4895 237.65 48.6838 235.31C46.7174 229.768 46.5575 222.689 50.6773 214.007C50.8163 214.696 50.9911 215.377 51.2012 216.048C56.8791 234.031 57.1818 248.999 57.1682 252.449C57.1677 252.677 57.2354 252.901 57.3626 253.09C57.4899 253.28 57.671 253.427 57.8826 253.514C65.3669 256.507 79.7368 254.728 84.5641 254.007C84.9888 253.942 85.3705 253.712 85.6256 253.366C85.8807 253.021 85.9883 252.588 85.9249 252.163C83.5435 235 95.7157 206.761 98.9306 199.688C99.1564 199.181 99.4722 198.719 99.8627 198.324Z" fill="#E67171"/>
<path d="M64.877 169.078L63.438 183.788C63.438 183.788 71.7149 186.281 77.7262 182.036L73.501 168.663L64.877 169.078Z" fill="#FFA171"/>
<path d="M74.4807 152.309C74.6814 152.496 82.8869 168.614 82.8869 168.614L73.586 173.105L63.5366 158.973C63.5366 158.973 71.1536 149.169 74.4807 152.309Z" fill="#FFBE9D"/>
<path d="M67.6531 159.375C67.5693 159.584 67.5346 159.811 67.5517 160.036C67.5688 160.261 67.6372 160.479 67.7518 160.674L72.3921 168.41C72.4612 168.527 72.5459 168.633 72.6438 168.727C73.1983 169.24 75.0864 170.734 76.5492 168.699C77.7943 166.964 78.9612 165.386 80.2131 164.736C80.3876 164.647 80.578 164.593 80.7734 164.578C80.9687 164.563 81.1651 164.587 81.3512 164.648C81.5373 164.709 81.7094 164.807 81.8574 164.936C82.0054 165.064 82.1265 165.221 82.2135 165.396C83.4611 167.822 84.5277 170.338 85.4045 172.921C85.515 173.276 85.4878 173.659 85.3282 173.994C85.1687 174.33 84.8886 174.593 84.5438 174.731C82.6591 175.493 78.9374 176.874 75.6341 177.33C75.3685 177.367 75.0979 177.331 74.8511 177.226C74.6043 177.121 74.3905 176.951 74.2325 176.735C72.8105 174.785 68.7894 169.346 67.4286 167.985C66.1563 166.719 63.8123 167.196 62.7577 167.498C62.5598 167.556 62.352 167.572 62.1476 167.545C61.9432 167.518 61.7466 167.449 61.5705 167.342C60.4988 166.699 58.6278 165.09 60.3389 162.368C60.5403 162.038 60.6049 161.643 60.5191 161.266C60.4333 160.89 60.2039 160.561 59.8797 160.351C58.6856 159.565 57.386 158.085 58.6244 155.694C59.8627 153.302 62.1114 153.054 63.6354 153.241C63.9656 153.286 64.3014 153.222 64.5926 153.06C64.8838 152.898 65.1149 152.647 65.2514 152.343C65.3157 152.185 65.4201 152.046 65.5543 151.94C65.6885 151.835 65.8479 151.766 66.0168 151.741C66.2061 151.708 66.3869 151.637 66.5485 151.533C66.7102 151.429 66.8494 151.294 66.9581 151.136C67.0668 150.977 67.1428 150.799 67.1815 150.61C67.2202 150.422 67.221 150.228 67.1837 150.04C66.9149 148.679 67.1156 146.889 69.3031 145.685C73.3174 143.481 76.835 147.077 77.7263 150.108C78.6176 153.139 74.1339 155.289 71.3102 155.646C69.2487 155.928 68.1124 158.191 67.6531 159.375Z" fill="#263238"/>
<path d="M69.1805 170.833C69.1805 170.833 67.3945 165.611 65.0982 165.805C62.8019 165.999 61.0158 168.271 63.8463 170.83C67.3809 174.014 69.1805 170.833 69.1805 170.833Z" fill="#FFBE9D"/>
<path d="M132.831 199.021C117.243 201.358 107.085 191.537 99.5157 185.56C89.5242 177.684 81.7473 181.515 81.7473 181.515L92.4056 201.855C108.32 216.861 124.639 213.531 134.93 208.659C135.052 205.321 134.33 202.006 132.831 199.021Z" fill="#E57171"/>
<path d="M154.427 185.934L149.565 192.503C143.367 196.276 137.822 198.287 132.831 199.021C134.33 202.009 135.051 205.326 134.927 208.666C138.764 206.88 142.347 204.592 145.582 201.862C157.288 194.874 154.427 185.934 154.427 185.934Z" fill="#FFBE9D"/>
<defs>
<linearGradient id="paint0_linear_286_1176" x1="105704" y1="37904.4" x2="90715.9" y2="63244" gradientUnits="userSpaceOnUse">
<stop stop-color="#E1473D"/>
<stop offset="1" stop-color="#E9605A"/>
</linearGradient>
<linearGradient id="paint1_linear_286_1176" x1="79564.5" y1="27599.2" x2="77029.4" y2="38567.7" gradientUnits="userSpaceOnUse">
<stop stop-color="#FE7264"/>
<stop offset="1" stop-color="#FF928E"/>
</linearGradient>
<linearGradient id="paint2_linear_286_1176" x1="8115.93" y1="12282.4" x2="8015.53" y2="12925.1" gradientUnits="userSpaceOnUse">
<stop stop-color="#FF928E"/>
<stop offset="1" stop-color="#FEB3B1"/>
</linearGradient>
<linearGradient id="paint3_linear_286_1176" x1="8414.45" y1="14384.2" x2="8275.66" y2="15128.2" gradientUnits="userSpaceOnUse">
<stop stop-color="#FF928E"/>
<stop offset="1" stop-color="#FEB3B1"/>
</linearGradient>
</defs>
</svg>
