<svg width="232" height="447" viewBox="0 0 232 447" fill="none" xmlns="http://www.w3.org/2000/svg">
<path d="M205.71 401.7L94.1802 401.18C90.9904 401.166 87.8347 400.523 84.8932 399.289C81.9517 398.055 79.2821 396.254 77.0368 393.988C74.7914 391.722 73.0144 389.037 71.8071 386.084C70.5997 383.132 69.9858 379.97 70.0003 376.78L71.1802 97.1902C71.1947 93.9991 71.8375 90.8421 73.072 87.8994C74.3065 84.9567 76.1086 82.286 78.3753 80.0397C80.6419 77.7934 83.3289 76.0156 86.2826 74.8078C89.2364 73.6 92.3991 72.9858 95.5902 73.0003L207.11 73.5203C213.551 73.5494 219.716 76.1351 224.25 80.7088C228.785 85.2825 231.317 91.4698 231.29 97.9102L230.11 377.5C230.098 380.692 229.458 383.85 228.225 386.793C226.992 389.737 225.191 392.409 222.925 394.657C220.659 396.904 217.972 398.683 215.019 399.892C212.065 401.1 208.902 401.715 205.71 401.7Z" fill="#263238"/>
<path d="M206.95 83.1702L185.33 83.0702C184.625 83.0819 183.93 83.2325 183.283 83.5134C182.637 83.7943 182.052 84.1999 181.563 84.7071C181.073 85.2142 180.688 85.813 180.431 86.469C180.173 87.125 180.047 87.8255 180.06 88.5302V92.4502C180.073 93.1554 179.948 93.8564 179.69 94.513C179.432 95.1696 179.048 95.769 178.558 96.2769C178.069 96.7849 177.484 97.1914 176.838 97.4734C176.191 97.7554 175.495 97.9072 174.79 97.9202L132.64 97.7202C131.217 97.6809 129.867 97.0789 128.886 96.046C127.906 95.0132 127.375 93.6338 127.41 92.2102L127.45 88.3102C127.485 86.8866 126.954 85.5072 125.974 84.4744C124.993 83.4415 123.644 82.8395 122.22 82.8002H114.62L95.6901 82.7102C93.4501 82.6983 91.2298 83.1293 89.1569 83.9783C87.0839 84.8273 85.1992 86.0777 83.6111 87.6574C82.023 89.2372 80.7627 91.1153 79.9027 93.1837C79.0428 95.2521 78.6001 97.4701 78.6001 99.7102L77.4501 372.5C77.4396 374.734 77.8692 376.947 78.7145 379.014C79.5597 381.081 80.804 382.962 82.3762 384.548C83.9485 386.134 85.8178 387.395 87.8775 388.258C89.9372 389.122 92.1468 389.571 94.3801 389.58L205.68 390.1C207.92 390.112 210.14 389.681 212.213 388.832C214.286 387.983 216.171 386.733 217.759 385.153C219.347 383.573 220.608 381.695 221.468 379.627C222.327 377.558 222.77 375.34 222.77 373.1L223.93 100.2C223.934 97.9669 223.498 95.7547 222.647 93.69C221.795 91.6253 220.546 89.7486 218.969 88.1671C217.392 86.5855 215.519 85.3302 213.457 84.4728C211.394 83.6155 209.183 83.1728 206.95 83.1702Z" fill="#FAFAFA"/>
<path d="M167.23 115.55H138.52V120.82H167.23V115.55Z" fill="#455A64"/>
<path d="M104.63 159.94C104.859 159.946 105.087 159.976 105.31 160.03C105.516 159.976 105.727 159.946 105.94 159.94H104.63Z" fill="#455A64"/>
<path d="M112.5 145.48C111.973 144.752 111.332 144.113 110.6 143.59C109.068 142.46 107.214 141.85 105.31 141.85C103.406 141.85 101.552 142.46 100.02 143.59C99.2859 144.113 98.6409 144.752 98.1103 145.48C97.5867 146.165 97.1749 146.927 96.8903 147.74C96.3686 149.151 96.2088 150.67 96.4254 152.158C96.642 153.647 97.2281 155.057 98.1303 156.26C98.2403 156.41 98.3603 156.54 98.4703 156.67C98.8412 155.476 99.5508 154.415 100.513 153.617C101.475 152.818 102.648 152.315 103.89 152.17C103.114 151.831 102.454 151.271 101.994 150.56C101.533 149.849 101.292 149.018 101.3 148.17C101.261 147.613 101.337 147.054 101.523 146.528C101.71 146.001 102.002 145.519 102.383 145.11C102.764 144.702 103.225 144.376 103.737 144.153C104.249 143.93 104.802 143.815 105.36 143.815C105.919 143.815 106.471 143.93 106.983 144.153C107.496 144.376 107.956 144.702 108.337 145.11C108.718 145.519 109.011 146.001 109.197 146.528C109.383 147.054 109.459 147.613 109.42 148.17C109.428 149.016 109.188 149.846 108.729 150.557C108.271 151.268 107.614 151.829 106.84 152.17C108.068 152.318 109.226 152.822 110.172 153.62C111.117 154.418 111.808 155.475 112.16 156.66L112.49 156.26C113.392 155.057 113.979 153.647 114.195 152.158C114.412 150.67 114.252 149.151 113.73 147.74C113.438 146.929 113.023 146.167 112.5 145.48Z" fill="#FAFAFA"/>
<path d="M104.63 246.1C105.07 246.16 105.31 246.16 105.31 246.2C105.516 246.146 105.727 246.115 105.94 246.11L104.63 246.1Z" fill="#455A64"/>
<path d="M112.5 231.65C111.976 230.919 111.334 230.281 110.6 229.76C109.068 228.63 107.214 228.02 105.31 228.02C103.406 228.02 101.552 228.63 100.02 229.76C98.5881 230.802 97.4985 232.247 96.8903 233.91C96.3686 235.321 96.2088 236.84 96.4254 238.328C96.642 239.817 97.2281 241.227 98.1303 242.43L98.4703 242.84C98.8379 241.644 99.5465 240.581 100.509 239.782C101.472 238.983 102.647 238.482 103.89 238.34C103.114 238.001 102.454 237.441 101.994 236.73C101.533 236.019 101.292 235.188 101.3 234.34C101.261 233.783 101.337 233.224 101.523 232.698C101.71 232.171 102.002 231.688 102.383 231.28C102.764 230.871 103.225 230.546 103.737 230.323C104.249 230.1 104.802 229.985 105.36 229.985C105.919 229.985 106.471 230.1 106.983 230.323C107.496 230.546 107.956 230.871 108.337 231.28C108.718 231.688 109.011 232.171 109.197 232.698C109.383 233.224 109.459 233.783 109.42 234.34C109.427 235.186 109.186 236.015 108.728 236.726C108.269 237.436 107.613 237.997 106.84 238.34C108.068 238.486 109.225 238.988 110.171 239.784C111.116 240.58 111.808 241.636 112.16 242.82L112.49 242.43C113.392 241.227 113.979 239.817 114.195 238.328C114.412 236.84 114.252 235.321 113.73 233.91C113.438 233.099 113.023 232.336 112.5 231.65Z" fill="#FAFAFA"/>
<path d="M143.96 363.97C143.879 364.521 143.602 365.023 143.181 365.387C142.759 365.75 142.222 365.95 141.665 365.95C141.109 365.95 140.571 365.75 140.149 365.387C139.728 365.023 139.452 364.521 139.37 363.97C139.452 363.42 139.728 362.917 140.149 362.553C140.571 362.19 141.109 361.99 141.665 361.99C142.222 361.99 142.759 362.19 143.181 362.553C143.602 362.917 143.879 363.42 143.96 363.97Z" fill="#455A64"/>
<path d="M151.08 364C151.145 364.468 151.066 364.945 150.853 365.367C150.639 365.789 150.302 366.136 149.886 366.361C149.47 366.586 148.995 366.678 148.525 366.626C148.055 366.573 147.612 366.378 147.256 366.067C146.9 365.756 146.648 365.344 146.532 364.885C146.417 364.427 146.445 363.944 146.612 363.501C146.778 363.059 147.077 362.678 147.466 362.41C147.855 362.141 148.317 361.998 148.79 362C149.359 361.962 149.92 362.151 150.349 362.526C150.779 362.901 151.042 363.431 151.08 364Z" fill="#455A64"/>
<path d="M158.19 364.03C158.256 364.499 158.176 364.976 157.962 365.399C157.748 365.821 157.41 366.167 156.994 366.392C156.577 366.617 156.102 366.709 155.631 366.655C155.161 366.602 154.718 366.406 154.363 366.094C154.007 365.782 153.755 365.369 153.641 364.909C153.527 364.45 153.556 363.967 153.724 363.524C153.893 363.082 154.193 362.702 154.583 362.435C154.974 362.168 155.437 362.026 155.91 362.03C156.478 361.994 157.036 362.185 157.463 362.56C157.89 362.934 158.152 363.463 158.19 364.03Z" fill="#455A64"/>
<path d="M104.63 290.79C105.07 290.85 105.31 290.85 105.31 290.89C105.31 290.93 105.53 290.89 105.94 290.8L104.63 290.79Z" fill="#455A64"/>
<path d="M112.5 276.31C111.973 275.585 111.331 274.95 110.6 274.43C109.068 273.3 107.214 272.69 105.31 272.69C103.406 272.69 101.552 273.3 100.02 274.43C99.2862 274.95 98.6412 275.585 98.1103 276.31C97.5865 276.998 97.1748 277.764 96.8903 278.58C96.3686 279.991 96.2088 281.51 96.4254 282.998C96.642 284.487 97.2281 285.897 98.1303 287.1C98.2403 287.24 98.3603 287.37 98.4703 287.5C98.8406 286.307 99.5502 285.247 100.513 284.449C101.475 283.652 102.649 283.152 103.89 283.01C103.106 282.668 102.441 282.1 101.98 281.379C101.519 280.658 101.282 279.816 101.3 278.96C101.261 278.403 101.337 277.844 101.523 277.317C101.71 276.791 102.002 276.308 102.383 275.9C102.764 275.491 103.225 275.166 103.737 274.943C104.249 274.72 104.802 274.605 105.36 274.605C105.919 274.605 106.471 274.72 106.983 274.943C107.496 275.166 107.956 275.491 108.337 275.9C108.718 276.308 109.011 276.791 109.197 277.317C109.383 277.844 109.459 278.403 109.42 278.96C109.427 279.806 109.186 280.635 108.728 281.346C108.269 282.056 107.613 282.617 106.84 282.96C108.068 283.106 109.225 283.608 110.171 284.404C111.116 285.2 111.808 286.256 112.16 287.44L112.49 287.05C113.388 285.845 113.972 284.435 114.188 282.947C114.405 281.46 114.247 279.942 113.73 278.53C113.434 277.733 113.019 276.985 112.5 276.31Z" fill="#FAFAFA"/>
<path d="M104.63 334.59C105.07 334.64 105.31 334.65 105.31 334.69C105.31 334.73 105.53 334.64 105.94 334.6L104.63 334.59Z" fill="#455A64"/>
<path d="M112.5 320.13C111.971 319.404 111.329 318.766 110.6 318.24C109.063 317.123 107.211 316.521 105.31 316.521C103.41 316.521 101.558 317.123 100.02 318.24C99.2882 318.766 98.6436 319.404 98.1103 320.13C97.5865 320.818 97.1748 321.584 96.8903 322.4C96.3686 323.811 96.2088 325.33 96.4254 326.818C96.642 328.307 97.2281 329.717 98.1303 330.92C98.2403 331.06 98.3603 331.19 98.4703 331.32C98.8406 330.127 99.5502 329.067 100.513 328.269C101.475 327.472 102.649 326.972 103.89 326.83C103.115 326.49 102.456 325.93 101.996 325.219C101.535 324.508 101.293 323.677 101.3 322.83C101.261 322.273 101.337 321.714 101.523 321.187C101.71 320.661 102.002 320.178 102.383 319.77C102.764 319.361 103.225 319.036 103.737 318.813C104.249 318.59 104.802 318.475 105.36 318.475C105.919 318.475 106.471 318.59 106.983 318.813C107.496 319.036 107.956 319.361 108.337 319.77C108.718 320.178 109.011 320.661 109.197 321.187C109.383 321.714 109.459 322.273 109.42 322.83C109.427 323.676 109.186 324.505 108.728 325.216C108.269 325.926 107.613 326.487 106.84 326.83C108.068 326.975 109.226 327.476 110.172 328.273C111.118 329.069 111.809 330.125 112.16 331.31C112.27 331.18 112.38 331.06 112.49 330.91C113.333 329.792 113.899 328.49 114.14 327.11C114.426 325.532 114.284 323.906 113.73 322.4C113.438 321.585 113.023 320.82 112.5 320.13Z" fill="#FAFAFA"/>
<path d="M154.8 105.899C154.808 106.506 154.695 107.109 154.469 107.672C154.242 108.235 153.907 108.748 153.481 109.18C153.055 109.613 152.547 109.956 151.987 110.191C151.428 110.426 150.827 110.548 150.22 110.549C149.453 110.555 148.696 110.371 148.017 110.014C147.338 109.656 146.758 109.136 146.329 108.5C145.9 107.864 145.635 107.132 145.558 106.368C145.481 105.605 145.593 104.834 145.886 104.125C146.179 103.416 146.643 102.79 147.236 102.304C147.829 101.817 148.534 101.485 149.287 101.337C150.04 101.189 150.817 101.229 151.551 101.455C152.284 101.68 152.95 102.084 153.49 102.629C154.341 103.504 154.812 104.679 154.8 105.899ZM154.8 105.899C154.799 105.302 154.679 104.71 154.447 104.159C154.216 103.608 153.877 103.108 153.451 102.688C153.026 102.269 152.521 101.938 151.966 101.715C151.411 101.492 150.818 101.381 150.22 101.389C149.632 101.392 149.05 101.511 148.508 101.739C147.966 101.968 147.474 102.301 147.062 102.72C146.649 103.14 146.323 103.636 146.103 104.182C145.883 104.727 145.773 105.311 145.78 105.899C145.768 107.082 146.225 108.222 147.05 109.069C147.9 109.911 149.048 110.384 150.245 110.384C151.442 110.384 152.59 109.911 153.44 109.069C154.288 108.23 154.776 107.093 154.8 105.899Z" fill="#002E5C"/>
<path d="M200.6 99.5293V101.399H199.03V105.149H200.6V107.029H218.1V99.5293H200.6Z" stroke="white" stroke-width="0.71" stroke-miterlimit="10"/>
<path d="M109.4 232.09C111.81 223.19 121.06 222.46 121.4 223.5C121.74 224.54 118.2 226.319 118.2 226.319" fill="#E1B89F"/>
<path d="M180.92 197.81H116.42V262.31H180.92V197.81Z" fill="#E2E0F4"/>
<path d="M176.5 202.229H120.83V251.82H176.5V202.229Z" fill="#F57406"/>
<path d="M158.931 255.277C172.342 249.615 178.624 234.152 172.962 220.74C167.299 207.328 151.836 201.046 138.424 206.709C125.013 212.371 118.731 227.834 124.393 241.246C130.056 254.658 145.519 260.94 158.931 255.277Z" fill="#D3D1E8"/>
<path d="M167.16 272.55C181.718 272.55 193.52 260.748 193.52 246.19C193.52 231.631 181.718 219.83 167.16 219.83C152.602 219.83 140.8 231.631 140.8 246.19C140.8 260.748 152.602 272.55 167.16 272.55Z" fill="#006BDC"/>
<path d="M180.117 276.4C193.707 271.18 200.493 255.932 195.273 242.342C190.054 228.751 174.805 221.965 161.215 227.185C147.625 232.404 140.839 247.653 146.058 261.243C151.278 274.834 166.526 281.619 180.117 276.4Z" fill="#5987E5"/>
<path d="M171.41 285.449C185.968 285.449 197.77 273.648 197.77 259.089C197.77 244.531 185.968 232.729 171.41 232.729C156.852 232.729 145.05 244.531 145.05 259.089C145.05 273.648 156.852 285.449 171.41 285.449Z" fill="#C05C7E"/>
<path d="M143.311 260.581C153.605 250.287 153.605 233.596 143.311 223.302C133.017 213.008 116.327 213.008 106.032 223.302C95.7382 233.596 95.7382 250.287 106.032 260.581C116.327 270.875 133.017 270.875 143.311 260.581Z" fill="#F58606"/>
<path d="M120.83 274.849C135.388 274.849 147.19 263.048 147.19 248.489C147.19 233.931 135.388 222.129 120.83 222.129C106.272 222.129 94.47 233.931 94.47 248.489C94.47 263.048 106.272 274.849 120.83 274.849Z" fill="#F57406"/>
<path d="M119.58 280.909C134.138 280.909 145.94 269.108 145.94 254.549C145.94 239.991 134.138 228.189 119.58 228.189C105.022 228.189 93.22 239.991 93.22 254.549C93.22 269.108 105.022 280.909 119.58 280.909Z" fill="#DC4F79"/>
<path d="M171.959 107.486L110.875 128.197L131.586 189.281L192.67 168.57L171.959 107.486Z" fill="#E2E0F4"/>
<path d="M169.195 113.094L116.473 130.97L132.397 177.934L185.119 160.057L169.195 113.094Z" fill="#006BDC"/>
<path d="M185.12 160.059L132.39 177.939L126.05 159.229C130.157 156.646 134.585 154.612 139.22 153.179C149.45 150.039 154.92 151.689 164.7 148.529C169.731 146.878 174.477 144.46 178.77 141.359L185.12 160.059Z" fill="#F57406"/>
<path d="M132.39 177.939L185.12 160.059L180.87 147.529C176.104 148.342 171.419 149.573 166.87 151.209C156.81 154.839 153.12 158.439 143.41 161.829C138.456 163.554 133.335 164.754 128.13 165.409C129.523 169.569 130.943 173.746 132.39 177.939Z" fill="#7A6ADB"/>
<path d="M166.09 128.43C166.586 129.894 166.636 131.473 166.234 132.966C165.832 134.46 164.997 135.8 163.833 136.819C162.67 137.837 161.23 138.488 159.697 138.689C158.164 138.89 156.605 138.631 155.219 137.946C153.833 137.261 152.68 136.181 151.908 134.841C151.135 133.502 150.777 131.963 150.879 130.42C150.981 128.877 151.538 127.399 152.48 126.173C153.421 124.946 154.706 124.026 156.17 123.53C157.143 123.198 158.172 123.062 159.198 123.129C160.223 123.196 161.226 123.465 162.147 123.92C163.069 124.375 163.892 125.008 164.568 125.782C165.245 126.556 165.762 127.455 166.09 128.43Z" fill="white"/>
<path d="M131.63 145.989L144.46 141.649C144.46 141.649 143.98 135.579 139.6 139.259C137.6 133.409 133.07 138.869 133.72 140.779C127.84 136.719 124.86 145.909 131.63 145.989Z" fill="#D3D1E8"/>
<path d="M182.109 70.5056L118.713 58.6187L106.826 122.014L170.222 133.901L182.109 70.5056Z" fill="#E2E0F4"/>
<path d="M176.488 72.6363L121.931 62.6157L113.005 111.214L167.562 121.235L176.488 72.6363Z" fill="#5987E5"/>
<path d="M122.22 94.3791L145.57 98.7591C145.57 98.7591 147.57 92.2591 142.07 93.6491C142.97 88.8591 134.14 87.8991 130.33 90.5091C131.6 83.6491 119.54 84.2091 122.22 94.3791Z" fill="white"/>
<path d="M142.84 86.0597L154.51 88.2497C154.51 88.2497 155.51 84.9997 152.76 85.6997C153.21 83.2997 148.76 82.8197 146.89 84.1297C147.53 80.7097 141.5 80.9797 142.84 86.0597Z" fill="#E2E0F4"/>
<path d="M144.91 108.649L156.59 110.839C156.59 110.839 157.59 107.589 154.84 108.279C155.29 105.889 150.84 105.409 148.96 106.719C149.61 103.299 143.58 103.559 144.91 108.649Z" fill="#E2E0F4"/>
<path d="M173.096 0.000169443L112.957 23.3145L136.271 83.4534L196.41 60.1391L173.096 0.000169443Z" fill="#E2E0F4"/>
<path d="M170.578 5.70945L118.672 25.832L136.597 72.0691L188.503 51.9465L170.578 5.70945Z" fill="#9C8EEF"/>
<path d="M165.606 24.3507L154.175 28.7822L166.465 60.4834L177.896 56.0519L165.606 24.3507Z" fill="white"/>
<path d="M170.028 22.6349L158.597 27.0664L170.887 58.7676L182.318 54.336L170.028 22.6349Z" fill="#D3D1E8"/>
<path d="M163.243 29.0365L161.732 29.6221L163.088 33.1185L164.598 32.533L163.243 29.0365Z" fill="white"/>
<path d="M166.349 27.8337L164.829 28.4229L166.184 31.9193L167.704 31.3301L166.349 27.8337Z" fill="white"/>
<path d="M169.436 26.6276L167.916 27.2168L169.272 30.7132L170.792 30.1241L169.436 26.6276Z" fill="white"/>
<path d="M165.741 35.4391L164.221 36.0283L165.576 39.5248L167.096 38.9356L165.741 35.4391Z" fill="white"/>
<path d="M168.828 34.2438L167.308 34.833L168.664 38.3295L170.183 37.7403L168.828 34.2438Z" fill="white"/>
<path d="M171.925 33.0339L170.405 33.623L171.76 37.1195L173.28 36.5303L171.925 33.0339Z" fill="white"/>
<path d="M168.22 41.8493L166.7 42.4385L168.056 45.9349L169.575 45.3457L168.22 41.8493Z" fill="white"/>
<path d="M170.596 40.9298L169.08 41.5166L170.43 45.0041L171.946 44.4173L170.596 40.9298Z" fill="white"/>
<path d="M173.688 39.7418L172.172 40.3286L173.522 43.8161L175.038 43.2293L173.688 39.7418Z" fill="white"/>
<path d="M170.699 48.2699L169.189 48.8555L170.544 52.3519L172.055 51.7664L170.699 48.2699Z" fill="white"/>
<path d="M173.06 47.3287L171.544 47.9155L172.894 51.403L174.41 50.8162L173.06 47.3287Z" fill="white"/>
<path d="M176.161 46.1368L174.645 46.7236L175.995 50.2111L177.511 49.6243L176.161 46.1368Z" fill="white"/>
<path d="M156.143 39.1374L148.219 42.2046L156.723 64.1712L164.646 61.104L156.143 39.1374Z" fill="white"/>
<path d="M159.909 37.6811L151.965 40.7607L160.506 62.793L168.45 59.7134L159.909 37.6811Z" fill="#D3D1E8"/>
<path d="M155.198 42.1296L154.145 42.5381L155.088 44.9716L156.142 44.5632L155.198 42.1296Z" fill="white"/>
<path d="M157.353 41.2986L156.299 41.707L157.243 44.1406L158.296 43.7321L157.353 41.2986Z" fill="white"/>
<path d="M159.507 40.4675L158.454 40.876L159.397 43.3095L160.451 42.9011L159.507 40.4675Z" fill="white"/>
<path d="M156.933 46.5925L155.88 47.001L156.823 49.4345L157.877 49.0261L156.933 46.5925Z" fill="white"/>
<path d="M159.075 45.7459L158.021 46.1543L158.965 48.5878L160.018 48.1794L159.075 45.7459Z" fill="white"/>
<path d="M161.22 44.9148L160.166 45.3232L161.109 47.7568L162.163 47.3483L161.22 44.9148Z" fill="white"/>
<path d="M158.646 51.0105L157.592 51.4189L158.535 53.8525L159.589 53.444L158.646 51.0105Z" fill="white"/>
<path d="M160.8 50.1794L159.747 50.5879L160.69 53.0214L161.744 52.613L160.8 50.1794Z" fill="white"/>
<path d="M162.951 49.3489L161.898 49.7573L162.841 52.1909L163.895 51.7824L162.951 49.3489Z" fill="white"/>
<path d="M160.377 55.4841L159.323 55.8926L160.267 58.3261L161.321 57.9177L160.377 55.4841Z" fill="white"/>
<path d="M162.532 54.6331L161.478 55.0415L162.422 57.475L163.475 57.0666L162.532 54.6331Z" fill="white"/>
<path d="M164.676 53.802L163.623 54.2104L164.566 56.644L165.62 56.2355L164.676 53.802Z" fill="white"/>
<path d="M142.127 33.462L130.696 37.8936L142.985 69.5947L154.416 65.1632L142.127 33.462Z" fill="white"/>
<path d="M146.555 31.7369L135.124 36.1685L147.414 67.8696L158.845 63.4381L146.555 31.7369Z" fill="#D3D1E8"/>
<path d="M139.761 38.1224L138.251 38.708L139.003 40.6474L140.513 40.0618L139.761 38.1224Z" fill="white"/>
<path d="M142.858 36.9235L141.338 37.5127L142.09 39.4521L143.61 38.8629L142.858 36.9235Z" fill="white"/>
<path d="M145.936 35.7211L144.426 36.3066L145.178 38.246L146.688 37.6604L145.936 35.7211Z" fill="white"/>
<path d="M141.132 41.6771L139.622 42.2627L140.373 44.2021L141.884 43.6165L141.132 41.6771Z" fill="white"/>
<path d="M144.219 40.4716L142.709 41.0571L143.461 42.9965L144.971 42.4109L144.219 40.4716Z" fill="white"/>
<path d="M147.316 39.2719L145.806 39.8574L146.558 41.7968L148.068 41.2112L147.316 39.2719Z" fill="white"/>
<path d="M142.521 45.2145L141.001 45.8037L141.753 47.7431L143.273 47.1539L142.521 45.2145Z" fill="white"/>
<path d="M145.599 44.0228L144.089 44.6084L144.841 46.5478L146.351 45.9622L145.599 44.0228Z" fill="white"/>
<path d="M148.686 42.827L147.176 43.4126L147.928 45.352L149.438 44.7664L148.686 42.827Z" fill="white"/>
<path d="M143.883 48.7733L142.372 49.3589L143.124 51.2982L144.634 50.7127L143.883 48.7733Z" fill="white"/>
<path d="M146.979 47.5736L145.469 48.1592L146.221 50.0985L147.731 49.513L146.979 47.5736Z" fill="white"/>
<path d="M150.079 46.3835L148.56 46.9727L149.311 48.912L150.831 48.3228L150.079 46.3835Z" fill="white"/>
<path d="M145.081 51.8422L143.571 52.4277L144.322 54.3671L145.833 53.7815L145.081 51.8422Z" fill="white"/>
<path d="M148.181 50.6418L146.662 51.231L147.413 53.1703L148.933 52.5811L148.181 50.6418Z" fill="white"/>
<path d="M151.259 49.4496L149.749 50.0352L150.501 51.9745L152.011 51.389L151.259 49.4496Z" fill="white"/>
<path d="M146.461 55.3932L144.941 55.9824L145.693 57.9218L147.213 57.3326L146.461 55.3932Z" fill="white"/>
<path d="M149.542 54.2006L148.032 54.7861L148.784 56.7255L150.294 56.1399L149.542 54.2006Z" fill="white"/>
<path d="M152.639 53.0009L151.129 53.5864L151.881 55.5258L153.391 54.9402L152.639 53.0009Z" fill="white"/>
<path d="M147.841 58.9343L146.321 59.5234L147.073 61.4628L148.593 60.8736L147.841 58.9343Z" fill="white"/>
<path d="M150.932 57.7477L149.412 58.3369L150.164 60.2763L151.684 59.6871L150.932 57.7477Z" fill="white"/>
<path d="M154.019 56.5519L152.499 57.1411L153.251 59.0805L154.771 58.4913L154.019 56.5519Z" fill="white"/>
<path d="M149.206 62.5018L147.695 63.0874L148.447 65.0268L149.958 64.4412L149.206 62.5018Z" fill="white"/>
<path d="M152.302 61.3026L150.792 61.8882L151.544 63.8275L153.054 63.242L152.302 61.3026Z" fill="white"/>
<path d="M155.399 60.0934L153.879 60.6826L154.631 62.622L156.151 62.0328L155.399 60.0934Z" fill="white"/>
<path d="M1.12988 436.649L0.129883 444.439H29.2799C29.2799 444.439 27.2799 441.089 19.2199 439.609L18.9099 436.879L1.12988 436.649Z" fill="#F57406"/>
<path d="M29.3 444.459H0V446.949H29.3V444.459Z" fill="#D3D1E8"/>
<path d="M0.580078 440.779C2.50366 440.781 4.42259 440.968 6.31007 441.339C7.25952 441.528 8.18997 441.803 9.09008 442.159C9.5369 442.351 9.95705 442.6 10.3401 442.899C10.5385 443.043 10.7012 443.231 10.8156 443.447C10.93 443.664 10.9931 443.904 11.0001 444.149C10.9714 443.916 10.8899 443.691 10.7617 443.494C10.6335 443.296 10.4619 443.131 10.2601 443.009C9.87373 442.735 9.44918 442.52 9.00008 442.369C8.09672 442.047 7.16635 441.806 6.22008 441.649C5.28008 441.449 4.34008 441.309 3.39008 441.169C2.44008 441.029 1.54008 440.879 0.580078 440.779Z" fill="white"/>
<path d="M26.53 442.12C26.9364 442.345 27.2802 442.668 27.53 443.06C27.6559 443.26 27.7567 443.475 27.83 443.7C27.9001 443.923 27.9306 444.156 27.92 444.39C27.7423 443.983 27.5316 443.592 27.29 443.22C27.18 443.03 27.04 442.85 26.92 442.67L26.53 442.12Z" fill="white"/>
<path d="M49.75 436.459L48.75 444.249H77.92C77.92 444.249 75.92 440.899 67.92 439.419L67.61 436.689L49.75 436.459Z" fill="#F57406"/>
<path d="M77.9199 444.25H48.6199V446.74H77.9199V444.25Z" fill="#D3D1E8"/>
<path d="M49.22 440.569C51.1436 440.571 53.0625 440.758 54.95 441.129C55.8965 441.317 56.8237 441.592 57.72 441.949C58.1699 442.141 58.5934 442.39 58.98 442.689C59.1752 442.836 59.3356 443.024 59.4497 443.241C59.5638 443.457 59.6287 443.695 59.64 443.939C59.6074 443.706 59.5232 443.482 59.3935 443.285C59.2638 443.088 59.0918 442.922 58.89 442.799C58.506 442.527 58.085 442.312 57.64 442.159C56.7471 441.829 55.8269 441.578 54.89 441.409C53.96 441.209 53.01 441.059 52.07 440.929C51.13 440.799 50.16 440.649 49.22 440.569Z" fill="white"/>
<path d="M75.1599 441.959C75.5678 442.187 75.9117 442.514 76.1599 442.909C76.2841 443.107 76.3848 443.319 76.4599 443.539C76.5334 443.762 76.5672 443.995 76.5599 444.229C76.3828 443.821 76.1685 443.429 75.9199 443.059C75.8058 442.87 75.6824 442.686 75.5499 442.509L75.1599 441.959Z" fill="white"/>
<path d="M21.8299 290.31C20.6599 294.93 14.3199 301.88 13.2099 310.44C11.899 320.453 11.4806 330.562 11.9599 340.65C12.5199 353.98 10.4399 380.9 0.129883 438.83H22.9299L34.5999 322.83L47.2899 371.28L47.0599 437.86L69.0599 437.4L68.5299 371.26C68.5299 366.71 61.9199 325.9 59.7099 315.07C57.9299 306.32 53.6199 298.07 51.5099 290.32L21.8299 290.31Z" fill="#002E5C"/>
<path d="M1.97998 428.26C5.46998 428.14 8.97998 428.13 12.46 428.11C15.94 428.09 19.46 428.11 22.93 428.26C19.44 428.37 15.93 428.38 12.46 428.4C8.98998 428.42 5.46998 428.37 1.97998 428.26Z" fill="#006BDC"/>
<path d="M47.3699 427.73C50.9899 427.62 54.5999 427.61 58.2199 427.59C61.8399 427.57 65.4499 427.59 69.0599 427.73C65.4499 427.85 61.8299 427.86 58.2199 427.87C54.6099 427.88 50.9899 427.85 47.3699 427.73Z" fill="#006BDC"/>
<path d="M16.6399 322.189C21.4899 322.189 26.3299 322.369 31.1799 322.459C36.0299 322.549 40.8599 322.749 45.6999 323.009C40.8499 323.009 36.0099 322.829 31.1699 322.739C26.3299 322.649 21.4799 322.449 16.6399 322.189Z" fill="#006BDC"/>
<path d="M50.6199 303.649C52.8799 313.836 55.0165 324.053 57.0299 334.299C59.0299 344.549 60.9399 354.809 62.4099 365.149C62.7699 367.739 63.0799 370.329 63.2899 372.939C63.4999 375.549 63.4699 378.169 63.4699 380.769L63.4199 396.429L63.2699 427.739L63.2199 396.419V380.759C63.2199 378.149 63.2799 375.539 63.0199 372.949C62.7599 370.359 62.4899 367.759 62.1299 365.179C60.6999 354.849 58.7999 344.579 56.8499 334.329C54.8999 324.079 52.7899 313.849 50.6199 303.649Z" fill="#006BDC"/>
<path d="M29.3 322.649C27.66 340.259 25.88 357.859 24.18 375.469C22.48 393.079 20.66 410.669 18.78 428.259C20.41 410.639 22.2 393.039 23.9 375.439C25.6 357.839 27.42 340.239 29.3 322.649Z" fill="#006BDC"/>
<path d="M80.9901 305.889C80.6701 315.139 79.4901 315.219 78.6901 315.199C77.8901 315.179 78.0201 310.669 78.0201 310.669L75.6701 309.729L72.9801 309.379C72.9801 309.379 72.4301 310.769 71.6901 310.549C70.9501 310.329 70.6301 309.279 70.4301 308.719C67.6501 300.519 70.6701 292.359 77.4301 296.009" fill="#E1B89F"/>
<path d="M77.4301 296.649L60.2201 277.899L51.4801 261.469C48.6201 267.419 45.5901 270.329 39.8401 271.649L39.9301 271.729C41.5601 273.309 47.9301 283.859 55.1601 290.909C61.5752 297.015 68.6369 302.404 76.2201 306.979L77.4301 296.649Z" fill="#E1B89F"/>
<path d="M78.51 307.879C78.51 308.599 78.3701 309.289 78.2901 309.989L78.14 310.989C78.14 311.339 78.03 311.689 78 312.039C77.8851 311.334 77.8851 310.615 78 309.909C78.098 309.217 78.2689 308.536 78.51 307.879Z" fill="#002E5C"/>
<path d="M77.4099 296.009C85.5099 300.409 84.0799 309.579 82.9999 309.649C81.9199 309.719 80.9999 305.889 80.9999 305.889" fill="#E1B89F"/>
<path d="M59.8599 249.439L82.1999 255.149L88.0299 268.629L65.6899 262.909L59.8599 249.439Z" fill="#F56106"/>
<path d="M103.09 307.48L65.8201 301.12L73.9901 237.31L111.26 243.67L103.09 307.48Z" fill="#E2E0F4"/>
<path d="M101.87 296.659L69.7 291.169L75.9799 242.109L108.15 247.609L101.87 296.659Z" fill="#002E5C"/>
<path d="M103.96 316.38L67.45 305.65L81.24 243.14L117.74 253.88L103.96 316.38Z" fill="#E2E0F4"/>
<path d="M103.71 305.469L72.1899 296.209L82.7899 248.149L114.3 257.419L103.71 305.469Z" fill="#006BDC"/>
<path d="M98.8699 311.389L71.9099 297.079L95.2299 238.469L122.2 252.779L98.8699 311.389Z" fill="#E2E0F4"/>
<path d="M100.82 300.869L77.55 288.519L95.48 243.459L118.76 255.809L100.82 300.869Z" fill="#D3D1E8"/>
<path d="M119.852 276.753L97.5117 271.038L86.8817 312.59L109.222 318.305L119.852 276.753Z" fill="#F58606"/>
<path d="M131.41 267.749L109.07 262.029L97.48 271.049L119.82 276.759L131.41 267.749Z" fill="#F57406"/>
<path d="M97.5168 271.033L65.5754 262.862L54.9454 304.414L86.8867 312.585L97.5168 271.033Z" fill="#F57406"/>
<path d="M48.2006 218.679L35.1614 217.526L33.0761 241.124L46.1152 242.277L48.2006 218.679Z" fill="#E1B89F"/>
<path d="M33.27 236.37H33.5099C39.4399 240.17 43.6799 238.37 47.6099 237.44C48.0113 237.411 48.4146 237.435 48.8099 237.51C53.4699 238.46 54.9899 247.08 55.1499 247.99C56.9399 254.35 60.0299 254.65 60.0599 259.61C59.9594 263.141 58.7954 266.56 56.7199 269.42C53.3399 274.73 51.4199 285.42 58.3299 308.95L13.7 303.65C17.0188 295.205 19.1263 286.334 19.9599 277.3C21.0199 265.88 22.0599 256.21 20.7099 249.48C20.4999 236.89 33.22 236.37 33.27 236.37Z" fill="#D3D1E8"/>
<path d="M118.22 226.319C123.08 224.419 127.42 223.169 127.86 223.849C128.3 224.529 124.94 226.559 124.94 226.559C124.94 226.559 127.06 225.79 127.65 226.64C128.24 227.49 126.35 228.579 126.35 228.579C126.35 228.579 128.29 228 128.61 229.03C128.93 230.06 127.32 231.129 127.32 231.129C127.32 231.129 128.32 231.209 128.6 231.949C128.88 232.689 125.6 234.529 123.41 235.949C116.12 240.609 107.41 239.499 109.41 232.099" fill="#E1B89F"/>
<path d="M117.52 226.81C117.22 227.151 116.885 227.459 116.52 227.73C116.142 227.999 115.737 228.227 115.31 228.41C115.613 228.074 115.948 227.769 116.31 227.5C116.687 227.227 117.093 226.995 117.52 226.81Z" fill="#002E5C"/>
<path d="M67.97 234.969L45.15 237.969C38.36 238.969 41.15 248.969 38.95 254.909C38.48 256.179 46.72 256.179 70.52 250.229C72.41 244.649 71.53 240.509 67.97 234.969Z" fill="#D3D1E8"/>
<path d="M63.81 251.799C61.89 252.279 59.96 252.639 58.03 253.019C56.1 253.399 54.16 253.709 52.2 253.949C54.12 253.479 56.05 253.109 57.9799 252.739C59.9099 252.369 61.85 252.049 63.81 251.799Z" fill="#002E5C"/>
<path d="M111.56 231.31L67.97 234.97C71.53 240.51 72.41 244.62 70.52 250.21H70.64L119.73 237.76L111.56 231.31Z" fill="#E1B89F"/>
<path d="M122.32 227.73C122.92 227.35 123.56 227.06 124.18 226.73L125.13 226.27C125.44 226.11 125.76 225.96 126.07 225.79C125.55 226.277 124.956 226.678 124.31 226.98C123.675 227.3 123.008 227.551 122.32 227.73Z" fill="#002E5C"/>
<path d="M123.89 229.749C124.99 229.169 126 228.539 127.12 227.989C126.901 228.208 126.667 228.412 126.42 228.599C126.17 228.779 125.9 228.939 125.64 229.099C125.1 229.42 124.508 229.64 123.89 229.749Z" fill="#002E5C"/>
<path d="M125.54 231.959C126.352 231.377 127.208 230.858 128.1 230.409C127.776 230.809 127.383 231.148 126.94 231.409C126.501 231.656 126.03 231.841 125.54 231.959Z" fill="#002E5C"/>
<path d="M64.8899 235.709C66.0019 236.479 66.9084 237.509 67.5299 238.709C68.1624 239.903 68.5756 241.2 68.7499 242.539C68.9273 243.867 68.9273 245.212 68.7499 246.539C68.6499 247.199 68.4999 247.849 68.3699 248.539L67.7699 250.449L68.2299 248.509C68.3299 247.849 68.4599 247.199 68.5399 246.509C68.7032 245.181 68.7032 243.838 68.5399 242.509C68.3764 241.199 67.9944 239.924 67.4099 238.739C66.7986 237.559 65.9389 236.526 64.8899 235.709Z" fill="#002E5C"/>
<path d="M14.0901 300.959C21.4901 301.769 28.8701 302.729 36.2601 303.609C43.6501 304.489 51.0301 305.499 58.4001 306.549C51.0001 305.739 43.6201 304.779 36.2301 303.899C28.8401 303.019 21.4601 302.009 14.0901 300.959Z" fill="#002E5C"/>
<path d="M44.47 232.74L47.25 229.62L46.78 234.96L44.47 232.74Z" fill="#002E5C"/>
<path d="M52.8899 224.09C53.005 225.093 52.9195 226.11 52.6386 227.08C52.3576 228.051 51.8867 228.956 51.2531 229.743C50.6196 230.53 49.8361 231.183 48.948 231.665C48.06 232.147 47.0851 232.447 46.0799 232.55L41.6299 233.06C40.6269 233.188 39.6085 233.116 38.6335 232.848C37.6586 232.58 36.7465 232.121 35.9503 231.498C35.154 230.874 34.4894 230.099 33.995 229.217C33.5005 228.335 33.1861 227.364 33.0699 226.36L31.3499 211.36C31.1104 209.316 31.6922 207.261 32.9674 205.647C34.2425 204.032 36.1066 202.99 38.1499 202.75L42.5999 202.24C44.6446 202.012 46.696 202.606 48.303 203.89C49.91 205.175 50.9412 207.045 51.1699 209.09L52.8899 224.09Z" fill="#E1B89F"/>
<path d="M44.14 220.7C44.35 222.52 43.45 224.11 42.14 224.26C40.83 224.41 39.58 223.06 39.37 221.26C39.16 219.46 40.06 217.85 41.37 217.7C42.68 217.55 43.94 218.88 44.14 220.7Z" fill="#E1B89F"/>
<path d="M42.5 223.009C42.2957 222.833 42.1399 222.607 42.0472 222.353C41.9544 222.099 41.9279 221.826 41.97 221.559C42.0042 221.285 42.0999 221.022 42.25 220.789C42.3276 220.665 42.4297 220.557 42.5499 220.473C42.6702 220.389 42.8063 220.33 42.95 220.299L42.84 220.469C42.7517 220.02 42.5284 219.609 42.2 219.289C42.0305 219.135 41.8094 219.049 41.58 219.049C41.3506 219.049 41.1294 219.135 40.96 219.289C41.0329 219.186 41.1285 219.101 41.2394 219.04C41.3504 218.98 41.4737 218.945 41.6 218.939C41.8614 218.926 42.1195 219.004 42.33 219.159C42.7238 219.489 42.998 219.939 43.11 220.439C43.1195 220.474 43.1155 220.511 43.0988 220.542C43.082 220.574 43.0538 220.598 43.02 220.609C42.8039 220.682 42.613 220.815 42.4696 220.992C42.3261 221.169 42.2361 221.383 42.21 221.609C42.1502 221.85 42.1453 222.1 42.1954 222.343C42.2456 222.585 42.3497 222.813 42.5 223.009Z" fill="#002E5C"/>
<path d="M50.2199 215.249C50.3099 216.039 50.1499 216.709 49.8599 216.739C49.5699 216.769 49.2699 216.159 49.1799 215.359C49.0899 214.559 49.2499 213.899 49.5299 213.869C49.8099 213.839 50.2199 214.449 50.2199 215.249Z" fill="#002E5C"/>
<path d="M51.9001 215.479C51.9001 215.479 52.1601 218.719 53.0501 219.429C53.9401 220.139 52.8401 221.869 51.6101 221.209C50.3801 220.549 51.9001 215.479 51.9001 215.479Z" fill="#E1B89F"/>
<path d="M51.85 225.05C50.95 226.69 50.24 224.29 50.24 224.29L51.85 225.05Z" fill="white"/>
<path d="M47.31 221.649C47.38 222.269 48.22 222.649 49.17 222.579C50.12 222.509 50.85 221.869 50.78 221.249C50.71 220.629 49.87 220.249 48.91 220.319C47.95 220.389 47.22 221.059 47.31 221.649Z" fill="#E19D9F"/>
<path d="M18.85 206.969C18.31 209.079 16.28 211.399 16.97 213.639C17.26 214.589 18.03 215.369 18.24 216.339C19.15 220.449 13.06 222.339 12.94 226.339C12.86 228.719 13.94 230.229 12.94 232.539C11.94 234.679 10.32 236.449 9.29997 238.539C8.77547 239.447 8.62824 240.524 8.88997 241.539C9.03997 241.979 9.31997 242.359 9.46997 242.799C10.27 245.139 7.06997 248.599 6.20997 250.799C5.59168 252.3 5.31574 253.92 5.40223 255.541C5.48873 257.162 5.93547 258.743 6.70997 260.169C10.15 266.599 14.71 265.389 17.61 265.329C20.2151 265.198 22.8044 265.804 25.08 267.079C30.08 270.079 35.65 268.159 36.29 263.959C36.4264 263.226 36.7149 262.53 37.1369 261.915C37.5589 261.3 38.105 260.78 38.74 260.389C42.44 257.939 44.14 251.169 40.9 249.249C36.97 246.909 45.47 244.889 42.9 240.249C40.33 235.609 50.26 228.739 44.98 222.089C39.7 215.439 47.36 210.089 47.36 210.089C47.36 210.089 50.97 210.809 52.36 208.749C52.8901 208.008 53.4575 207.294 54.06 206.609C56.99 203.129 50.49 200.159 48.45 199.059C46.9793 198.202 45.416 197.514 43.79 197.009C41.589 196.479 39.2985 196.439 37.08 196.889C35.8705 197.176 34.6398 197.363 33.4 197.449C32.19 197.449 31.06 197.019 29.85 197.059C28.3729 197.202 26.9609 197.738 25.76 198.609C23.8312 199.752 22.0907 201.185 20.6 202.859C19.7286 204.088 19.1318 205.49 18.85 206.969Z" fill="#263238"/>
<path d="M30.3999 197.37C29.2341 197.409 28.0938 197.721 27.0699 198.28C26.0699 198.81 25.0699 199.42 24.0699 200.05C23.0935 200.675 22.1764 201.388 21.3299 202.18C20.4504 202.932 19.7992 203.916 19.4499 205.02C19.1433 206.149 18.7488 207.252 18.2699 208.32C17.6883 209.319 17.1931 210.366 16.7899 211.45C16.6111 211.984 16.5597 212.552 16.6399 213.11C16.7561 213.669 16.9766 214.202 17.2899 214.68C17.6183 215.179 17.8521 215.735 17.9799 216.32C18.077 216.915 18.0324 217.525 17.8499 218.1C17.4032 219.205 16.6925 220.183 15.7799 220.95C14.9149 221.72 14.0905 222.534 13.3099 223.39C12.5418 224.244 12.1146 225.351 12.1099 226.5C12.1099 227.65 12.4199 228.79 12.4199 229.97C12.3875 231.159 11.9856 232.309 11.2699 233.26C10.6299 234.26 9.89991 235.15 9.20991 236.08C8.48308 236.994 7.88424 238.003 7.42991 239.08C7.20673 239.617 7.13413 240.204 7.21992 240.78C7.3862 241.337 7.60033 241.879 7.85992 242.4C7.59005 241.882 7.36263 241.344 7.17991 240.79C7.0889 240.207 7.15093 239.611 7.35992 239.06C7.80333 237.986 8.38853 236.977 9.09991 236.06C9.77991 235.12 10.5099 234.21 11.0999 233.23C11.7856 232.3 12.1727 231.184 12.2099 230.03C12.2099 228.89 11.8599 227.75 11.8699 226.56C11.8667 225.359 12.3044 224.199 13.0999 223.3C13.8776 222.429 14.7021 221.601 15.5699 220.82C16.4494 220.082 17.1358 219.142 17.5699 218.08C17.7431 217.544 17.7877 216.975 17.6999 216.42C17.5817 215.864 17.3613 215.335 17.0499 214.86C16.7268 214.357 16.5027 213.797 16.3899 213.21C16.3067 212.615 16.3614 212.01 16.5499 211.44C16.9693 210.346 17.4777 209.29 18.0699 208.28C18.5511 207.226 18.949 206.136 19.2599 205.02C19.4548 204.463 19.7167 203.933 20.0399 203.44C20.3757 202.954 20.7685 202.511 21.2099 202.12C22.0652 201.324 22.9963 200.614 23.9899 200C24.9587 199.373 25.9601 198.799 26.9899 198.28C28.0394 197.713 29.2076 197.401 30.3999 197.37Z" fill="#006BDC"/>
<path d="M52.65 209.189L53.65 207.799C54.0102 207.36 54.3441 206.899 54.65 206.419C54.9079 205.924 54.9967 205.358 54.9029 204.807C54.809 204.256 54.5376 203.752 54.13 203.369C53.3542 202.526 52.4578 201.801 51.47 201.219C50.47 200.599 49.47 200.049 48.47 199.479C49.5371 199.94 50.5786 200.457 51.59 201.029C52.6218 201.598 53.5568 202.327 54.36 203.189C54.5446 203.422 54.7149 203.666 54.87 203.919C55.0083 204.191 55.1092 204.481 55.17 204.779C55.2925 205.382 55.1779 206.009 54.85 206.529C54.22 207.509 53.41 208.299 52.65 209.189Z" fill="#006BDC"/>
<path d="M44.54 240.429C44.034 239.779 43.7501 238.983 43.73 238.159C43.7384 237.337 43.8595 236.519 44.09 235.729C44.52 234.159 45.16 232.659 45.64 231.109C46.1917 229.596 46.4331 227.988 46.35 226.379C46.1596 224.763 45.4054 223.265 44.22 222.149C44.8374 222.685 45.3642 223.316 45.78 224.019C46.1813 224.743 46.4394 225.538 46.54 226.359C46.6708 228.001 46.4491 229.651 45.89 231.199C45.38 232.749 44.75 234.199 44.28 235.789C44.0322 236.557 43.8876 237.354 43.85 238.159C43.8238 238.971 44.0664 239.769 44.54 240.429Z" fill="#006BDC"/>
<path d="M73.58 308.65C73.44 309.87 72.73 310.78 71.98 310.65C71.23 310.52 70.75 309.52 70.89 308.31C71.03 307.1 71.74 306.18 72.49 306.31C73.24 306.44 73.72 307.39 73.58 308.65Z" fill="#E1B89F"/>
<path d="M75.9 309.2C75.58 310.46 74.73 311.33 74 311.15C73.27 310.97 72.95 309.79 73.28 308.53C73.61 307.27 74.45 306.4 75.17 306.59C75.89 306.78 76.22 307.94 75.9 309.2Z" fill="#E1B89F"/>
<path d="M78.37 309.95C78.05 311.21 77.2 312.08 76.47 311.9C75.74 311.72 75.42 310.54 75.75 309.28C76.08 308.02 76.92 307.15 77.64 307.34C78.36 307.53 78.69 308.65 78.37 309.95Z" fill="#E1B89F"/>
<path d="M65.55 262.87C74.62 265.07 83.66 267.41 92.72 269.68C101.78 271.95 110.81 274.33 119.82 276.76C110.75 274.57 101.71 272.22 92.65 269.95C83.59 267.68 74.56 265.31 65.55 262.87Z" fill="#002E5C"/>
<path d="M97.2201 271.929C95.6001 278.739 93.8401 285.509 92.1501 292.299C90.4601 299.089 88.6601 305.849 86.8101 312.599C88.4301 305.789 90.1901 299.019 91.8801 292.229C93.5701 285.439 95.4101 278.649 97.2201 271.929Z" fill="#002E5C"/>
<path d="M42.2999 207.56C42.0699 207.91 41.6299 208.04 41.2999 208.26C40.9536 208.466 40.6197 208.694 40.2999 208.94C39.6171 209.423 39.1253 210.131 38.9099 210.94C38.7518 211.746 38.8497 212.582 39.1899 213.33C39.4916 214.088 39.8355 214.829 40.2199 215.55C40.6246 216.279 40.982 217.034 41.2899 217.81C41.5986 218.608 41.6816 219.477 41.5299 220.32C41.0335 221.934 40.1982 223.424 39.0799 224.69C38.0296 225.971 37.0706 227.324 36.2099 228.74C35.793 229.438 35.6043 230.249 35.6699 231.06C35.8396 231.86 36.2393 232.593 36.8199 233.17C37.9871 234.375 38.8987 235.803 39.4999 237.37C39.7199 238.185 39.7199 239.044 39.4999 239.86C39.2441 240.654 38.8699 241.406 38.3899 242.09C38.8363 241.395 39.1735 240.636 39.3899 239.84C39.6048 239.044 39.6048 238.205 39.3899 237.41C38.774 235.87 37.856 234.469 36.6899 233.29C36.0855 232.685 35.6628 231.923 35.4699 231.09C35.3971 230.233 35.5891 229.374 36.0199 228.63C36.867 227.189 37.8231 225.815 38.8799 224.52C39.9821 223.295 40.8105 221.85 41.3099 220.28C41.6799 218.64 40.8099 217.09 40.0699 215.63C39.6924 214.893 39.3585 214.135 39.0699 213.36C38.7259 212.58 38.635 211.713 38.8099 210.88C39.0475 210.057 39.5727 209.347 40.2899 208.88C40.6289 208.637 40.983 208.417 41.3499 208.22C41.6199 208.01 42.0699 207.9 42.2999 207.56Z" fill="#024E9A"/>
<path d="M34.7999 204.77C34.4113 205.593 33.9024 206.355 33.2899 207.03C32.6899 207.71 31.9899 208.31 31.4499 209.03C30.9022 209.742 30.6385 210.633 30.7099 211.53C30.8362 212.423 31.0301 213.305 31.2899 214.17C31.7747 215.948 31.7953 217.821 31.3499 219.61C30.8588 221.39 29.8987 223.006 28.5699 224.29C27.93 224.916 27.4054 225.651 27.0199 226.46C26.6827 227.282 26.5755 228.181 26.7099 229.06C27.0695 230.833 27.7471 232.527 28.7099 234.06C29.7209 235.578 30.5215 237.226 31.0899 238.96C31.2848 239.862 31.2047 240.803 30.8599 241.66C30.5016 242.498 30.0122 243.275 29.4099 243.96C29.9931 243.265 30.4623 242.482 30.7999 241.64C31.1134 240.791 31.1656 239.868 30.9499 238.99C30.3685 237.275 29.5578 235.647 28.5399 234.15C27.5512 232.619 26.8403 230.927 26.4399 229.15C26.2963 228.225 26.4033 227.279 26.7499 226.41C27.1418 225.57 27.6764 224.806 28.3299 224.15C29.6445 222.909 30.6013 221.337 31.0999 219.6C31.5448 217.847 31.5448 216.012 31.0999 214.26C30.8415 213.386 30.6542 212.493 30.5399 211.59C30.4689 210.655 30.7508 209.727 31.3299 208.99C31.9099 208.27 32.6099 207.69 33.2299 206.99C33.8602 206.331 34.3893 205.583 34.7999 204.77Z" fill="#024E9A"/>
<path d="M24.3999 220.939C23.5418 222.177 22.4133 223.203 21.0999 223.939C20.4702 224.324 19.9367 224.847 19.5399 225.469C19.2174 226.131 19.1326 226.883 19.2999 227.599C19.6664 229.046 20.2141 230.44 20.9299 231.749C21.2599 232.419 21.6199 233.079 21.9299 233.749C22.241 234.46 22.3616 235.239 22.2799 236.009C22.1522 236.767 21.866 237.49 21.4399 238.129C21.033 238.767 20.5819 239.375 20.0899 239.949L17.1499 243.349C16.1572 244.466 15.2638 245.667 14.4799 246.939C14.0871 247.572 13.8095 248.27 13.6599 248.999C13.5956 249.368 13.6087 249.746 13.6982 250.109C13.7877 250.472 13.9517 250.813 14.1799 251.109C13.9401 250.818 13.7637 250.48 13.6621 250.117C13.5605 249.753 13.5359 249.373 13.5899 248.999C13.718 248.253 13.9787 247.535 14.3599 246.879C15.1346 245.59 16.0178 244.369 16.9999 243.229L19.9099 239.799C20.9348 238.731 21.6563 237.409 21.9999 235.969C22.2099 234.509 21.3899 233.139 20.7599 231.809C20.0465 230.478 19.5087 229.059 19.1599 227.589C18.9904 226.833 19.0894 226.041 19.4399 225.349C19.8529 224.706 20.4112 224.168 21.0699 223.779C22.3798 223.096 23.5181 222.125 24.3999 220.939Z" fill="#024E9A"/>
<path d="M24.8499 242.649C24.5606 243.319 24.1693 243.94 23.6899 244.489C23.441 244.759 23.1663 245.003 22.8699 245.219C22.5734 245.405 22.3154 245.646 22.1099 245.929C21.8927 246.578 21.8927 247.28 22.1099 247.929C22.2799 248.629 22.5099 249.319 22.7099 250.009C23.128 251.401 23.462 252.817 23.7099 254.249C23.8248 254.97 23.8651 255.701 23.8299 256.429C23.8415 256.803 23.7734 257.174 23.6303 257.519C23.4872 257.864 23.2723 258.174 22.9999 258.429C23.253 258.166 23.4458 257.851 23.565 257.505C23.6841 257.16 23.7267 256.793 23.6899 256.429C23.6983 255.711 23.6312 254.994 23.4899 254.289C23.2308 252.873 22.897 251.471 22.4899 250.089C22.2899 249.399 22.0799 248.709 21.9099 247.989C21.6446 247.28 21.6446 246.499 21.9099 245.789C22.1335 245.486 22.4158 245.231 22.7399 245.039C23.0361 244.841 23.3139 244.617 23.5699 244.369C24.0813 243.864 24.5129 243.284 24.8499 242.649Z" fill="#024E9A"/>
<path d="M160.77 291.479H139.66V319.37H160.77V291.479Z" fill="#E2E0F4"/>
<path d="M169.94 295.169H130.5L150.22 275.449L169.94 295.169Z" fill="#E2E0F4"/>
<path d="M202.73 327.62H97.7V339.24H202.73V327.62Z" fill="#E2E0F4"/>
<path d="M200.72 329.649H99.72V337.209H200.72V329.649Z" fill="#ECEAFF"/>
<path d="M180.22 329.649H99.72V337.209H180.22V329.649Z" fill="#F3826F"/>
</svg>
