<svg width="355" height="277" viewBox="0 0 355 277" fill="none" xmlns="http://www.w3.org/2000/svg">
<g style="mix-blend-mode:multiply">
<path d="M338.004 152.607C335.71 161.676 332.668 170.54 328.908 179.106C326.89 183.748 324.668 188.304 322.287 192.733C316.138 204.199 308.833 215.006 300.486 224.986C275.572 254.684 241.688 269.621 203.358 274.231C162.27 279.189 117.533 277.077 78.6916 261.841C49.1663 250.247 24.307 228.808 10.7502 199.945C10.23 198.818 9.71771 197.675 9.22115 196.532C5.82243 188.69 3.42075 180.452 2.07234 172.012C-0.15822 157.691 1.00829 143.101 6.80143 129.947C9.42235 123.935 12.9615 118.367 17.2921 113.442C34.3642 93.9031 62.8649 89.7178 86.8571 84.6183C101.21 81.568 115.799 77.903 128.702 70.7148C141.604 63.5265 151.283 52.2004 162.972 43.3964C195.216 19.1282 243.816 2.89954 282.902 19.546C294.874 24.6376 305.144 32.7874 313.641 42.6318C323.738 54.3127 331.344 68.3817 336.325 82.5454C337.407 85.614 338.335 88.7169 339.107 91.8538C340.687 98.272 341.687 104.819 342.094 111.417V111.464C342.865 125.307 341.485 139.186 338.004 152.607Z" fill="#D6E8E8"/>
</g>
<path d="M177.459 16.8348C178.847 16.8348 179.973 15.7091 179.973 14.3205C179.973 12.9318 178.847 11.8062 177.459 11.8062C176.07 11.8062 174.944 12.9318 174.944 14.3205C174.944 15.7091 176.07 16.8348 177.459 16.8348Z" fill="#D6EAE6"/>
<path d="M108.493 68.76C114.034 68.76 118.526 64.2678 118.526 58.7264C118.526 53.1851 114.034 48.6929 108.493 48.6929C102.951 48.6929 98.4592 53.1851 98.4592 58.7264C98.4592 64.2678 102.951 68.76 108.493 68.76Z" fill="#D6EAE6"/>
<path d="M353.563 178.092C354.357 174.145 351.8 170.301 347.852 169.507C343.905 168.714 340.061 171.27 339.268 175.218C338.474 179.165 341.03 183.009 344.978 183.803C348.925 184.596 352.769 182.04 353.563 178.092Z" fill="#D6EAE6"/>
<path d="M51.7753 79.5188C59.7848 79.5188 66.2778 73.0258 66.2778 65.0162C66.2778 57.0067 59.7848 50.5137 51.7753 50.5137C43.7657 50.5137 37.2727 57.0067 37.2727 65.0162C37.2727 73.0258 43.7657 79.5188 51.7753 79.5188Z" stroke="#D6EAE6" stroke-miterlimit="10"/>
<path d="M159.086 6.14684C159.088 7.16701 158.787 8.16471 158.221 9.01361C157.655 9.8625 156.85 10.5244 155.908 10.9155C154.966 11.3067 153.929 11.4094 152.928 11.2108C151.927 11.0121 151.008 10.521 150.287 9.79965C149.565 9.07827 149.074 8.15907 148.876 7.15842C148.677 6.15777 148.78 5.12067 149.171 4.17845C149.562 3.23623 150.224 2.43125 151.073 1.86545C151.922 1.29964 152.919 0.998447 153.939 1.00001C155.304 1.00001 156.614 1.54226 157.579 2.50748C158.544 3.47269 159.086 4.78181 159.086 6.14684V6.14684Z" stroke="#D6EAE6" stroke-miterlimit="10"/>
<path d="M315.344 176.757C315.345 176.968 315.284 177.174 315.168 177.35C315.052 177.526 314.886 177.664 314.692 177.746C314.498 177.827 314.284 177.849 314.077 177.809C313.87 177.769 313.68 177.668 313.53 177.52C313.38 177.371 313.278 177.182 313.236 176.975C313.195 176.769 313.215 176.554 313.296 176.359C313.376 176.164 313.512 175.998 313.688 175.881C313.863 175.763 314.069 175.701 314.279 175.701C314.56 175.701 314.83 175.812 315.029 176.01C315.228 176.207 315.341 176.476 315.344 176.757Z" fill="white"/>
<path d="M281.034 210.443C281.035 210.654 280.974 210.861 280.858 211.037C280.742 211.213 280.577 211.35 280.382 211.432C280.188 211.514 279.974 211.536 279.767 211.496C279.56 211.456 279.37 211.355 279.22 211.206C279.07 211.058 278.968 210.868 278.927 210.662C278.885 210.455 278.905 210.241 278.986 210.046C279.066 209.851 279.202 209.684 279.378 209.567C279.553 209.45 279.759 209.387 279.97 209.387C280.109 209.386 280.247 209.413 280.376 209.465C280.505 209.518 280.623 209.596 280.721 209.694C280.82 209.792 280.899 209.909 280.952 210.037C281.006 210.166 281.034 210.304 281.034 210.443Z" fill="white"/>
<path d="M28.4921 183.251C28.4906 183.67 28.3649 184.079 28.131 184.427C27.8971 184.775 27.5654 185.045 27.1778 185.204C26.7903 185.364 26.3642 185.404 25.9535 185.322C25.5427 185.239 25.1657 185.037 24.8699 184.74C24.5742 184.443 24.373 184.065 24.2919 183.654C24.2107 183.243 24.2531 182.817 24.4139 182.43C24.5746 182.043 24.8463 181.712 25.1948 181.48C25.5433 181.247 25.9529 181.123 26.3719 181.123C26.6513 181.122 26.9281 181.176 27.1863 181.283C27.4446 181.39 27.6791 181.547 27.8763 181.745C28.0735 181.942 28.2294 182.178 28.3351 182.436C28.4408 182.695 28.4942 182.972 28.4921 183.251Z" fill="white"/>
<path opacity="0.36" d="M159.654 252.052C213.183 252.052 256.576 246.413 256.576 239.457C256.576 232.501 213.183 226.862 159.654 226.862C106.125 226.862 62.7307 232.501 62.7307 239.457C62.7307 246.413 106.125 252.052 159.654 252.052Z" fill="url(#paint0_radial_278_1864)"/>
<path opacity="0.17" d="M27.7039 226.05L48.8902 215.425L67.8854 256.41C67.8854 256.41 48.4725 249.214 27.7039 226.05Z" fill="#2D3561"/>
<path opacity="0.17" d="M339.123 91.8221L300.872 73.4811L313.657 42.6001C323.753 54.281 331.359 68.35 336.341 82.5137C337.423 85.5823 338.35 88.6851 339.123 91.8221Z" fill="#2D3561"/>
<path d="M228.572 173.58C229.416 174.368 229.479 175.511 229.014 176.859C226.649 183.495 211.106 195.082 211.106 195.082L212.958 165.643C213.804 163.843 214.743 162.088 215.772 160.386C218.421 155.956 222.527 150.549 226.129 151.897C229.345 153.103 224.426 160.567 220.225 166.084C223.449 162.506 227.414 158.928 229.313 160.473C231.079 161.899 227.847 167.487 224.151 172.737C223.93 173.06 223.709 173.375 223.481 173.69C223.808 173.454 224.156 173.248 224.521 173.076C225.159 172.705 225.9 172.554 226.632 172.645C227.363 172.737 228.045 173.065 228.572 173.58Z" fill="#FFB961"/>
<path d="M229.014 176.859C226.649 183.496 211.106 195.082 211.106 195.082L212.958 165.643C213.804 163.843 214.743 162.088 215.772 160.386C217.711 161.923 218.72 164.256 219.808 166.542C219.808 166.542 219.808 166.542 219.808 166.581C220.293 167.659 220.857 168.7 221.494 169.695C222.258 170.795 223.141 171.807 224.127 172.713C224.245 172.832 224.371 172.942 224.497 173.052C225.286 173.801 226.176 174.51 227.035 175.212C227.721 175.748 228.367 176.292 229.014 176.859Z" fill="url(#paint1_linear_278_1864)"/>
<path d="M52.6816 154.687C52.5791 156.902 58.1988 157.588 59.2471 157.682C59.9723 158.872 60.7526 160.047 61.6117 161.166C59.3496 160.047 53.5486 157.391 54.0372 159.629C54.5259 161.868 60.2008 161.765 61.9191 161.639C62.8649 162.947 63.8659 164.201 64.9299 165.414C61.6117 164.161 55.054 161.986 56.3624 164.674C57.6708 167.361 63.4087 166.762 65.7496 166.344C66.6324 167.298 67.5467 168.228 68.5083 169.119C69.2964 169.82 70.0295 170.498 70.8098 171.176C67.594 170.309 58.1988 168.023 60.0274 170.482C61.856 172.942 69.1546 171.956 71.2748 171.578C72.9851 173.02 74.7743 174.384 76.6108 175.669C73.3083 174.739 60.2166 171.215 62.4629 175.227C64.788 179.389 75.2236 176.528 77.06 176.015C78.5734 177.056 80.1024 178.057 81.6788 178.971C77.6275 178.648 65.4738 177.883 68.6895 180.76C71.9053 183.637 80.1497 180.358 82.3803 179.349C84.0433 180.295 85.7301 181.162 87.4325 181.982C83.3576 182.195 69.8639 183.196 74.0334 186.522C78.2029 189.848 86.1557 183.897 88.1025 182.289C88.5281 182.494 88.9458 182.676 89.3715 182.865C91.806 183.967 94.3162 184.894 96.8828 185.639C94.3764 184.536 91.8858 183.377 89.5133 182.045C88.7961 181.667 88.1104 181.257 87.4168 180.871C88.268 177.797 92.3429 162.08 86.8099 160.094C80.9773 157.998 83.9803 174.51 86.8493 180.587C85.3596 179.736 83.9094 178.877 82.4827 177.939C81.6946 177.411 80.8433 176.827 80.0394 176.276C80.7251 174.589 85.5567 162.088 80.0394 160.583C74.5221 159.077 79.0699 173.785 79.8187 176.149C77.113 174.275 74.5158 172.249 72.0393 170.08C73.3556 167.148 77.6118 158.076 73.6787 155.412C69.7457 152.748 70.9595 165.257 71.4718 169.6C70.8728 169.056 70.2501 168.512 69.6511 167.952L66.7664 165.099L65.8679 164.067C67.1132 162.033 71.6689 154.057 69.0206 151.456C66.3723 148.855 65.7496 160.504 65.6156 163.72L64.1496 162.009C63.2581 160.993 62.4315 159.922 61.6747 158.802C61.588 158.683 61.5013 158.573 61.4304 158.463C62.8018 156.634 66.7427 150.991 64.2757 148.618C61.8087 146.246 61.1703 154.719 61.0048 157.887C60.4008 157.122 59.8579 156.31 59.3811 155.46L57.4737 152.268C58.2146 151.03 60.7604 146.451 59.1131 144.567C57.4658 142.683 57.3082 149.777 57.2924 151.944C56.7249 150.865 56.252 149.737 55.7161 148.618L55.5663 148.271L54.6757 146.435L54.0294 144.496C53.5959 143.196 53.1387 141.919 52.6894 140.618C53.7298 145.97 55.3456 151.369 58.2067 156.145C58.4511 156.603 58.7584 157.036 58.9949 157.485C57.7417 156.327 52.7761 152.401 52.6816 154.687Z" fill="#2D3561"/>
<path d="M52.6816 154.688C52.5791 156.902 58.1988 157.588 59.2471 157.683C59.9723 158.873 60.7526 160.047 61.6117 161.167C59.3496 160.047 53.5486 157.391 54.0372 159.63C54.5259 161.868 60.2008 161.766 61.9191 161.639C62.8649 162.948 63.8659 164.201 64.9299 165.415C61.6117 164.162 55.054 161.986 56.3624 164.674C57.6708 167.362 63.4087 166.763 65.7496 166.345C66.6324 167.299 67.5467 168.229 68.5083 169.119C69.2965 169.821 70.0295 170.499 70.8098 171.176C67.594 170.309 58.1988 168.024 60.0274 170.483C61.856 172.942 69.1546 171.957 71.2748 171.578C72.9851 173.021 74.7743 174.384 76.6108 175.669C73.3083 174.739 60.2166 171.216 62.4629 175.228C64.788 179.389 75.2236 176.528 77.06 176.016C78.5734 177.056 80.1024 178.057 81.6788 178.972C77.6275 178.648 65.4738 177.884 68.6895 180.761C71.9053 183.638 80.1497 180.359 82.3803 179.35C84.0433 180.296 85.7301 181.163 87.4325 181.982C83.3576 182.195 69.8639 183.196 74.0334 186.522C78.2029 189.848 86.1557 183.898 88.1025 182.29C88.5281 182.495 88.9458 182.676 89.3715 182.865C88.7746 182.129 87.9944 181.564 87.1094 181.226C78.9592 177.221 71.7165 171.587 65.8284 164.674C63.724 162.183 61.8166 159.567 59.9013 156.942C58.254 154.688 56.5673 152.347 55.9604 149.612C55.8895 149.289 55.8422 148.958 55.787 148.627L55.6372 148.28L54.7466 146.443L54.1003 144.504C53.6668 143.204 53.2096 141.927 52.7604 140.626C53.8008 145.978 55.4166 151.377 58.2777 156.154C58.522 156.611 58.8294 157.044 59.0658 157.494C57.7417 156.327 52.7761 152.402 52.6816 154.688Z" fill="url(#paint2_linear_278_1864)"/>
<path d="M111.078 164.8C111.078 164.8 86.4315 132.587 91.8936 126.967C97.3558 121.347 108.524 156.965 108.524 156.965C108.524 156.965 95.338 116.579 101.092 113.489C106.845 110.4 109.762 149.296 109.762 149.296C109.762 149.296 105.253 112.756 110.282 111.881C115.311 111.006 114.948 153.868 111.078 164.8Z" fill="#FFB961"/>
<path d="M118.416 161.765C118.281 162.922 117.867 164.028 117.21 164.989C116.524 165.842 115.657 166.531 114.672 167.007C108.603 170.16 100.658 168.055 96.0158 163.066C95.7381 162.788 95.475 162.496 95.2276 162.191C95.0778 161.876 94.9517 161.561 94.8256 161.237C93.8404 158.613 93.6828 155.72 92.9576 153.04C92.0825 149.784 90.3989 146.802 88.063 144.37C84.2482 140.429 78.6048 137.71 77.0757 132.429C76.4531 130.333 76.6107 128.079 76.0984 125.943C75.4679 123.365 73.9073 121.15 72.4964 118.849C71.5649 117.431 70.813 115.904 70.258 114.301C69.8681 113.346 69.8681 112.277 70.258 111.322C70.6576 110.675 71.2626 110.181 71.9762 109.919C75.0422 108.595 78.6758 109.769 81.3477 111.755C84.9664 114.452 87.4034 118.442 88.1497 122.892C88.4492 124.847 88.4177 126.833 88.8512 128.772V128.851C89.3093 130.779 90.2198 132.57 91.5074 134.077C93.5172 136.441 96.3074 137.899 98.8926 139.594C101.478 141.288 104.055 143.314 105.127 146.215C106.199 149.115 105.703 152.386 107.492 154.782C108.674 156.359 110.644 157.186 112.418 158.045C114.565 159.029 116.581 160.278 118.416 161.765Z" fill="#2D3561"/>
<path d="M118.416 161.766C118.281 162.922 117.867 164.028 117.21 164.989C116.524 165.842 115.657 166.531 114.672 167.007C108.603 170.16 100.658 168.055 96.0157 163.066C95.738 162.788 95.4749 162.496 95.2275 162.191C95.0778 161.876 94.9517 161.561 94.8256 161.238C93.8403 158.613 93.6827 155.72 92.9576 153.04C92.0825 149.784 90.3988 146.802 88.0629 144.37C84.2481 140.43 78.6048 137.71 77.0757 132.43C76.453 130.333 76.6107 128.079 76.0983 125.943C75.4678 123.365 73.9072 121.151 72.4963 118.849C73.2845 118.928 73.986 119.07 74.5377 119.18C80.2284 120.37 84.2718 124.973 88.8275 128.757V128.835C89.2856 130.763 90.1961 132.555 91.4837 134.061C93.4935 136.426 96.2837 137.884 98.8689 139.578C101.454 141.273 104.032 143.299 105.103 146.199C106.175 149.1 105.679 152.371 107.468 154.767C108.65 156.343 110.621 157.171 112.394 158.03C114.551 159.016 116.574 160.271 118.416 161.766Z" fill="url(#paint3_linear_278_1864)"/>
<path d="M102.518 150.739C101.563 148.297 100.017 146.13 98.0178 144.433C97.6158 144.071 96.67 143.259 96.5596 143.188C95.0306 141.966 93.4069 140.879 91.8699 139.736C89.787 138.299 87.9278 136.562 86.3527 134.581C85.6069 133.6 85.0118 132.514 84.5871 131.357C84.4768 131.042 84.3822 130.727 84.3034 130.404C84.7545 129.29 85.2949 128.214 85.9192 127.188C86.5532 126.112 87.351 125.141 88.2837 124.311C87.226 125.02 86.2825 125.887 85.4857 126.88C84.9688 127.523 84.4847 128.191 84.0354 128.882C84.0354 128.496 83.9566 128.094 83.9329 127.708C83.8147 125.209 83.9329 122.514 83.1448 119.984C82.4517 117.44 81.1382 115.108 79.3221 113.198C77.5005 111.322 75.1588 110.034 72.5989 109.501C75.0423 110.222 77.2296 111.625 78.9043 113.544C80.4023 115.246 81.4963 117.264 82.1044 119.448C81.5211 119.345 80.9536 119.267 80.3704 119.219C79.5314 119.152 78.6891 119.137 77.8482 119.172C77.0093 119.203 76.1741 119.298 75.3496 119.456C74.5301 119.604 73.7236 119.818 72.9378 120.094C73.7912 119.874 74.661 119.724 75.5388 119.645C76.3573 119.582 77.1794 119.582 77.9979 119.645C78.813 119.689 79.6241 119.789 80.4255 119.944C81.143 120.077 81.8512 120.256 82.5457 120.48C82.7915 121.59 82.9392 122.719 82.9871 123.854L83.0581 127.7C83.0876 129.038 83.3079 130.365 83.7123 131.641C84.1515 132.905 84.7843 134.094 85.5881 135.164C87.2317 137.208 89.171 138.996 91.3419 140.469C92.603 141.367 93.8719 142.234 95.1015 143.133C94.2255 143.157 93.3517 143.234 92.4847 143.361C91.056 143.572 89.6667 143.994 88.3625 144.615C89.7078 144.164 91.1135 143.919 92.532 143.889C93.8516 143.846 95.1722 143.938 96.4729 144.165C96.8276 144.441 97.1823 144.717 97.5212 145.001C99.5076 146.565 101.073 148.599 102.077 150.92C103.032 153.293 103.27 155.893 102.763 158.4C103.467 155.881 103.381 153.207 102.518 150.739Z" fill="#92DCE5"/>
<path d="M248.734 167.401C246.976 170.183 244.005 171.83 241.64 174.022C237.802 177.616 238.259 183.094 236.281 187.657C234.979 190.687 232.778 193.243 229.975 194.979C229.551 195.238 229.115 195.474 228.667 195.689C226.862 196.556 224.899 197.068 223.047 197.825C218.894 199.519 215 202.688 210.389 203.003C206.59 203.255 203.027 200.426 203.689 196.367C204.533 191.243 209.68 189.273 213.881 187.413C216.154 186.551 218.281 185.344 220.186 183.834C220.851 183.282 221.43 182.634 221.904 181.911C222.988 180.048 223.665 177.977 223.891 175.834C224.395 172.429 224.419 168.741 226.255 165.698C227.761 163.505 229.853 161.779 232.293 160.717C235.029 159.244 237.982 158.215 241.041 157.667C242.735 157.399 244.469 157.545 246.094 158.092C246.917 158.368 247.676 158.808 248.324 159.385C250.681 161.505 250.303 164.934 248.734 167.401Z" fill="#F3826F"/>
<path d="M238.369 168.725C234.373 172.587 233.404 178.538 232.671 184.047C232.166 187.752 231.583 191.645 230.038 194.979C229.614 195.238 229.178 195.474 228.73 195.689C226.925 196.556 224.962 197.068 223.11 197.825C218.957 199.519 215.063 202.688 210.452 203.003C206.653 203.255 203.09 200.426 203.752 196.367C204.596 191.243 209.743 189.273 213.944 187.413C216.217 186.551 218.344 185.344 220.249 183.834C220.891 183.277 221.449 182.629 221.904 181.911C222.988 180.048 223.665 177.977 223.891 175.834C224.395 172.429 224.419 168.741 226.255 165.698C227.761 163.505 229.853 161.779 232.293 160.717C235.029 159.244 237.982 158.215 241.041 157.667C242.735 157.399 244.469 157.545 246.094 158.092C246.827 162.68 241.278 165.903 238.369 168.725Z" fill="url(#paint4_linear_278_1864)"/>
<path d="M245.912 164.824C244.695 164.534 243.456 164.341 242.208 164.248C240.951 164.154 239.689 164.154 238.432 164.248C237.692 164.303 236.951 164.382 236.218 164.501C236.375 164.335 236.533 164.169 236.698 164.012C238.156 162.628 239.804 161.46 241.593 160.544L242.957 159.898C243.414 159.685 243.895 159.535 244.367 159.346C245.313 158.977 246.31 158.759 247.323 158.699C246.294 158.646 245.264 158.777 244.281 159.086C243.792 159.235 243.295 159.354 242.807 159.527L241.372 160.087C239.482 160.934 237.727 162.055 236.162 163.413C235.661 163.851 235.183 164.314 234.728 164.8H234.649V164.839C233.126 166.455 231.846 168.285 230.85 170.27C230.677 169.931 230.511 169.576 230.361 169.23C230.086 168.57 229.847 167.897 229.644 167.212C229.243 165.831 228.948 164.421 228.761 162.995C228.78 164.456 228.91 165.913 229.148 167.354C229.269 168.082 229.43 168.803 229.628 169.513C229.813 170.167 230.05 170.805 230.338 171.421C230.007 172.209 229.707 172.958 229.455 173.746C229.321 174.25 229.171 174.747 229.053 175.259L228.769 176.788L228.588 178.365C228.541 178.877 228.509 179.366 228.43 179.854C228.193 181.809 227.54 183.69 226.515 185.372C225.394 187.022 223.952 188.429 222.275 189.51C220.592 190.641 218.762 191.534 216.836 192.166C220.777 191.259 224.671 189.242 227.185 185.813C227.456 185.425 227.701 185.02 227.918 184.599C229.426 183.865 231.013 183.305 232.647 182.928C234.316 182.52 236.049 182.445 237.747 182.708C236.054 182.269 234.292 182.167 232.56 182.408C231.691 182.518 230.828 182.676 229.975 182.881C229.471 183.007 228.974 183.149 228.478 183.307C228.889 182.227 229.182 181.107 229.353 179.965C229.439 179.452 229.487 178.924 229.542 178.388L229.731 176.907L230.03 175.448C230.149 174.968 230.298 174.495 230.432 174.014C231.351 170.976 232.901 168.167 234.98 165.769C236.124 165.404 237.298 165.14 238.488 164.981C239.704 164.811 240.932 164.734 242.16 164.753C243.393 164.754 244.624 164.854 245.841 165.052C247.065 165.254 248.274 165.538 249.459 165.903C248.304 165.458 247.119 165.097 245.912 164.824Z" fill="#C05C7E"/>
<path d="M99.8147 164.65C98.0176 169.781 93.1782 173.439 87.9919 174.991C86.4536 175.446 84.8654 175.711 83.2628 175.779C82.0576 175.317 80.8879 174.766 79.7633 174.132C78.4717 173.398 77.3235 172.437 76.3741 171.295C72.244 166.195 73.9228 158.345 70.9278 152.599C70.7386 152.252 70.5494 151.929 70.3445 151.598C68.5159 148.824 65.5681 147.027 62.9277 145.009C60.0506 142.828 57.4512 140.302 55.1877 137.49C53.2252 135.054 51.5463 131.381 53.6114 129.009C53.841 128.749 54.1064 128.524 54.3996 128.339C54.9617 127.961 55.5901 127.694 56.2518 127.551C57.8395 127.235 59.485 127.397 60.9809 128.016C62.3988 128.582 63.7264 129.352 64.9218 130.301C67.4203 132.232 69.5642 134.636 72.2913 136.197C74.1829 137.293 76.3032 137.939 78.2657 138.9C82.9567 141.237 86.5913 145.26 88.4412 150.164C89.3949 152.741 89.8599 155.547 91.389 157.825C93.3988 160.922 96.8984 162.475 99.8147 164.65Z" fill="#F3826F"/>
<path d="M99.815 164.65C98.0179 169.781 93.1785 173.439 87.9922 174.991C86.454 175.446 84.8658 175.711 83.2631 175.779C82.0579 175.317 80.8883 174.766 79.7636 174.132C78.4721 173.398 77.3238 172.437 76.3744 171.295C72.2443 166.195 73.9232 158.345 70.9281 152.599C70.9281 152.118 70.9281 151.63 70.9281 151.149C70.8147 148.722 70.1171 146.359 68.8946 144.26C67.6887 142.282 65.9468 140.713 64.4571 138.94C62.0926 136.079 59.9014 131.846 61.0049 128.023C62.4227 128.589 63.7504 129.36 64.9458 130.309C67.4443 132.24 69.5882 134.644 72.3153 136.205C74.2069 137.3 76.3271 137.947 78.2897 138.908C82.9806 141.245 86.6152 145.268 88.4651 150.171C89.4188 152.749 89.8839 155.555 91.413 157.832C93.3992 160.922 96.8987 162.475 99.815 164.65Z" fill="url(#paint5_linear_278_1864)"/>
<path d="M80.3467 158.518C80.0629 157.73 79.8265 156.942 79.5979 156.153L79.6846 156.051L79.5348 155.956C79.2432 154.94 78.9752 153.915 78.6757 152.89C78.1646 150.963 77.4705 149.089 76.6028 147.294C75.7237 145.435 74.3966 143.824 72.7407 142.605C72.3335 142.293 71.8918 142.028 71.4244 141.816C70.9673 141.572 70.5101 141.336 70.0845 141.146C69.3515 140.831 68.6579 140.453 67.9564 140.075C67.7585 138.942 67.6478 137.796 67.6254 136.646C67.5914 135.397 67.6838 134.148 67.9013 132.918C67.5115 134.12 67.2473 135.358 67.1131 136.614C67.0012 137.569 66.9486 138.53 66.9554 139.491C65.5444 138.62 64.1815 137.672 62.8727 136.654H62.8254L62.7071 136.559C61.1759 135.349 59.7153 134.051 58.3327 132.674C56.9219 131.318 55.5898 129.875 54.313 128.378C56.4411 131.474 58.9427 134.296 61.7613 136.78L61.0835 136.938C60.5446 137.097 60.0179 137.294 59.5071 137.529C58.4835 137.992 57.5046 138.549 56.583 139.192C57.5774 138.708 58.6143 138.318 59.6805 138.025C60.1977 137.882 60.7245 137.777 61.2569 137.71C61.7594 137.647 62.2677 137.647 62.7702 137.71V137.647C64.1093 138.77 65.5263 139.798 67.0106 140.721C67.869 141.236 68.7558 141.701 69.6668 142.116C70.1318 142.329 70.5496 142.549 70.9515 142.77C71.374 142.97 71.7731 143.216 72.1417 143.503C73.6697 144.623 74.903 146.097 75.7358 147.799C76.5983 149.533 77.3281 151.33 77.9191 153.174C78.1792 153.962 78.4235 154.703 78.7072 155.476C78.4302 155.313 78.1402 155.173 77.8402 155.058C77.1899 154.782 76.5103 154.581 75.8146 154.459C74.4525 154.203 73.0545 154.203 71.6924 154.459C73.0446 154.382 74.3994 154.556 75.6885 154.971C76.3171 155.167 76.9223 155.432 77.4934 155.759C78.0605 156.082 78.5893 156.468 79.0698 156.91C79.0698 156.91 79.6452 158.108 79.921 158.754C80.7092 160.552 81.7023 162.404 83.3575 163.523C81.9241 162.154 80.8843 160.426 80.3467 158.518Z" fill="#C05C7E"/>
<path d="M241.845 194.743C241.467 196.02 238.109 195.287 237.518 195.137C236.864 195.673 236.194 196.178 235.5 196.658C237.014 196.469 240.844 196.115 240.119 197.289C239.394 198.463 236.178 197.289 235.209 196.863C234.421 197.415 233.593 197.927 232.742 198.44C234.878 198.384 239.047 198.44 237.77 199.717C236.493 200.993 233.341 199.504 232.088 198.802C231.394 199.173 230.692 199.519 229.967 199.835C229.4 200.087 228.824 200.316 228.249 200.544C230.251 200.694 236.068 201.246 234.555 202.302C233.041 203.358 229.037 201.324 227.934 200.725C226.673 201.206 225.388 201.624 224.087 201.994C226.153 202.12 234.334 202.72 232.229 204.556C230.125 206.392 224.702 202.759 223.772 202.073C222.7 202.373 221.628 202.633 220.549 202.861C222.913 203.476 230.007 205.462 227.587 206.455C225.167 207.449 221.148 203.949 220.076 202.932C218.941 203.137 217.806 203.295 216.679 203.421C218.956 204.359 226.436 207.614 223.394 208.67C220.351 209.726 217.01 204.729 216.221 203.468L215.386 203.539C213.782 203.682 212.17 203.711 210.562 203.626C212.21 203.5 213.857 203.326 215.473 203.043C215.953 202.972 216.426 202.877 216.899 202.798C217.025 200.875 217.829 191.117 221.376 191.086C225.112 191.086 220.115 199.858 217.285 202.719C218.302 202.53 219.295 202.333 220.296 202.081C220.872 201.947 221.447 201.774 222.015 201.616C221.967 200.528 221.684 192.449 225.12 192.678C228.556 192.907 223.047 200.394 222.156 201.585C224.069 201.061 225.948 200.425 227.784 199.677C227.619 197.746 226.996 191.732 229.77 191.007C232.545 190.282 229.36 197.155 228.194 199.519L229.557 198.944L231.772 197.888L232.482 197.486C232.182 196.075 231.173 190.629 233.207 189.699C235.24 188.769 233.27 195.5 232.702 197.36L233.877 196.674C234.587 196.273 235.271 195.828 235.926 195.342C235.997 195.287 236.068 195.248 236.131 195.192C235.713 193.884 234.594 189.888 236.47 189.029C238.346 188.17 237.029 193.119 236.47 194.956C236.964 194.638 237.433 194.282 237.873 193.892L239.599 192.457C239.418 191.606 238.882 188.516 240.19 187.728C241.498 186.94 240.19 191.054 239.764 192.292C240.3 191.787 240.789 191.244 241.301 190.715C241.358 190.664 241.411 190.609 241.459 190.55L242.334 189.675L243.122 188.706C243.627 188.051 244.139 187.413 244.651 186.759C243.041 189.685 240.931 192.307 238.417 194.507C238.188 194.712 237.928 194.901 237.684 195.106C238.692 194.664 242.263 193.419 241.845 194.743Z" fill="#2D3561"/>
<path d="M241.846 194.743C241.467 196.02 238.11 195.287 237.518 195.137C236.864 195.673 236.194 196.177 235.501 196.658C237.014 196.469 240.845 196.114 240.119 197.289C239.394 198.463 236.178 197.289 235.209 196.863C234.421 197.415 233.593 197.927 232.742 198.439C234.878 198.384 239.047 198.439 237.771 199.716C236.494 200.993 233.341 199.503 232.088 198.802C231.394 199.172 230.693 199.519 229.968 199.834C229.4 200.087 228.825 200.315 228.249 200.544C230.251 200.694 236.068 201.245 234.555 202.301C233.042 203.358 229.038 201.324 227.934 200.725C226.673 201.206 225.388 201.624 224.088 201.994C226.153 202.12 234.334 202.719 232.23 204.556C230.125 206.392 224.703 202.759 223.773 202.073C222.701 202.372 221.629 202.633 220.549 202.861C222.913 203.476 230.007 205.462 227.587 206.455C225.168 207.448 221.148 203.949 220.076 202.932C218.941 203.137 217.806 203.295 216.679 203.421C218.957 204.359 226.437 207.614 223.394 208.67C220.352 209.726 217.01 204.729 216.222 203.468L215.386 203.539C215.861 203.244 216.404 203.078 216.963 203.058C222.413 202.373 227.663 200.572 232.387 197.769C234.082 196.776 235.682 195.665 237.298 194.554C238.752 193.69 240.013 192.537 241.002 191.164C241.105 190.991 241.207 190.818 241.294 190.636C241.35 190.585 241.403 190.53 241.451 190.471L242.326 189.596L243.114 188.626C243.619 187.972 244.131 187.334 244.644 186.68C243.033 189.606 240.923 192.228 238.409 194.428C238.18 194.632 237.92 194.822 237.676 195.027C238.693 194.664 242.263 193.419 241.846 194.743Z" fill="url(#paint6_linear_278_1864)"/>
<path d="M258.649 47.1323L257.711 49.0161L255.97 52.5077C255.97 52.5077 231.173 37.6741 234.917 34.9943C238.661 32.3145 251.698 44.1136 252.517 44.8466C251.642 43.7668 235.965 24.4248 240.017 22.6041C240.154 22.5425 240.3 22.5052 240.45 22.4937C244.738 22.1627 254.574 41.6702 255.181 42.8761C254.527 41.3392 242.452 12.8148 248.671 11.8217C255.071 10.805 258.649 47.1323 258.649 47.1323Z" fill="#FFB961"/>
<path d="M258.649 47.1323L257.711 49.0161C257.155 48.9332 256.619 48.7432 256.135 48.4565C254.606 47.396 253.505 45.8256 253.03 44.0269C252.454 42.2771 252.186 40.4406 251.571 38.7066C249.995 34.1982 246.22 30.8248 243.122 27.207C241.856 25.8792 240.948 24.2521 240.482 22.478C244.769 22.1469 254.606 41.6544 255.213 42.8604C254.559 41.3234 242.484 12.7991 248.702 11.806C255.071 10.805 258.649 47.1323 258.649 47.1323Z" fill="url(#paint7_linear_278_1864)"/>
<path d="M293.203 37.7449C293.203 37.7449 287.56 58.9549 266.689 56.9135C265.68 56.811 264.655 56.6613 263.575 56.4485C263.575 56.4485 267.595 37.4375 293.156 37.7449H293.203Z" fill="#C05C7E"/>
<path d="M293.203 37.7446C293.203 37.7446 287.56 58.9546 266.689 56.9132L266.24 56.2512L293.156 37.7446H293.203Z" fill="url(#paint8_linear_278_1864)"/>
<path d="M290.043 40.2668C291.091 39.4235 292.171 38.6116 293.195 37.7446C292.021 38.4146 290.894 39.1476 289.743 39.8491L286.346 42.0402C284.092 43.5062 281.877 45.0353 279.662 46.5723L278.504 47.3605C278.638 46.2649 278.724 45.193 278.811 44.1131C278.914 42.7102 279.016 41.3387 279.205 39.9043C278.483 41.1737 278.077 42.5985 278.023 44.058C277.941 45.2301 278.002 46.4079 278.204 47.5654C276.502 48.7792 274.791 49.993 273.12 51.262C270.961 52.8383 268.817 54.4935 266.736 56.2196C269.101 54.8482 271.331 53.3901 273.578 51.9162C274.515 51.3093 275.438 50.6866 276.36 50.0639C277.202 50.8427 278.187 51.4504 279.26 51.8531C280.51 52.358 281.856 52.5761 283.201 52.4915C281.94 51.995 280.718 51.6009 279.513 51.1201C278.527 50.7496 277.558 50.3319 276.565 49.9063C277.794 49.1181 279.016 48.2353 280.238 47.392L282.05 46.0994C283.042 46.4641 284.084 46.6741 285.14 46.722C286.474 46.8279 287.81 46.5547 288.994 45.9339C287.721 46.0047 286.445 46.0047 285.172 45.9339C284.273 45.9339 283.367 45.8472 282.445 45.8156C283.903 44.7831 285.353 43.7348 286.78 42.6629L290.043 40.2668Z" fill="#AA436B"/>
<path d="M263.221 62.5886C261.4 64.3069 259.84 65.6625 258.492 66.7187C244.163 78.0212 255.386 54.4546 255.386 54.4546C255.386 54.4546 250.366 22.7381 275.572 11.9479L275.863 11.8218C275.863 11.8218 284.454 42.5373 263.221 62.5886Z" fill="#2D3561"/>
<path d="M263.221 62.5886C261.4 64.3069 259.839 65.6625 258.492 66.7187L257.609 62.9827L261.108 48.622C261.108 48.622 264.837 39.4712 266.232 35.0968C267.477 31.2111 274.113 15.4553 275.572 11.9479L275.863 11.8218C275.863 11.8218 284.454 42.5373 263.221 62.5886Z" fill="url(#paint9_linear_278_1864)"/>
<path d="M276.77 36.5233L264.844 39.4711C265.136 38.6829 265.42 37.8947 265.719 37.0592C267.296 32.8031 268.967 28.602 270.653 24.3931C271.494 22.2913 272.358 20.1895 273.246 18.0877C274.09 15.9832 274.996 13.9024 275.871 11.7822C273.712 15.7783 271.773 19.8926 269.912 24.0385C268.967 26.1718 268.052 28.3209 267.17 30.4858L261.55 23.4867L266.705 31.6681C266.027 33.3548 265.357 35.0415 264.71 36.7361C263.741 39.4317 262.795 42.1351 261.912 44.8623L255.686 38.9745L261.566 45.9499C261.172 47.1953 260.796 48.4432 260.439 49.6938C259.199 54.0551 258.254 58.4947 257.609 62.9826C258.176 60.7835 258.649 58.5687 259.311 56.3934C259.595 55.2978 259.895 54.2101 260.241 53.1303C260.588 52.0505 260.888 50.9628 261.242 49.883C262.243 46.7775 263.315 43.7036 264.395 40.6376L276.77 36.5233Z" fill="#92DCE5"/>
<path d="M194.885 127.692C194.885 127.692 195.674 105.095 175.133 100.894C175.133 100.87 172.911 126.155 194.885 127.692Z" fill="#2D3561"/>
<path d="M192.923 128.481L190.858 124.24C189.478 121.411 188.02 118.62 186.562 115.83C185.104 113.04 183.583 110.313 182.006 107.562C180.503 104.794 178.839 102.115 177.025 99.5386C177.813 100.871 178.475 102.321 179.177 103.724L181.297 107.941C182.122 109.596 182.965 111.238 183.827 112.867L177.025 111.913L184.403 113.978L185.632 116.343L186.665 118.266L179.524 117.596L187.248 119.346C188.194 121.111 189.155 122.877 190.148 124.626L192.474 128.733C193.262 130.089 194.05 131.46 194.893 132.8C194.263 131.334 193.577 129.891 192.923 128.481Z" fill="#92DCE5"/>
<path d="M193.23 132.413C174.078 135.566 167.071 117.856 166.653 116.744V116.689C181.1 114.151 189.51 125.808 192.237 130.514C192.891 131.673 193.23 132.413 193.23 132.413Z" fill="#FFB961"/>
<path d="M192.355 130.545L188.769 128.402C187.13 127.432 185.482 126.494 183.819 125.564L183.323 120.614L182.874 125.036L181.51 124.248L178.83 122.805L177.687 117.54L177.837 122.269C176.608 121.615 175.378 120.969 174.133 120.346C171.658 119.077 169.167 117.824 166.629 116.673C168.994 118.202 171.358 119.629 173.723 121.048C175.922 122.356 178.152 123.601 180.383 124.839L173.36 126.604L181.699 125.564C183.906 126.77 186.113 127.929 188.351 129.095L192.08 130.979C193.341 131.57 194.586 132.201 195.863 132.768C194.728 132.003 193.53 131.294 192.355 130.545Z" fill="#F3826F"/>
<path d="M193.23 132.414C174.078 135.566 167.071 117.856 166.653 116.745C167.914 117.288 169.545 118.037 171.382 118.944C174.385 120.481 186.011 127.007 192.245 130.514C192.891 131.673 193.23 132.414 193.23 132.414Z" fill="url(#paint10_linear_278_1864)"/>
<path d="M277.432 200.828H273.239V199.78H277.432V200.828ZM269.006 200.828H267.982V199.78H269.006V200.828ZM281.767 200.3L281.452 199.299C282.725 198.897 283.904 198.243 284.92 197.376L285.597 198.164C284.473 199.113 283.171 199.828 281.767 200.268V200.3ZM288.332 194.727L287.402 194.247C288.009 193.059 288.374 191.762 288.474 190.432L289.523 190.511C289.411 191.97 289.012 193.392 288.348 194.696L288.332 194.727ZM289.554 186.247H288.506V182.046H289.554V186.247ZM289.554 177.813H288.506V173.62H289.554V177.813ZM289.554 169.387H288.506V165.186H289.554V169.387ZM289.554 160.962H288.506V156.761H289.554V160.962ZM58.0412 159.842H56.9929V155.665H58.0412V159.842ZM289.554 152.473H288.506V148.28H289.554V152.473ZM58.0412 151.433H56.9929V147.232H58.0412V151.433ZM289.554 144.079H288.506V139.878H289.554V144.079ZM58.0412 143.007H56.9929V138.814H58.0412V143.007ZM289.554 135.645H288.506V131.468H289.554V135.645ZM58.0412 134.621H56.9929V130.42H58.0412V134.621ZM289.554 127.251H288.506V123.058H289.554V127.251ZM58.0412 126.156H56.9929V121.955H58.0412V126.156ZM289.554 118.786H288.506V114.585H289.554V118.786ZM58.0412 117.722H56.9929V113.529H58.0412V117.722ZM289.554 110.36H288.506V106.159H289.554V110.36ZM58.0412 109.296H56.9929V105.095H58.0412V109.296ZM289.554 101.927H288.506V97.7337H289.554V101.927ZM58.0412 100.871H56.9929V96.6697H58.0412V100.871ZM289.554 93.5012H288.506V89.3001H289.554V93.5012ZM58.0412 92.4371H56.9929V88.244H58.0412V92.4371ZM289.554 85.0755H288.506V80.8745H289.554V85.0755ZM58.0412 84.0114H56.9929V79.8104H58.0412V84.0114ZM289.554 76.6419H288.506V72.4488H289.554V76.6419ZM58.0412 75.5858H56.9929V71.3848H58.0412V75.5858ZM289.554 68.2163H288.506V64.0231H289.554V68.2163ZM58.0412 67.1522H56.9929V62.9591H58.0412V67.1522ZM289.554 59.7906H288.506V55.5896H289.554V59.7906ZM58.0412 58.7265H56.9929V54.5334H58.0412V58.7265ZM289.554 51.357H288.506V47.1324H289.554V51.357ZM58.0412 50.2851H56.9929V46.0841H58.0412V50.2851ZM289.554 42.9156H288.506V39.9284C288.505 39.5466 288.484 39.1651 288.443 38.7855L289.483 38.6594C289.531 39.0807 289.554 39.5044 289.554 39.9284V42.9156ZM58.0412 41.8673H56.9929V39.9441C56.9937 39.1493 57.0782 38.3567 57.2451 37.5796L58.2698 37.8003C58.1184 38.5049 58.0418 39.2235 58.0412 39.9441V41.8673ZM287.213 34.9944C286.563 33.8318 285.69 32.8087 284.644 31.9835L285.29 31.1953C286.448 32.106 287.415 33.2363 288.135 34.5215L287.213 34.9944ZM59.8698 34.1431L58.987 33.5362C59.829 32.3301 60.9003 31.3017 62.1398 30.5096L62.7309 31.3687C61.601 32.0926 60.6281 33.036 59.8698 34.1431ZM281.081 30.2022C280.196 29.9567 279.281 29.8321 278.362 29.8318H277.061V28.752H278.362C279.374 28.7533 280.382 28.8911 281.357 29.1618L281.081 30.2022ZM66.4511 29.95L66.2777 28.9175C66.9075 28.8071 67.5457 28.7518 68.1851 28.752H70.5497V29.7924H68.1851C67.6038 29.7972 67.0238 29.8499 66.4511 29.95ZM272.829 29.7924H268.644V28.752H272.845L272.829 29.7924ZM264.403 29.7924H260.202V28.752H264.403V29.7924ZM255.97 29.7924H251.776V28.752H255.97V29.7924ZM247.544 29.7924H243.343V28.752H247.544V29.7924ZM239.118 29.7924H234.917V28.752H239.118V29.7924ZM230.685 29.7924H226.492V28.752H230.685V29.7924ZM222.259 29.7924H218.058V28.752H222.259V29.7924ZM213.833 29.7924H209.632V28.752H213.833V29.7924ZM205.4 29.7924H201.207V28.752H205.4V29.7924ZM196.974 29.7924H192.781V28.752H196.974V29.7924ZM188.548 29.7924H184.347V28.752H188.548V29.7924ZM180.115 29.7924H175.922V28.752H180.115V29.7924ZM171.697 29.7924H167.504V28.752H171.697V29.7924ZM163.264 29.7924H159.086V28.752H163.287L163.264 29.7924ZM154.83 29.7924H150.637V28.752H154.83V29.7924ZM146.404 29.7924H142.211V28.752H146.404V29.7924ZM137.979 29.7924H133.778V28.752H137.979V29.7924ZM129.545 29.7924H125.352V28.752H129.545V29.7924ZM121.119 29.7924H116.926V28.752H121.119V29.7924ZM112.694 29.7924H108.493V28.752H112.694V29.7924ZM104.268 29.7924H100.067V28.752H104.268V29.7924ZM95.8346 29.7924H91.6414V28.752H95.8346V29.7924ZM87.4089 29.7924H83.2079V28.752H87.4089V29.7924ZM78.9832 29.7924H74.7507V28.752H78.9517L78.9832 29.7924Z" fill="#92DCE5"/>
<path d="M136.229 205.888L127.039 211.807L99.8148 229.344L82.1517 240.71L47.3376 186.625L99.8148 152.843L101.415 151.811L127.291 192.008L136.229 205.888Z" fill="white"/>
<path d="M128.804 205.588L110.534 217.348L84.5557 234.073L68.3191 208.851L56.0786 189.825L100.327 161.348L128.804 205.588Z" fill="#C05C7E"/>
<path d="M112.583 191.921L110.534 217.38L84.5242 234.105L68.2876 208.883C69.6812 208.105 71.1702 207.511 72.7172 207.118C75.6684 206.321 78.7088 205.902 81.7655 205.872C85.8168 205.825 89.8523 206.471 93.8956 206.14C97.939 205.809 102.14 204.327 104.457 201.001C105.742 199.165 106.341 196.903 107.689 195.106C108.903 193.51 110.633 192.385 112.583 191.921Z" fill="#FFB961"/>
<path d="M99.8147 183.251C99.8147 184.11 99.56 184.95 99.0828 185.664C98.6056 186.378 97.9273 186.935 97.1337 187.263C96.3402 187.592 95.467 187.678 94.6245 187.511C93.7821 187.343 93.0083 186.929 92.4009 186.322C91.7935 185.715 91.3799 184.941 91.2124 184.098C91.0448 183.256 91.1308 182.383 91.4595 181.589C91.7882 180.796 92.3448 180.117 93.059 179.64C93.7732 179.163 94.6128 178.908 95.4718 178.908C96.6236 178.908 97.7282 179.366 98.5427 180.18C99.3571 180.995 99.8147 182.099 99.8147 183.251Z" fill="#FFB961"/>
<path d="M127.291 192.008L127.039 211.807L99.8147 229.344V152.843L101.415 151.811L127.291 192.008Z" fill="url(#paint11_linear_278_1864)"/>
<path d="M218.2 128.598V225.616C218.2 226.27 218.071 226.917 217.821 227.521C217.57 228.125 217.203 228.673 216.74 229.135C216.278 229.597 215.729 229.963 215.124 230.213C214.52 230.462 213.872 230.59 213.219 230.589H111.921C111.385 230.587 110.852 230.496 110.345 230.321C109.357 229.987 108.5 229.35 107.895 228.501C107.289 227.653 106.966 226.635 106.972 225.592V128.598C106.972 127.945 107.1 127.297 107.351 126.693C107.601 126.089 107.968 125.541 108.431 125.079C108.894 124.617 109.443 124.251 110.047 124.001C110.651 123.752 111.299 123.624 111.953 123.625H213.25C214.57 123.625 215.836 124.149 216.77 125.081C217.704 126.014 218.229 127.279 218.231 128.598H218.2Z" fill="white"/>
<path d="M210.547 131.791V219.13H113.703V131.791H210.547Z" fill="#F3826F"/>
<path d="M210.547 160.197V215.417C210.547 218.373 208.545 220.146 205.589 220.146H118.652C115.697 220.146 113.703 220.28 113.703 217.324V178.207C120.095 181.076 133.407 185.387 147.642 179.783C166.881 172.201 181.4 158.132 210.547 160.197Z" fill="#2D3561"/>
<path d="M144.19 157.62C147.872 157.62 150.858 154.634 150.858 150.952C150.858 147.269 147.872 144.284 144.19 144.284C140.507 144.284 137.521 147.269 137.521 150.952C137.521 154.634 140.507 157.62 144.19 157.62Z" fill="#2D3561"/>
<path d="M111.795 154.499C111.795 154.499 113.245 150.558 116.863 150.983C120.481 151.409 120.583 157.636 120.583 157.636C120.854 157.161 121.267 156.783 121.762 156.555C122.258 156.326 122.813 156.257 123.35 156.359C125.439 156.564 125.833 158.905 125.833 158.905C125.833 158.905 131.145 156.367 132.572 159.984C133.005 161.08 131.681 161.726 129.514 162.097C123.689 163.09 111.795 162.042 111.795 162.042V154.499Z" fill="white"/>
<path style="mix-blend-mode:multiply" opacity="0.22" d="M218.2 128.599V225.616C218.2 226.27 218.071 226.917 217.821 227.521C217.57 228.125 217.203 228.674 216.74 229.136C216.278 229.598 215.729 229.964 215.124 230.213C214.52 230.463 213.872 230.591 213.219 230.589H111.921C111.385 230.587 110.852 230.496 110.345 230.322C134.345 206.605 192.939 148.666 216.75 125.044C217.216 125.51 217.584 126.065 217.833 126.675C218.082 127.285 218.207 127.939 218.2 128.599Z" fill="url(#paint12_linear_278_1864)"/>
<path style="mix-blend-mode:multiply" opacity="0.59" d="M218.2 128.598V148.807L185.758 153.828L178.791 123.625H213.258C214.571 123.633 215.828 124.161 216.754 125.093C217.68 126.025 218.2 127.285 218.2 128.598Z" fill="url(#paint13_linear_278_1864)"/>
<path d="M240.017 205.455L257.735 215.433L262.07 206.377L240.017 205.455Z" fill="#2D3561"/>
<path d="M240.017 205.455L263.907 195.082L262.204 203.098L240.017 205.455Z" fill="white"/>
<path d="M240.017 205.454L267.982 209.655L262.204 203.098L240.017 205.454Z" fill="white"/>
<path d="M240.017 205.455C240.474 205.258 262.717 200.678 262.717 200.678L262.204 203.098L240.017 205.455Z" fill="#92DCE5"/>
<path d="M216.064 227.626C215.86 224.726 214.832 221.945 213.101 219.61C211.369 217.275 209.006 215.483 206.29 214.446C203.574 213.409 200.619 213.17 197.771 213.757C194.924 214.344 192.304 215.732 190.219 217.758C191.649 214.782 192.406 211.528 192.436 208.226C192.467 204.925 191.771 201.657 190.397 198.655C189.024 195.652 187.006 192.989 184.488 190.854C181.97 188.718 179.013 187.163 175.826 186.299C172.64 185.435 169.302 185.282 166.05 185.852C162.798 186.422 159.711 187.701 157.008 189.597C154.306 191.494 152.054 193.962 150.412 196.826C148.77 199.691 147.779 202.881 147.508 206.172C146.361 204.005 144.504 202.299 142.248 201.338C139.992 200.378 137.475 200.223 135.118 200.898C132.761 201.573 130.708 203.038 129.303 205.048C127.898 207.057 127.227 209.488 127.401 211.934C127.401 212.075 127.401 212.225 127.456 212.375C126.244 212.165 125.011 212.101 123.784 212.186C121.712 212.331 119.689 212.883 117.83 213.81C115.972 214.737 114.314 216.021 112.952 217.588C111.59 219.156 110.55 220.977 109.892 222.947C109.233 224.917 108.97 226.997 109.115 229.069C109.256 231.806 110.146 234.453 111.687 236.719C113.229 238.986 115.362 240.786 117.856 241.924C120.085 242.955 122.496 243.531 124.95 243.619H200.86C208.513 243.76 216.624 236.028 216.064 227.626Z" fill="#92DCE5"/>
<path opacity="0.53" d="M200.86 243.595H124.958C122.504 243.507 120.093 242.931 117.864 241.9L186.436 192.678C189.53 195.98 191.551 200.141 192.234 204.613C192.916 209.086 192.228 213.661 190.259 217.735C192.346 215.72 194.965 214.342 197.808 213.763C200.652 213.184 203.601 213.428 206.31 214.467C209.019 215.505 211.376 217.295 213.104 219.626C214.831 221.957 215.858 224.732 216.064 227.626C216.624 236.028 208.513 243.76 200.86 243.595Z" fill="url(#paint14_linear_278_1864)"/>
<path d="M151.992 198.968C155.705 190.44 165.297 187.098 173.975 187.933C174.471 187.988 174.471 187.2 173.975 187.145C165.053 186.262 155.129 189.77 151.315 198.542C151.118 199.007 151.795 199.401 151.992 198.944V198.968Z" fill="white"/>
<path d="M129.821 211.618C129.78 209.98 130.137 208.358 130.861 206.889C132.753 203.066 136.82 202.278 140.737 202.719C141.242 202.774 141.242 201.994 140.737 201.931C136.796 201.49 132.643 202.27 130.491 205.935C129.487 207.666 128.985 209.642 129.041 211.641C129.041 212.146 129.829 212.146 129.829 211.641L129.821 211.618Z" fill="white"/>
<path d="M118.455 240.237C106.396 232.237 111.606 215.015 125.943 214.392C126.448 214.392 126.455 213.604 125.943 213.604C110.873 214.29 105.23 232.402 118.061 240.915C118.487 241.198 118.85 240.513 118.463 240.237H118.455Z" fill="white"/>
<path opacity="0.53" d="M188.651 232.654H179.138V243.602H154.814V232.654H145.293L166.976 217.923L188.651 232.654Z" fill="url(#paint15_linear_278_1864)"/>
<path d="M143.015 228.877L152.536 228.875L152.533 217.927L176.856 217.92L176.859 228.868L186.373 228.865L164.702 243.602L143.015 228.877Z" fill="white"/>
<path d="M283.879 135.078L191.086 148.706L185.002 107.247L183.441 96.6146L177.459 55.9286L270.236 42.2852L283.879 135.078Z" fill="white"/>
<path d="M274.192 130.199L198.29 141.352L192.978 105.206L187.13 65.4418L263.04 54.2891L264.616 65.0162L274.192 130.199Z" fill="#FFB961"/>
<path d="M274.161 130.199L198.259 141.352L192.978 105.206C195.902 98.3405 201.12 90.2301 209.388 89.8754C223.851 89.2291 223.52 109.958 235.327 107.405C246.306 105.04 250.303 71.4556 264.616 65.0161L274.161 130.199Z" fill="#C05C7E"/>
<path d="M229.668 84.2795C232.663 84.2795 235.091 81.8517 235.091 78.8568C235.091 75.8619 232.663 73.4341 229.668 73.4341C226.673 73.4341 224.245 75.8619 224.245 78.8568C224.245 81.8517 226.673 84.2795 229.668 84.2795Z" fill="#C05C7E"/>
<path d="M265.57 60.1137C265.57 60.1137 262.472 55.2585 259.682 57.3156C256.892 59.3728 258.358 63.2033 258.358 63.2033C258.358 63.2033 254.235 60.7048 251.729 63.2033C249.223 65.7019 251.437 71.0852 251.437 71.0852C251.437 71.0852 246.031 70.8802 246.432 73.4497C246.874 76.3187 266.744 71.3926 266.744 71.3926L265.57 60.1137Z" fill="white"/>
<path style="mix-blend-mode:multiply" opacity="0.59" d="M270.236 42.2852L191.094 148.713L283.879 135.07L270.236 42.2852Z" fill="url(#paint16_linear_278_1864)"/>
<path style="mix-blend-mode:multiply" opacity="0.22" d="M270.236 42.2852L268.494 44.6339H268.486L180.572 58.0015L186.255 96.6146L187.808 107.247L193.396 145.309L191.086 148.706L185.002 107.247L183.441 96.6146L177.459 55.9286L270.236 42.2852Z" fill="url(#paint17_linear_278_1864)"/>
<path style="mix-blend-mode:multiply" opacity="0.59" d="M211.106 101.927C211.104 103.336 210.544 104.686 209.548 105.683C208.553 106.681 207.203 107.243 205.794 107.247H185.002L183.425 96.6221H205.778C207.188 96.62 208.541 97.1774 209.54 98.172C210.539 99.1665 211.102 100.517 211.106 101.927Z" fill="url(#paint18_linear_278_1864)"/>
<path d="M205.4 94.2261H117.699C115.492 94.2261 113.703 96.0152 113.703 98.2222V100.863C113.703 103.07 115.492 104.859 117.699 104.859H205.4C207.607 104.859 209.396 103.07 209.396 100.863V98.2222C209.396 96.0152 207.607 94.2261 205.4 94.2261Z" fill="white"/>
<path d="M182.55 94.2261H117.699C115.492 94.2261 113.703 96.0152 113.703 98.2222V100.863C113.703 103.07 115.492 104.859 117.699 104.859H182.55C184.757 104.859 186.546 103.07 186.546 100.863V98.2222C186.546 96.0152 184.757 94.2261 182.55 94.2261Z" fill="#92DCE5"/>
<path opacity="0.53" d="M182.55 94.2261H117.699C115.492 94.2261 113.703 96.0152 113.703 98.2222V100.863C113.703 103.07 115.492 104.859 117.699 104.859H182.55C184.757 104.859 186.546 103.07 186.546 100.863V98.2222C186.546 96.0152 184.757 94.2261 182.55 94.2261Z" fill="url(#paint19_linear_278_1864)"/>
<path d="M61.5013 165.186C59.3181 169.577 53.0835 170.365 48.7958 171.011C43.9651 171.636 39.1011 171.971 34.2302 172.012C23.8971 172.296 12.0113 172.217 1.06349 172.012C-1.17495 157.691 -0.0084405 143.102 5.79258 129.947C7.22911 130.112 8.63685 130.47 9.97783 131.011C22.2892 135.921 20.2242 150.282 20.2242 150.282C20.2242 150.282 27.2627 139.515 35.1997 143.48C42.9081 147.334 39.7633 157.029 39.5741 157.604C39.9209 156.879 44.6579 156.028 45.4145 155.854C47.7595 155.237 50.178 154.942 52.6028 154.979C57.5919 155.161 64.4097 159.346 61.5013 165.186Z" fill="white"/>
<path d="M338.004 152.607C330.674 152.796 314.011 153.229 297.862 153.844C287.946 154.222 278.015 154.845 268.084 154.885C264.137 154.949 260.19 154.788 256.261 154.404C255.242 154.294 254.228 154.128 253.227 153.907C249.207 153.024 245.061 151.007 246.645 146.144C247.146 144.62 248.08 143.275 249.333 142.274C252.227 139.838 255.809 138.367 259.58 138.065C259.958 138.025 253.739 122.033 262.086 114.774C270.433 107.515 281.964 115.988 281.964 115.988C281.964 115.988 279.599 88.7718 300.951 87.5422C306.011 87.2506 309.621 89.0082 312.175 91.8615C319.781 100.342 318.118 118.51 317.826 121.269C318.141 119.133 320.364 108.027 332.983 107.657C337.294 107.531 340.794 109.146 342.126 111.432C342.889 125.288 341.499 139.178 338.004 152.607Z" fill="white"/>
<path d="M123.918 128.315C123.918 130.694 123.098 133.001 121.597 134.848C120.096 136.694 118.005 137.967 115.676 138.453C113.346 138.939 110.92 138.608 108.806 137.516C106.692 136.423 105.019 134.636 104.068 132.455C103.116 130.274 102.945 127.832 103.583 125.539C104.221 123.247 105.628 121.244 107.569 119.867C109.51 118.49 111.866 117.824 114.241 117.98C116.615 118.137 118.863 119.106 120.607 120.725C121.651 121.694 122.484 122.868 123.054 124.174C123.624 125.48 123.918 126.89 123.918 128.315Z" fill="#C05C7E"/>
<path style="mix-blend-mode:multiply" opacity="0.59" d="M123.918 128.315C123.914 130.387 123.289 132.409 122.126 134.123C120.962 135.836 119.312 137.162 117.388 137.93C115.464 138.697 113.354 138.871 111.331 138.429C109.307 137.986 107.462 136.948 106.034 135.448L120.607 120.725C121.653 121.694 122.486 122.868 123.056 124.174C123.626 125.48 123.919 126.89 123.918 128.315Z" fill="url(#paint20_linear_278_1864)"/>
<path d="M117.659 126.037H115.114V123.499C115.129 123.27 115.098 123.041 115.021 122.825C114.945 122.609 114.824 122.412 114.668 122.244C114.512 122.077 114.323 121.943 114.112 121.852C113.902 121.76 113.676 121.713 113.447 121.713C113.217 121.713 112.991 121.76 112.781 121.852C112.571 121.943 112.381 122.077 112.225 122.244C112.069 122.412 111.949 122.609 111.872 122.825C111.795 123.041 111.764 123.27 111.78 123.499V126.037H109.234C108.791 126.037 108.366 126.213 108.052 126.526C107.739 126.84 107.563 127.265 107.563 127.708C107.563 128.151 107.739 128.576 108.052 128.889C108.366 129.203 108.791 129.379 109.234 129.379H111.795V131.917C111.78 132.145 111.811 132.375 111.888 132.591C111.964 132.806 112.085 133.004 112.241 133.172C112.397 133.339 112.586 133.473 112.796 133.564C113.007 133.655 113.233 133.702 113.462 133.702C113.691 133.702 113.918 133.655 114.128 133.564C114.338 133.473 114.527 133.339 114.684 133.172C114.84 133.004 114.96 132.806 115.037 132.591C115.114 132.375 115.145 132.145 115.129 131.917V129.379H117.675C118.118 129.379 118.543 129.203 118.857 128.889C119.17 128.576 119.346 128.151 119.346 127.708C119.346 127.265 119.17 126.84 118.857 126.526C118.543 126.213 118.118 126.037 117.675 126.037H117.659Z" fill="white"/>
<path d="M165.754 82.9707C165.756 83.1815 165.695 83.388 165.579 83.564C165.463 83.74 165.297 83.8776 165.103 83.9594C164.909 84.0411 164.694 84.0633 164.488 84.0231C164.281 83.983 164.09 83.8823 163.941 83.7338C163.791 83.5853 163.689 83.3957 163.647 83.1891C163.606 82.9825 163.626 82.7681 163.706 82.5732C163.787 82.3784 163.923 82.2117 164.098 82.0944C164.273 81.9772 164.479 81.9146 164.69 81.9146C164.971 81.9145 165.241 82.0256 165.44 82.2234C165.639 82.4213 165.752 82.6899 165.754 82.9707Z" fill="white"/>
<defs>
<radialGradient id="paint0_radial_278_1864" cx="0" cy="0" r="1" gradientUnits="userSpaceOnUse" gradientTransform="translate(158.314 247.134) scale(162.76)">
<stop offset="0.04" stop-color="#5158BB"/>
<stop offset="1" stop-color="#4B596D" stop-opacity="0"/>
</radialGradient>
<linearGradient id="paint1_linear_278_1864" x1="233.167" y1="157.541" x2="193.49" y2="201.112" gradientUnits="userSpaceOnUse">
<stop offset="0.01" stop-color="#C05C7E" stop-opacity="0"/>
<stop offset="1" stop-color="#C05C7E" stop-opacity="0.97"/>
</linearGradient>
<linearGradient id="paint2_linear_278_1864" x1="122.593" y1="166.407" x2="76.9617" y2="150.387" gradientUnits="userSpaceOnUse">
<stop stop-color="#586BA4" stop-opacity="0"/>
<stop offset="1" stop-color="#586BA4"/>
</linearGradient>
<linearGradient id="paint3_linear_278_1864" x1="5177.83" y1="11860" x2="7851.26" y2="11860" gradientUnits="userSpaceOnUse">
<stop stop-color="#586BA4" stop-opacity="0"/>
<stop offset="1" stop-color="#586BA4"/>
</linearGradient>
<linearGradient id="paint4_linear_278_1864" x1="15301.9" y1="12581.1" x2="12150.6" y2="13167" gradientUnits="userSpaceOnUse">
<stop offset="0.01" stop-color="#C05C7E" stop-opacity="0"/>
<stop offset="1" stop-color="#C05C7E" stop-opacity="0.97"/>
</linearGradient>
<linearGradient id="paint5_linear_278_1864" x1="3817.44" y1="11919.9" x2="5762.08" y2="11919.9" gradientUnits="userSpaceOnUse">
<stop offset="0.01" stop-color="#C05C7E" stop-opacity="0"/>
<stop offset="1" stop-color="#C05C7E" stop-opacity="0.97"/>
</linearGradient>
<linearGradient id="paint6_linear_278_1864" x1="8770.52" y1="6939.21" x2="9857.14" y2="6939.21" gradientUnits="userSpaceOnUse">
<stop stop-color="#586BA4" stop-opacity="0"/>
<stop offset="1" stop-color="#586BA4"/>
</linearGradient>
<linearGradient id="paint7_linear_278_1864" x1="6130.97" y1="3466.77" x2="6550.46" y2="3466.77" gradientUnits="userSpaceOnUse">
<stop offset="0.01" stop-color="#C05C7E" stop-opacity="0"/>
<stop offset="1" stop-color="#C05C7E" stop-opacity="0.97"/>
</linearGradient>
<linearGradient id="paint8_linear_278_1864" x1="290.839" y1="34.8284" x2="266.019" y2="65.93" gradientUnits="userSpaceOnUse">
<stop stop-color="#F18170" stop-opacity="0"/>
<stop offset="1" stop-color="#F3826F"/>
</linearGradient>
<linearGradient id="paint9_linear_278_1864" x1="7510" y1="3675.64" x2="6778.23" y2="6449.4" gradientUnits="userSpaceOnUse">
<stop stop-color="#586BA4" stop-opacity="0"/>
<stop offset="1" stop-color="#586BA4"/>
</linearGradient>
<linearGradient id="paint10_linear_278_1864" x1="6270.45" y1="3427.2" x2="7162.78" y2="4201.01" gradientUnits="userSpaceOnUse">
<stop offset="0.01" stop-color="#C05C7E" stop-opacity="0"/>
<stop offset="1" stop-color="#C05C7E" stop-opacity="0.97"/>
</linearGradient>
<linearGradient id="paint11_linear_278_1864" x1="96.6068" y1="190.778" x2="110.668" y2="190.069" gradientUnits="userSpaceOnUse">
<stop offset="0.01" stop-color="#C05C7E" stop-opacity="0"/>
<stop offset="1" stop-color="#B9EFFF"/>
</linearGradient>
<linearGradient id="paint12_linear_278_1864" x1="149.21" y1="169.71" x2="228.32" y2="213.778" gradientUnits="userSpaceOnUse">
<stop stop-color="#4B596D" stop-opacity="0"/>
<stop offset="1" stop-color="#B9EFFF"/>
</linearGradient>
<linearGradient id="paint13_linear_278_1864" x1="9873.04" y1="7076.99" x2="11845.5" y2="7076.99" gradientUnits="userSpaceOnUse">
<stop offset="0.01" stop-color="#C05C7E" stop-opacity="0"/>
<stop offset="1" stop-color="#B9EFFF"/>
</linearGradient>
<linearGradient id="paint14_linear_278_1864" x1="144.237" y1="208.647" x2="185.853" y2="251.784" gradientUnits="userSpaceOnUse">
<stop stop-color="#4B596D" stop-opacity="0"/>
<stop offset="1" stop-color="#5158BB"/>
</linearGradient>
<linearGradient id="paint15_linear_278_1864" x1="9444.27" y1="8845.03" x2="10402.2" y2="10304.1" gradientUnits="userSpaceOnUse">
<stop stop-color="#4B596D" stop-opacity="0"/>
<stop offset="1" stop-color="#5158BB"/>
</linearGradient>
<linearGradient id="paint16_linear_278_1864" x1="21617" y1="13919.5" x2="40908.9" y2="23270.4" gradientUnits="userSpaceOnUse">
<stop offset="0.01" stop-color="#C05C7E" stop-opacity="0"/>
<stop offset="1" stop-color="#B9EFFF"/>
</linearGradient>
<linearGradient id="paint17_linear_278_1864" x1="15738" y1="10177.8" x2="35026.5" y2="19527.9" gradientUnits="userSpaceOnUse">
<stop stop-color="#4B596D" stop-opacity="0"/>
<stop offset="1" stop-color="#B9EFFF"/>
</linearGradient>
<linearGradient id="paint18_linear_278_1864" x1="7043.6" y1="2230.81" x2="7378.54" y2="1455.6" gradientUnits="userSpaceOnUse">
<stop offset="0.01" stop-color="#C05C7E" stop-opacity="0"/>
<stop offset="1" stop-color="#B9EFFF"/>
</linearGradient>
<linearGradient id="paint19_linear_278_1864" x1="19799.8" y1="1904.21" x2="16279.5" y2="5987.89" gradientUnits="userSpaceOnUse">
<stop stop-color="#4B596D" stop-opacity="0"/>
<stop offset="1" stop-color="#5158BB"/>
</linearGradient>
<linearGradient id="paint20_linear_278_1864" x1="2854.61" y1="4046.39" x2="3260.39" y2="4046.39" gradientUnits="userSpaceOnUse">
<stop offset="0.01" stop-color="#C05C7E" stop-opacity="0"/>
<stop offset="1" stop-color="#B9EFFF"/>
</linearGradient>
</defs>
</svg>
