<svg width="312" height="290" viewBox="0 0 312 290" fill="none" xmlns="http://www.w3.org/2000/svg">
<path d="M209.063 201.1L207.029 194.311L228.622 180.851L231.388 164.87L245.422 161.267L243.176 187.537L209.063 201.1Z" fill="#D18252"/>
<path d="M230.181 171.841L231.593 159.353L245.422 161.267L244.127 176.401L230.181 171.841Z" fill="#C2C2C2"/>
<path d="M204.315 202.612L198.461 204.541C198.286 204.6 198.13 204.703 198.007 204.841C197.649 205.258 196.946 206.149 197.473 206.303C198.161 206.493 204.527 204.527 204.527 204.527" fill="#D18252"/>
<path d="M204.819 195.458L203.641 196.986C203.439 197.253 203.191 197.483 202.91 197.665L198.066 200.303C198.066 200.303 196.932 201.516 197.627 201.874C198.322 202.232 203.934 200.413 203.934 200.413L197.18 202.642C197.036 202.685 196.906 202.768 196.807 202.883C196.427 203.314 195.505 204.432 196.134 204.607C196.917 204.827 204.183 202.591 204.183 202.591" fill="#D18252"/>
<path d="M199.112 206.661C199.358 206.285 199.686 205.971 200.071 205.74L204.066 204.717L203.62 200.238L204.82 195.458L207.937 194.187C207.937 194.187 212.217 196.547 209.188 202.89C208.978 203.328 208.648 203.698 208.237 203.957L204.724 206.149C204.65 206.185 204.571 206.209 204.49 206.222C203.685 206.383 199.544 207.552 199.229 207.465C199.046 207.428 198.995 206.909 199.112 206.661Z" fill="#D18252"/>
<path d="M203.927 197.271L204.146 195.809C204.212 195.137 203.605 194.925 203.071 194.523L201.22 193.5C201.165 193.471 201.119 193.428 201.085 193.376C201.051 193.324 201.031 193.265 201.026 193.203C201.021 193.142 201.031 193.08 201.056 193.023C201.081 192.967 201.12 192.917 201.168 192.879C201.494 192.574 201.902 192.368 202.342 192.288C202.782 192.208 203.236 192.256 203.649 192.426L208.383 194.151L203.927 197.271Z" fill="#D18252"/>
<path d="M295.068 251.389C297.959 254.992 303.256 262.723 304.141 264.141C304.873 265.266 296.956 270.571 296.561 270.14C294.366 267.729 288.373 261.108 286.778 259.391C284.093 256.468 280.924 252.938 277.902 249.248L288.673 241.444C290.618 244.875 292.753 248.196 295.068 251.389Z" fill="#D18252"/>
<path d="M294.959 268.445L287.912 285.135C287.751 285.517 287.723 285.942 287.832 286.342C287.941 286.742 288.181 287.094 288.513 287.342C288.846 287.589 289.252 287.719 289.667 287.71C290.081 287.701 290.481 287.553 290.802 287.291L310.778 271.076C312.242 269.79 301.793 261.145 301.793 261.145L301.734 262.658C301.704 263.495 301.501 264.317 301.138 265.072C300.774 265.827 300.257 266.499 299.621 267.045C298.984 267.591 298.241 267.999 297.439 268.244C296.636 268.488 295.792 268.564 294.959 268.467V268.445Z" fill="#15664C"/>
<path d="M287.25 287.254L288.581 288.895C288.866 289.247 289.382 289.301 289.734 289.016L311.663 271.275C312.015 270.991 312.069 270.475 311.784 270.124L310.453 268.483C310.168 268.132 309.652 268.078 309.301 268.362L287.371 286.103C287.02 286.388 286.965 286.903 287.25 287.254Z" fill="#C2C2C2"/>
<path d="M296.89 272.164C297.08 272.155 297.259 272.078 297.397 271.947C297.534 271.817 297.621 271.642 297.641 271.454C297.662 271.266 297.614 271.077 297.507 270.92C297.401 270.764 297.241 270.651 297.059 270.601L294.168 269.768C293.965 269.711 293.747 269.737 293.562 269.839C293.377 269.942 293.24 270.113 293.18 270.316C293.151 270.416 293.143 270.522 293.154 270.626C293.166 270.73 293.199 270.831 293.25 270.923C293.301 271.014 293.369 271.095 293.452 271.16C293.534 271.225 293.628 271.274 293.729 271.302L296.612 272.135C296.702 272.163 296.797 272.173 296.89 272.164Z" fill="#C2C2C2"/>
<path d="M295.8 275.022C295.968 275.015 296.129 274.956 296.26 274.852C296.392 274.748 296.487 274.606 296.532 274.444C296.588 274.241 296.562 274.023 296.46 273.839C296.357 273.654 296.186 273.517 295.983 273.458L293.1 272.625C292.999 272.596 292.893 272.587 292.789 272.599C292.685 272.611 292.584 272.643 292.492 272.694C292.4 272.745 292.32 272.813 292.254 272.896C292.189 272.978 292.141 273.072 292.112 273.173C292.082 273.273 292.072 273.378 292.083 273.483C292.094 273.587 292.126 273.688 292.176 273.779C292.226 273.871 292.295 273.952 292.377 274.017C292.459 274.083 292.553 274.131 292.654 274.159L295.537 274.992C295.622 275.018 295.711 275.028 295.8 275.022Z" fill="#C2C2C2"/>
<path d="M294.571 278.032C294.76 278.021 294.938 277.943 295.075 277.812C295.211 277.682 295.297 277.507 295.316 277.319C295.336 277.131 295.287 276.942 295.18 276.786C295.073 276.631 294.914 276.518 294.732 276.469L291.834 275.636C291.733 275.607 291.628 275.598 291.523 275.61C291.419 275.621 291.318 275.654 291.226 275.705C291.134 275.756 291.054 275.824 290.988 275.906C290.923 275.989 290.875 276.083 290.846 276.184C290.816 276.284 290.806 276.389 290.817 276.493C290.828 276.597 290.86 276.698 290.91 276.79C290.961 276.882 291.029 276.963 291.111 277.028C291.193 277.093 291.287 277.142 291.388 277.17L294.271 278.003C294.368 278.034 294.47 278.044 294.571 278.032Z" fill="#C2C2C2"/>
<path d="M254.612 203.438L272.4 187.559C272.4 187.559 284.107 202.758 280.998 215.736C278.898 224.505 288.315 238.755 295.449 244.316L276.388 258.2C272.673 253.551 269.699 248.358 267.571 242.803C262.99 230.666 254.612 203.438 254.612 203.438Z" fill="#522169"/>
<path d="M254.393 261.671C254.393 266.377 253.712 275.92 253.515 277.623C253.361 278.96 243.681 278.186 243.644 277.623C243.424 274.298 242.861 265.2 242.685 262.825C242.378 258.799 242.144 253.969 242.056 249.087L255.629 249.701C254.998 253.665 254.585 257.661 254.393 261.671Z" fill="#D18252"/>
<path d="M243.439 275.219L227.173 284.068C226.803 284.271 226.511 284.592 226.344 284.98C226.177 285.368 226.145 285.801 226.253 286.209C226.36 286.617 226.602 286.978 226.938 287.233C227.275 287.489 227.687 287.625 228.11 287.619L254.407 287.356C256.398 287.261 253.566 273.713 253.566 273.713L252.556 274.883C251.998 275.532 251.312 276.059 250.54 276.431C249.768 276.802 248.927 277.01 248.071 277.042C247.215 277.073 246.361 276.928 245.564 276.614C244.767 276.3 244.044 275.825 243.439 275.219Z" fill="#15664C"/>
<path d="M225.302 285.319L225.319 287.511C225.323 287.963 225.693 288.326 226.145 288.323L254.996 288.096C255.448 288.093 255.812 287.724 255.809 287.272L255.791 285.079C255.788 284.627 255.418 284.264 254.966 284.267L226.115 284.494C225.663 284.497 225.299 284.867 225.302 285.319Z" fill="#C2C2C2"/>
<path d="M243.073 279.56C243.242 279.559 243.406 279.505 243.541 279.406C243.63 279.346 243.705 279.268 243.763 279.178C243.821 279.088 243.861 278.987 243.879 278.881C243.897 278.776 243.894 278.668 243.87 278.563C243.846 278.459 243.802 278.36 243.739 278.273L241.968 275.774C241.842 275.598 241.651 275.479 241.437 275.444C241.223 275.408 241.004 275.459 240.827 275.584C240.74 275.646 240.666 275.725 240.609 275.815C240.552 275.905 240.514 276.006 240.496 276.111C240.479 276.216 240.482 276.324 240.506 276.428C240.53 276.532 240.574 276.63 240.637 276.717L242.407 279.216C242.483 279.323 242.582 279.409 242.698 279.469C242.814 279.529 242.943 279.56 243.073 279.56Z" fill="#C2C2C2"/>
<path d="M240.381 281.145C240.549 281.145 240.713 281.091 240.849 280.992C240.936 280.93 241.011 280.852 241.069 280.762C241.126 280.672 241.165 280.571 241.183 280.466C241.202 280.361 241.199 280.253 241.175 280.149C241.152 280.045 241.108 279.946 241.046 279.859L239.276 277.36C239.149 277.184 238.958 277.065 238.744 277.029C238.53 276.994 238.311 277.044 238.134 277.17C238.047 277.232 237.973 277.31 237.916 277.4C237.86 277.491 237.821 277.591 237.804 277.697C237.786 277.802 237.789 277.91 237.813 278.014C237.838 278.117 237.882 278.216 237.944 278.302L239.715 280.802C239.79 280.908 239.89 280.994 240.006 281.054C240.122 281.113 240.25 281.145 240.381 281.145Z" fill="#C2C2C2"/>
<path d="M237.483 282.767C237.631 282.765 237.777 282.722 237.903 282.643C238.029 282.565 238.131 282.454 238.199 282.322C238.266 282.189 238.297 282.041 238.287 281.893C238.277 281.745 238.226 281.603 238.141 281.481L236.371 278.982C236.238 278.827 236.052 278.727 235.849 278.702C235.646 278.676 235.441 278.728 235.274 278.846C235.107 278.964 234.99 279.14 234.947 279.34C234.904 279.539 234.936 279.748 235.039 279.925L236.81 282.424C236.886 282.531 236.987 282.618 237.104 282.678C237.222 282.737 237.351 282.768 237.483 282.767Z" fill="#C2C2C2"/>
<path d="M249.234 197.943L272.356 194.202C272.356 194.202 278.356 215.05 267.834 223.271C260.715 228.839 257.415 250.345 259.529 259.15L235.954 258.149C235.844 251.653 239.268 236.818 240.637 232.573C244.646 220.238 249.234 197.943 249.234 197.943Z" fill="#522169"/>
<path d="M261.439 235.035C261.088 232.843 260.941 221.064 261.19 222.065C261.841 224.688 262.507 227.647 263.159 230.169C262.566 231.981 261.834 233.187 261.439 235.035Z" fill="#3D1042"/>
<path d="M235.529 154.062L253.968 149.356C262.127 147.894 265.968 151.855 267.139 156.21L272.598 176.927L282.11 197.388L244.61 210.256L233.224 173.529C230.751 168.633 230.59 163.057 231.929 157.745C232.121 156.9 232.53 156.119 233.115 155.48C233.761 154.778 234.602 154.285 235.529 154.062Z" fill="#C2C2C2"/>
<path d="M243.9 141.493L247.8 150.679C248.327 151.899 246.871 156.327 244.024 158.556C243.634 158.856 243.177 159.059 242.692 159.148C242.207 159.236 241.708 159.208 241.237 159.065C240.765 158.922 240.334 158.669 239.98 158.326C239.627 157.983 239.36 157.561 239.202 157.094L236.107 148.114L243.9 141.493Z" fill="#D18252"/>
<path d="M237.439 152.001L236.049 147.953L241.171 141.376L241.712 143.006C241.712 143.006 242.078 146.009 237.439 152.001Z" fill="#755237"/>
<path d="M245.107 144.336L234.483 150.087C233.846 150.455 233.133 150.671 232.398 150.719C231.664 150.767 230.928 150.644 230.249 150.361C229.57 150.078 228.966 149.642 228.483 149.088C228 148.533 227.652 147.875 227.466 147.164L225.088 136.356L238.946 128.727L245.107 144.336Z" fill="#D18252"/>
<path d="M222.446 134.427C225.893 141.435 235.229 131.614 236.349 134.778C239.217 142.867 243.271 139.696 243.271 139.696C243.271 139.696 245.693 125.724 238.332 127.609C230.971 129.494 217.354 124.05 222.446 134.427Z" fill="#303030"/>
<path d="M244.639 136.21C244.946 136.765 245.081 137.397 245.028 138.029C244.975 138.66 244.735 139.261 244.339 139.756C243.943 140.251 243.409 140.618 242.805 140.81C242.2 141.001 241.552 141.01 240.943 140.834C240.334 140.657 239.791 140.305 239.382 139.82C238.974 139.335 238.719 138.74 238.649 138.111C238.579 137.481 238.698 136.845 238.991 136.283C239.284 135.721 239.737 135.258 240.293 134.953C241.036 134.546 241.911 134.449 242.726 134.685C243.541 134.92 244.229 135.469 244.639 136.21Z" fill="#D18252"/>
<path d="M226.127 138.41L224.92 143.145C224.744 143.876 225.432 144.343 226.207 144.058L227.81 143.481L226.127 138.41Z" fill="#D18252"/>
<path d="M241.632 138.855L241.427 138.797L242.049 136.656L242.254 136.714L241.632 138.855Z" fill="#402B6E"/>
<path d="M242.883 138.169L240.739 137.547L240.798 137.343L242.941 137.964L242.883 138.169Z" fill="#402B6E"/>
<path d="M229.12 139.988C229.166 140.068 229.188 140.161 229.182 140.254C229.176 140.347 229.142 140.435 229.085 140.509C229.028 140.583 228.951 140.638 228.862 140.667C228.774 140.696 228.679 140.698 228.589 140.673C228.499 140.648 228.419 140.597 228.358 140.527C228.298 140.456 228.26 140.369 228.249 140.276C228.239 140.184 228.256 140.09 228.299 140.008C228.342 139.925 228.408 139.857 228.49 139.813C228.597 139.754 228.723 139.74 228.841 139.773C228.958 139.805 229.058 139.883 229.12 139.988Z" fill="#522169"/>
<path d="M230.305 138.811C230.249 138.842 230.185 138.855 230.122 138.848L228.161 138.651C228.077 138.641 228 138.6 227.946 138.534C227.893 138.468 227.867 138.384 227.876 138.3C227.879 138.258 227.891 138.217 227.911 138.18C227.931 138.143 227.958 138.11 227.991 138.083C228.023 138.056 228.061 138.037 228.102 138.025C228.142 138.013 228.185 138.01 228.227 138.015L230.188 138.212C230.255 138.221 230.318 138.25 230.367 138.296C230.417 138.343 230.45 138.403 230.463 138.47C230.476 138.536 230.468 138.605 230.439 138.666C230.411 138.727 230.364 138.778 230.305 138.811Z" fill="#522169"/>
<path d="M228.359 144.694C229.631 144.071 230.717 143.123 231.505 141.946C231.505 141.946 232.566 146.28 228.359 144.694Z" fill="white"/>
<path d="M232.698 204.293L230.663 197.497L252.256 184.044L249.871 168.063L263.905 164.453L266.81 190.723L232.698 204.293Z" fill="#D18252"/>
<path d="M227.949 205.806L222.095 207.728C221.92 207.786 221.764 207.889 221.641 208.027C221.283 208.444 220.581 209.335 221.107 209.489C221.795 209.679 228.161 207.72 228.161 207.72" fill="#D18252"/>
<path d="M228.454 198.652L227.283 200.172C227.08 200.439 226.832 200.668 226.551 200.851L221.707 203.489C221.707 203.489 220.573 204.702 221.276 205.068C221.978 205.433 227.576 203.606 227.576 203.606L220.822 205.835C220.68 205.879 220.553 205.963 220.456 206.076C220.068 206.507 219.146 207.633 219.776 207.801C220.559 208.02 227.824 205.784 227.824 205.784" fill="#D18252"/>
<path d="M222.746 209.847C222.992 209.471 223.32 209.157 223.705 208.926L227.7 207.903L227.254 203.424L228.454 198.652L231.571 197.373C231.571 197.373 235.851 199.733 232.822 206.083C232.609 206.518 232.28 206.885 231.871 207.143L228.359 209.335C228.283 209.368 228.205 209.393 228.124 209.408C227.32 209.562 223.178 210.731 222.863 210.651C222.688 210.614 222.629 210.103 222.746 209.847Z" fill="#D18252"/>
<path d="M227.561 200.479L227.781 199.017C227.846 198.352 227.246 198.133 226.705 197.731L224.854 196.716C224.799 196.685 224.753 196.642 224.72 196.589C224.686 196.537 224.666 196.477 224.661 196.415C224.655 196.353 224.666 196.291 224.691 196.233C224.715 196.176 224.754 196.126 224.802 196.087C225.129 195.782 225.536 195.576 225.976 195.496C226.416 195.416 226.87 195.464 227.283 195.634L232.017 197.359L227.561 200.479Z" fill="#D18252"/>
<path d="M213.541 106.118C218.272 105.868 222.895 104.618 227.106 102.451C231.317 100.284 235.02 97.2492 237.97 93.5474C240.919 89.8455 243.049 85.5607 244.218 80.9761C245.386 76.3915 245.568 71.6114 244.75 66.9516C243.931 62.2918 242.133 57.8584 239.472 53.9443C236.811 50.0302 233.349 46.7245 229.314 44.2456C225.28 41.7666 220.764 40.171 216.066 39.5639C211.368 38.9569 206.595 39.3523 202.061 40.724C199.259 29.1562 192.658 18.8586 183.313 11.4733C173.968 4.08793 162.416 0.0401437 150.498 -0.0246017C138.581 -0.0893471 126.986 3.83267 117.561 11.116C108.135 18.3994 101.423 28.6247 98.4951 40.1614C94.0075 39.1403 89.3572 39.0544 84.8348 39.909C80.3124 40.7637 76.015 42.5405 72.2112 45.1285C68.4074 47.7165 65.1788 51.0601 62.7272 54.9503C60.2756 58.8406 58.6537 63.194 57.9627 67.7384C57.2717 72.2829 57.5265 76.9209 58.7112 81.3626C59.8959 85.8043 61.9851 89.9543 64.8481 93.5533C67.7112 97.1524 71.2866 100.123 75.3511 102.28C79.4156 104.437 83.8818 105.733 88.4707 106.089L213.541 106.118Z" fill="#7AADFF"/>
<path d="M169.39 48.9301L151.961 31.5384C151.892 31.4654 151.81 31.4072 151.718 31.3675C151.626 31.3277 151.527 31.3071 151.427 31.3071C151.327 31.3071 151.228 31.3277 151.136 31.3675C151.044 31.4072 150.961 31.4654 150.893 31.5384L133.463 48.9301C133.167 49.2305 132.941 49.5929 132.802 49.9912C132.662 50.3894 132.613 50.8136 132.658 51.233C132.703 51.6525 132.84 52.0568 133.061 52.4168C133.281 52.7767 133.578 53.0833 133.932 53.3145C134.499 53.6712 135.173 53.8223 135.839 53.7425C136.505 53.6626 137.123 53.3568 137.59 52.8761L148.61 41.8638V76.3767C148.605 77.0385 148.826 77.6821 149.235 78.2025C149.644 78.7228 150.219 79.089 150.863 79.2412C151.279 79.3306 151.71 79.3259 152.124 79.2275C152.538 79.1291 152.925 78.9395 153.256 78.6726C153.587 78.4057 153.854 78.0682 154.038 77.6849C154.221 77.3016 154.317 76.8821 154.317 76.4571V41.9004L165.395 52.9711C165.93 53.5043 166.655 53.8038 167.411 53.8038C168.167 53.8038 168.892 53.5043 169.427 52.9711C169.693 52.7068 169.903 52.3925 170.046 52.0462C170.19 51.7 170.263 51.3288 170.261 50.9542C170.26 50.5756 170.183 50.2009 170.033 49.853C169.884 49.5051 169.665 49.1911 169.39 48.9301Z" fill="white"/>
<path d="M186.059 209.299H94.3171L114.98 199.835H206.722L186.059 209.299Z" fill="#6B98E0"/>
<path d="M201.476 172.925L115.897 165.928L109.207 247.535L194.787 254.531L201.476 172.925Z" fill="white"/>
<path d="M196.081 177.381L120.813 171.228L114.936 242.922L190.204 249.075L196.081 177.381Z" fill="#EF6F5E"/>
<path d="M190.112 249.051L148.339 245.653L171.637 217.797L190.112 249.051Z" fill="#15664C"/>
<path d="M163.998 246.925L114.9 242.935L142.734 204.578L163.998 246.925Z" fill="#15664C"/>
<path d="M162.819 207.827C167.71 207.089 171.076 202.532 170.337 197.647C169.598 192.763 165.034 189.401 160.144 190.139C155.253 190.877 151.887 195.435 152.626 200.319C153.365 205.203 157.928 208.565 162.819 207.827Z" fill="#15664C"/>
<path d="M183.428 173.079L97.9293 181L105.503 262.529L191.001 254.608L183.428 173.079Z" fill="white"/>
<path d="M179.316 179.815L103.796 186.603L110.279 258.537L185.798 251.749L179.316 179.815Z" fill="#522169"/>
<path d="M185.466 249.994L143.737 253.881L161.846 222.416L185.466 249.994Z" fill="#15664C"/>
<path d="M159.38 252.427L110.334 257.002L131.093 214.399L159.38 252.427Z" fill="#15664C"/>
<path d="M155.912 210.804C158.744 206.754 157.753 201.178 153.697 198.35C149.642 195.521 144.059 196.512 141.227 200.562C138.394 204.611 139.386 210.187 143.441 213.016C147.496 215.844 153.08 214.854 155.912 210.804Z" fill="#15664C"/>
<path d="M200.562 187.397L115.034 179.804L107.774 261.362L193.303 268.955L200.562 187.397Z" fill="white"/>
<path d="M195.136 191.817L119.913 185.139L113.535 256.79L188.758 263.468L195.136 191.817Z" fill="#15664C"/>
<path d="M188.685 263.425L146.934 259.742L170.422 232.047L188.685 263.425Z" fill="#FF7EE3"/>
<path d="M162.585 261.123L113.517 256.797L141.615 218.63L162.585 261.123Z" fill="#FF7EE3"/>
<path d="M168.946 215.848C170.411 211.13 167.769 206.119 163.044 204.655C158.32 203.192 153.302 205.831 151.837 210.549C150.372 215.267 153.014 220.278 157.739 221.741C162.463 223.204 167.481 220.566 168.946 215.848Z" fill="#FF7EE3"/>
<path d="M186.059 209.299H94.3171V283.053H186.059V209.299Z" fill="#7AADFF"/>
<path d="M206.722 273.596L186.059 283.052V209.299L206.722 199.835V273.596Z" fill="#7AADFF"/>
<path d="M206.722 228.817L186.059 238.272V209.299L206.722 199.835V228.817Z" fill="#7AADFF"/>
<path d="M206.722 227.786L186.059 237.242V209.299L206.722 199.835V227.786Z" fill="#6691D6"/>
<path d="M227.385 216.175L206.722 225.638L186.059 209.299L206.722 199.835L227.385 216.175Z" fill="#7AADFF"/>
<path d="M186.059 209.299H94.3171V237.25H186.059V209.299Z" fill="#6691D6"/>
<path d="M175.727 232.514H83.6049L94.317 209.299H186.059L175.727 232.514Z" fill="#7AADFF"/>
<path d="M13.6829 251.806C11.3634 255.167 7.82927 261.686 7.17073 262.994C6.62195 264.031 13.2366 268.84 13.5585 268.46C15.3512 266.187 20.2098 259.961 21.5122 258.339C23.7073 255.613 26.239 252.274 28.6976 248.839L18.6951 242.635C17.196 245.783 15.5227 248.844 13.6829 251.806Z" fill="#FFB781"/>
<path d="M14.8683 266.859L22.1854 281.145C22.3533 281.471 22.4067 281.844 22.337 282.204C22.2673 282.565 22.0785 282.891 21.8009 283.131C21.5233 283.371 21.1731 283.511 20.8063 283.529C20.4394 283.546 20.0773 283.44 19.778 283.228L1.06828 270.169C-0.307327 269.132 8.38536 260.823 8.38536 260.823L8.5317 262.16C8.61356 262.898 8.84698 263.61 9.21733 264.253C9.58767 264.895 10.087 265.455 10.6839 265.896C11.2809 266.337 11.9626 266.65 12.6864 266.816C13.4102 266.982 14.1605 266.997 14.8902 266.859H14.8683Z" fill="#522169"/>
<path d="M1.11767 267.958L0.155509 269.337C-0.103252 269.708 -0.0119915 270.218 0.359348 270.476L20.7045 284.635C21.0759 284.893 21.5867 284.802 21.8454 284.431L22.8076 283.052C23.0663 282.681 22.9751 282.171 22.6037 281.913L2.25856 267.754C1.88722 267.496 1.37643 267.587 1.11767 267.958Z" fill="#FF8585"/>
<path d="M13.3976 270.264C13.2453 270.242 13.1039 270.173 12.9935 270.066C12.883 269.959 12.8092 269.82 12.7825 269.668C12.7557 269.517 12.7774 269.361 12.8445 269.223C12.9116 269.085 13.0206 268.971 13.1561 268.898L15.6512 267.977C15.8133 267.96 15.9764 267.997 16.1148 268.083C16.2532 268.169 16.359 268.299 16.4153 268.451C16.4716 268.604 16.4752 268.771 16.4256 268.926C16.376 269.081 16.276 269.215 16.1415 269.307L13.6463 270.221C13.5666 270.25 13.4824 270.264 13.3976 270.264Z" fill="#FF8585"/>
<path d="M14.5171 272.72C14.3743 272.716 14.2358 272.67 14.1188 272.588C14.0018 272.506 13.9113 272.392 13.8585 272.259C13.7981 272.083 13.8076 271.89 13.8851 271.72C13.9627 271.55 14.1024 271.416 14.2756 271.346L16.7707 270.433C16.8625 270.367 16.9682 270.323 17.0796 270.305C17.191 270.287 17.305 270.295 17.4129 270.328C17.5207 270.362 17.6193 270.42 17.7011 270.497C17.7828 270.575 17.8455 270.67 17.8842 270.776C17.9228 270.882 17.9364 270.996 17.9239 271.108C17.9114 271.22 17.8732 271.327 17.8121 271.422C17.7511 271.517 17.6689 271.596 17.572 271.654C17.4751 271.712 17.3662 271.746 17.2536 271.755L14.7658 272.676C14.6861 272.705 14.6019 272.72 14.5171 272.72Z" fill="#FF8585"/>
<path d="M15.8268 275.299C15.6828 275.297 15.5427 275.252 15.4243 275.17C15.3058 275.088 15.2142 274.973 15.161 274.839C15.1005 274.662 15.11 274.469 15.1876 274.299C15.2651 274.13 15.4048 273.996 15.578 273.926L18.0731 273.012C18.2331 272.998 18.3934 273.037 18.5292 273.122C18.665 273.208 18.7688 273.336 18.8246 273.486C18.8803 273.637 18.885 273.801 18.8378 273.955C18.7906 274.108 18.6941 274.242 18.5634 274.335L16.0683 275.256C15.9908 275.284 15.9092 275.298 15.8268 275.299Z" fill="#FF8585"/>
<path d="M52.1927 196.606L37.5585 182.049C37.5585 182.049 22.7415 198.053 26.7659 210.767C29.4878 219.383 21.1464 234.253 14.4146 240.311L34.4268 252.807C37.8005 247.905 40.3946 242.512 42.1171 236.818C45.7976 224.359 52.1927 196.606 52.1927 196.606Z" fill="#FF8585"/>
<path d="M53.0927 260.553C53.0927 264.638 53.978 272.143 54.1463 273.619C54.278 274.781 62.378 274.876 62.4146 274.349C62.6049 271.47 63.0878 263.586 63.2415 261.518C63.5049 258.032 63.7098 253.845 63.7829 249.606L52.0244 250.14C52.5687 253.589 52.9253 257.065 53.0927 260.553Z" fill="#FFB781"/>
<path d="M62.5829 272.303L76.7122 279.969C77.0332 280.145 77.2859 280.424 77.4303 280.761C77.5747 281.097 77.6024 281.472 77.5092 281.826C77.4159 282.181 77.207 282.493 76.9155 282.716C76.624 282.938 76.2666 283.056 75.9 283.052L53.1 282.826C51.3732 282.745 53.8317 270.995 53.8317 270.995L54.7025 272.011C55.1861 272.574 55.7812 273.03 56.4501 273.353C57.1191 273.675 57.8475 273.855 58.5897 273.883C59.3318 273.91 60.0716 273.784 60.7626 273.512C61.4536 273.24 62.0808 272.829 62.6049 272.303H62.5829Z" fill="#522169"/>
<path d="M51.8673 280.999L51.8541 282.679C51.8505 283.131 52.2145 283.5 52.6671 283.504L77.464 283.698C77.9165 283.702 78.2863 283.339 78.2899 282.887L78.3031 281.206C78.3066 280.754 77.9426 280.385 77.49 280.381L52.6932 280.187C52.2406 280.183 51.8709 280.547 51.8673 280.999Z" fill="#FF8585"/>
<path d="M62.9049 276.067C62.7779 276.059 62.655 276.019 62.5483 275.95C62.4416 275.881 62.3547 275.785 62.2964 275.672C62.238 275.56 62.2102 275.433 62.2155 275.307C62.2208 275.18 62.2592 275.056 62.3268 274.949L63.8634 272.756C63.9032 272.652 63.9663 272.559 64.048 272.483C64.1296 272.406 64.2276 272.35 64.3344 272.318C64.4412 272.285 64.5541 272.278 64.6643 272.296C64.7745 272.313 64.8791 272.356 64.9702 272.421C65.0613 272.485 65.1364 272.57 65.1898 272.668C65.2431 272.766 65.2734 272.874 65.2781 272.986C65.2829 273.097 65.262 273.208 65.2172 273.31C65.1724 273.412 65.1048 273.503 65.0195 273.575L63.4829 275.767C63.4163 275.858 63.3294 275.933 63.2291 275.985C63.1288 276.037 63.0178 276.065 62.9049 276.067Z" fill="#FF8585"/>
<path d="M65.239 277.44C65.112 277.433 64.9891 277.393 64.8824 277.324C64.7757 277.255 64.6889 277.159 64.6306 277.046C64.5722 276.933 64.5443 276.807 64.5497 276.68C64.555 276.553 64.5934 276.43 64.661 276.322L66.1976 274.13C66.2374 274.026 66.3005 273.932 66.3821 273.856C66.4638 273.78 66.5617 273.724 66.6686 273.691C66.7754 273.659 66.8882 273.651 66.9984 273.669C67.1086 273.687 67.2133 273.73 67.3044 273.794C67.3955 273.859 67.4706 273.943 67.5239 274.041C67.5773 274.139 67.6075 274.248 67.6123 274.359C67.617 274.471 67.5962 274.582 67.5514 274.684C67.5066 274.786 67.4389 274.876 67.3537 274.948L65.8171 277.141C65.7504 277.232 65.6636 277.306 65.5633 277.358C65.463 277.41 65.352 277.438 65.239 277.44Z" fill="#FF8585"/>
<path d="M67.7561 278.851C67.6291 278.844 67.5062 278.803 67.3995 278.734C67.2928 278.665 67.206 278.569 67.1476 278.456C67.0893 278.344 67.0614 278.217 67.0667 278.091C67.072 277.964 67.1104 277.84 67.178 277.733L68.7146 275.54C68.8382 275.438 68.9922 275.378 69.153 275.372C69.3137 275.365 69.4721 275.412 69.6037 275.504C69.7353 275.596 69.8328 275.729 69.8811 275.883C69.9293 276.036 69.9257 276.201 69.8707 276.352L68.3341 278.544C68.2683 278.636 68.1817 278.712 68.0814 278.765C67.9811 278.819 67.8697 278.848 67.7561 278.851Z" fill="#FF8585"/>
<path d="M53.5976 193.281L33.2854 189.54C33.2854 189.54 30.1317 211.096 40.6463 219.317C47.7732 224.886 48.2341 245.682 46.1122 254.488L69.6951 253.487C69.8049 246.99 66.3805 232.156 65.0049 227.911C60.9951 215.576 53.5976 193.281 53.5976 193.281Z" fill="#FF8585"/>
<path d="M88.0902 134.178L81.8488 130.605L64.2512 148.362L60.9366 148.998L64.1927 160.865L70.222 159.871L88.0902 134.178Z" fill="#FFB781"/>
<path d="M37.1195 153.529L44.7439 164.066L64.1927 160.865L60.9366 148.998L37.1195 153.529Z" fill="#15664C"/>
<path d="M43.7195 152.382L31.4781 154.369C30.3401 154.544 29.2351 154.889 28.2 155.392C22.6463 158.162 22.2585 165.623 23.1366 169.225L28.2585 189.342L26.2976 199.836L32.0781 201.655C36.303 202.988 40.7409 203.516 45.161 203.212C49.5512 202.89 51.7463 201.816 55.6024 199.471L53.2976 180.749C58.4195 170.665 51.5195 157.365 48.1756 153.711C47.6237 153.1 46.9193 152.646 46.1341 152.396C45.3465 152.166 44.5099 152.161 43.7195 152.382Z" fill="#15664C"/>
<path d="M32.8097 143.079L32.539 154.157C32.6561 155.356 35.7512 158.227 38.9707 158.754C39.4112 158.822 39.8616 158.784 40.2846 158.644C40.7076 158.504 41.091 158.265 41.4029 157.947C41.7148 157.629 41.9463 157.241 42.0782 156.816C42.21 156.391 42.2384 155.94 42.161 155.502L40.6975 147.04L32.8097 143.079Z" fill="#FFB781"/>
<path d="M41.8171 153.572L41.1512 149.772L34.2293 146.806L34.5146 148.333C34.5146 148.333 35.539 150.847 41.8171 153.572Z" fill="#E69361"/>
<path d="M34.8439 152.323L45.3585 148.559C45.9891 148.346 46.562 147.991 47.0323 147.52C47.5027 147.05 47.858 146.477 48.0704 145.847C48.2829 145.217 48.3468 144.546 48.2571 143.887C48.1675 143.228 47.9267 142.599 47.5537 142.049L43.1634 133.638L30.6219 139.221L34.8439 152.323Z" fill="#FFB781"/>
<path d="M43.2146 133.638C43.7634 134.011 37.039 146.791 34.2293 146.791L32.6927 147.58C32.6927 147.58 23.7 145.067 27.0512 135.816C28.9756 130.503 38.6634 130.51 43.2146 133.638Z" fill="#303030"/>
<path d="M32.8829 148.311C33.3514 148.609 33.8977 148.762 34.453 148.75C35.0083 148.738 35.5476 148.562 36.0028 148.244C36.458 147.927 36.8086 147.481 37.0104 146.964C37.2122 146.448 37.2562 145.883 37.1367 145.341C37.0171 144.799 36.7396 144.305 36.339 143.921C35.9384 143.537 35.4327 143.28 34.8859 143.182C34.3391 143.085 33.7757 143.152 33.2668 143.374C32.758 143.596 32.3265 143.964 32.0268 144.431C31.8265 144.742 31.6897 145.089 31.6243 145.452C31.5589 145.816 31.5662 146.188 31.6458 146.549C31.7254 146.91 31.8757 147.251 32.088 147.554C32.3003 147.856 32.5705 148.114 32.8829 148.311Z" fill="#FFB781"/>
<path d="M35.7 146.258L34.0463 145.483L34.1341 145.322L35.7878 146.097L35.7 146.258Z" fill="#451A5E"/>
<path d="M34.5732 146.594L34.4049 146.514L35.261 144.986L35.4293 145.074L34.5732 146.594Z" fill="#451A5E"/>
<path d="M43.2659 138.556C43.2839 138.608 43.3121 138.656 43.3488 138.697C43.3855 138.738 43.4299 138.771 43.4796 138.795C43.5292 138.819 43.5831 138.832 43.6381 138.835C43.6931 138.838 43.7481 138.83 43.8 138.811C43.8526 138.794 43.9012 138.767 43.9429 138.73C43.9845 138.694 44.0183 138.649 44.0422 138.599C44.0662 138.55 44.0797 138.495 44.0821 138.44C44.0845 138.385 44.0757 138.33 44.0561 138.278C44.0381 138.226 44.0099 138.178 43.9732 138.137C43.9365 138.096 43.8921 138.063 43.8424 138.039C43.7927 138.015 43.7388 138.001 43.6839 137.999C43.6289 137.996 43.5738 138.004 43.522 138.022C43.4181 138.06 43.3331 138.137 43.2853 138.237C43.2375 138.337 43.2305 138.451 43.2659 138.556Z" fill="#451A5E"/>
<path d="M45.0951 142.735C44.4745 142.768 43.8561 142.637 43.3024 142.355C43.2902 142.352 43.279 142.345 43.2696 142.336C43.2601 142.328 43.2527 142.317 43.2478 142.305C43.2429 142.293 43.2407 142.281 43.2413 142.268C43.2419 142.255 43.2453 142.243 43.2512 142.231C43.2624 142.207 43.2823 142.189 43.3068 142.179C43.3313 142.17 43.3586 142.17 43.3829 142.18C45.6219 143.218 46.7268 141.764 46.778 141.698C46.7965 141.682 46.8198 141.674 46.8439 141.674C46.868 141.674 46.8913 141.682 46.9097 141.698C46.9272 141.717 46.9369 141.741 46.9369 141.767C46.9369 141.793 46.9272 141.818 46.9097 141.837C46.6824 142.1 46.4048 142.314 46.0932 142.469C45.7816 142.623 45.4423 142.714 45.0951 142.735Z" fill="#451A5E"/>
<path d="M44.5171 136.327L46.8439 138.044C46.9937 138.15 47.0986 138.307 47.1378 138.485C47.1771 138.664 47.148 138.851 47.0561 139.009L46.4707 140.09L44.5171 136.327Z" fill="#FFB781"/>
<path d="M76.1268 168.414L71.4366 164.066L51.9659 176.145L46.7561 172.192L38.261 182.086L51.5927 190.548L76.1268 168.414Z" fill="#FFB781"/>
<path d="M44.3707 170.387L24.0293 161.267L25.3463 168.282C26.4659 173.587 27.9439 175.714 32.7366 178.571L38.261 182.086L46.7561 172.192L44.3707 170.387Z" fill="#15664C"/>
<path d="M184.177 130.231L109.815 87.355L68.8211 158.265L143.183 201.141L184.177 130.231Z" fill="white"/>
<path d="M87.0805 128.201L88.0976 130.649C88.1874 130.833 88.2278 131.037 88.2146 131.241C88.1707 131.848 88.0171 133.097 87.4829 132.798C86.7951 132.403 85.4049 129.531 85.4049 129.531" fill="#FFB781"/>
<path d="M88.2 126.922L89.2098 129.363C89.3031 129.546 89.3436 129.751 89.3268 129.955C89.2829 130.569 89.1293 131.811 88.5951 131.511C87.9073 131.124 86.5171 128.245 86.5171 128.245" fill="#FFB781"/>
<path d="M89.3122 125.658L90.3219 128.106C90.4174 128.288 90.4605 128.493 90.4463 128.698C90.4024 129.305 90.2488 130.554 89.7146 130.255C89.0268 129.86 87.6366 126.988 87.6366 126.988" fill="#FFB781"/>
<path d="M89.0634 125.994C89.0634 125.994 90.1463 128.559 90.8414 128.917C91.361 129.217 91.5146 127.975 91.5732 127.361C91.5899 127.157 91.5494 126.952 91.4561 126.769L90.8927 125.403C90.7634 125.086 90.5221 124.827 90.2145 124.676C89.9069 124.525 89.5546 124.493 89.2244 124.584C87.6731 124.99 86.2869 125.869 85.2585 127.098C84.2469 128.444 83.0609 129.651 81.7317 130.686L82.9975 131.497C83.3061 131.694 83.6525 131.824 84.0144 131.88C84.3764 131.935 84.746 131.914 85.0995 131.819C85.4529 131.723 85.7825 131.555 86.0669 131.324C86.3514 131.094 86.5845 130.807 86.7512 130.481L89.0634 125.994Z" fill="#FFB781"/>
<path d="M177.397 131.955L111.995 94.2451L75.9804 156.542L141.382 194.252L177.397 131.955Z" fill="#CDB5FF"/>
<path d="M140.307 194.142L104 173.236L136.985 158L140.307 194.142Z" fill="#FFC93E"/>
<path d="M118.632 181.114L75.9585 156.539L117.541 133.755L118.632 181.114Z" fill="#FFC93E"/>
<path d="M144.666 141.106C143.795 142.646 142.486 143.893 140.905 144.69C139.323 145.488 137.541 145.799 135.783 145.584C134.025 145.37 132.37 144.64 131.027 143.486C129.684 142.333 128.714 140.807 128.24 139.103C127.765 137.399 127.807 135.592 128.36 133.912C128.914 132.232 129.953 130.753 131.348 129.663C132.743 128.572 134.43 127.92 136.196 127.787C137.962 127.654 139.728 128.047 141.271 128.917C142.295 129.494 143.196 130.268 143.921 131.193C144.646 132.118 145.181 133.177 145.497 134.309C145.812 135.441 145.901 136.624 145.758 137.79C145.616 138.956 145.245 140.083 144.666 141.106Z" fill="#FFC93E"/>
<path d="M79.2366 165.177L83.1219 161.223C83.2394 161.105 83.3856 161.019 83.5463 160.975C84.0293 160.851 85.0098 160.639 84.9366 161.121C84.8122 161.749 80.6927 166.112 80.6927 166.112" fill="#FFB781"/>
<path d="M73.2512 162.743L74.9488 162.4C75.2491 162.342 75.5366 162.23 75.7976 162.071L79.8512 159.206C79.8512 159.206 81.3146 158.775 81.3146 159.484C81.3146 160.193 77.6561 164 77.6561 164L82.1488 159.433C82.2401 159.335 82.3565 159.265 82.4854 159.228C82.9902 159.09 84.2634 158.797 84.1537 159.375C84.0146 160.105 79.3244 165.06 79.3244 165.06" fill="#FFB781"/>
<path d="M84.578 162.59C84.1761 162.639 83.7907 162.779 83.4512 162.999L81.0366 165.812L77.5902 163.657L73.2512 162.721L70.9756 164.731C70.9756 164.731 71.1878 169.115 77.561 169.203C78.0008 169.209 78.4329 169.087 78.8049 168.852L81.9805 166.901C82.0353 166.851 82.0866 166.797 82.1341 166.74C82.5805 166.156 85.1707 163.277 85.2293 162.984C85.2219 162.846 84.8341 162.597 84.578 162.59Z" fill="#FFB781"/>
<path d="M75.0878 162.751L73.8146 162.349C73.2439 162.137 73.3097 161.56 73.2 160.968L73.1122 159.068C73.1098 159.011 73.0933 158.957 73.0641 158.908C73.035 158.86 72.994 158.82 72.9452 158.791C72.8964 158.763 72.8411 158.747 72.7846 158.746C72.7281 158.744 72.6722 158.757 72.6219 158.783C72.2463 158.925 71.9196 159.172 71.6809 159.495C71.4422 159.818 71.3015 160.202 71.2756 160.602L70.7927 165.104L75.0878 162.751Z" fill="#FFB781"/>
<path d="M30.6732 136.042C30.6732 136.042 24.6366 127.894 16.7707 132.907C8.90488 137.92 14.239 148.516 14.8024 151.285C15.3659 154.055 12.9732 157.745 10.3098 158.067C10.3098 158.067 16.7707 162.933 22.1049 155.195C27.439 147.456 22.5073 137.145 26.4951 137.321C30.4829 137.496 30.6732 136.042 30.6732 136.042Z" fill="#303030"/>
<path d="M28.7122 133.499C28.7122 133.499 24.8707 133.638 26.5171 137.883L28.7122 133.499Z" fill="#15664C"/>
<path d="M46.3829 232.295C46.7341 230.103 47.1732 217.6 46.9244 218.609C46.2732 221.225 45.6073 223.863 44.9561 226.384C45.5846 228.314 46.0617 230.291 46.3829 232.295Z" fill="#CF4BB2"/>
</svg>
