<svg width="411" height="500" viewBox="0 0 411 500" fill="none" xmlns="http://www.w3.org/2000/svg">
<path d="M273.26 381.39L161.73 380.87C158.54 380.856 155.384 380.213 152.443 378.979C149.502 377.745 146.832 375.944 144.587 373.678C142.341 371.412 140.564 368.727 139.357 365.774C138.15 362.821 137.536 359.66 137.55 356.47L138.73 76.8802C138.744 73.6891 139.387 70.532 140.622 67.5893C141.856 64.6466 143.658 61.9759 145.925 59.7296C148.192 57.4834 150.879 55.7056 153.832 54.4978C156.786 53.2899 159.949 52.6757 163.14 52.6902L274.66 53.2102C281.1 53.2393 287.266 55.825 291.8 60.3987C296.334 64.9725 298.867 71.1598 298.84 77.6002L297.66 357.19C297.648 360.382 297.008 363.54 295.775 366.483C294.542 369.427 292.741 372.099 290.475 374.347C288.209 376.594 285.522 378.373 282.568 379.581C279.615 380.79 276.452 381.405 273.26 381.39V381.39Z" fill="#263238"/>
<path d="M274.5 62.8601L252.88 62.7601C252.175 62.7718 251.48 62.9225 250.833 63.2033C250.187 63.4842 249.602 63.8898 249.112 64.397C248.623 64.9042 248.238 65.5029 247.98 66.1589C247.723 66.815 247.597 67.5154 247.61 68.2201V72.1401C247.623 72.8454 247.497 73.5463 247.24 74.2029C246.982 74.8595 246.597 75.4589 246.108 75.9669C245.619 76.4748 245.034 76.8814 244.387 77.1633C243.741 77.4453 243.045 77.5971 242.34 77.6101L200.19 77.4101C198.766 77.3709 197.417 76.7688 196.436 75.736C195.456 74.7031 194.925 73.3237 194.96 71.9001L195 68.0001C195.035 66.5765 194.504 65.1971 193.524 64.1643C192.543 63.1314 191.193 62.5294 189.77 62.4901H182.17L163.24 62.4001C161 62.3883 158.78 62.8192 156.707 63.6683C154.634 64.5173 152.749 65.7676 151.161 67.3474C149.573 68.9272 148.313 70.8052 147.453 72.8737C146.593 74.9421 146.15 77.1601 146.15 79.4001L145 352.19C144.989 354.423 145.419 356.637 146.264 358.704C147.11 360.771 148.354 362.652 149.926 364.238C151.498 365.824 153.368 367.085 155.427 367.948C157.487 368.812 159.697 369.261 161.93 369.27L273.23 369.79C275.47 369.802 277.69 369.371 279.763 368.522C281.836 367.673 283.721 366.423 285.309 364.843C286.897 363.263 288.157 361.385 289.017 359.317C289.877 357.248 290.32 355.03 290.32 352.79L291.48 79.8901C291.484 77.6568 291.048 75.4446 290.196 73.3799C289.345 71.3152 288.095 69.4385 286.518 67.857C284.942 66.2755 283.069 65.0202 281.006 64.1628C278.944 63.3054 276.733 62.8628 274.5 62.8601Z" fill="#FAFAFA"/>
<path d="M234.78 95.2402H206.07V100.51H234.78V95.2402Z" fill="#455A64"/>
<path d="M172.18 139.63C172.409 139.636 172.637 139.666 172.86 139.72C173.066 139.666 173.277 139.636 173.49 139.63H172.18Z" fill="#455A64"/>
<path d="M180.05 125.17C179.523 124.442 178.881 123.803 178.15 123.28C176.618 122.15 174.764 121.54 172.86 121.54C170.956 121.54 169.102 122.15 167.57 123.28C166.836 123.803 166.191 124.442 165.66 125.17C165.137 125.855 164.725 126.617 164.44 127.43C163.918 128.841 163.759 130.36 163.975 131.848C164.192 133.337 164.778 134.747 165.68 135.95C165.79 136.1 165.91 136.23 166.02 136.36C166.391 135.166 167.101 134.105 168.063 133.307C169.025 132.508 170.198 132.005 171.44 131.86C170.664 131.521 170.004 130.961 169.544 130.25C169.083 129.539 168.842 128.708 168.85 127.86C168.811 127.303 168.887 126.744 169.073 126.218C169.26 125.691 169.552 125.208 169.933 124.8C170.314 124.391 170.775 124.066 171.287 123.843C171.799 123.62 172.352 123.505 172.91 123.505C173.469 123.505 174.021 123.62 174.533 123.843C175.045 124.066 175.506 124.391 175.887 124.8C176.268 125.208 176.561 125.691 176.747 126.218C176.933 126.744 177.009 127.303 176.97 127.86C176.978 128.706 176.738 129.536 176.279 130.247C175.821 130.958 175.164 131.519 174.39 131.86C175.618 132.008 176.776 132.512 177.721 133.31C178.667 134.108 179.358 135.165 179.71 136.35L180.04 135.95C180.942 134.747 181.528 133.337 181.745 131.848C181.962 130.36 181.802 128.841 181.28 127.43C180.988 126.619 180.573 125.857 180.05 125.17Z" fill="#FAFAFA"/>
<path d="M280.9 148.05C280.9 148.05 281.19 148.05 281.73 147.94C282.531 147.775 283.27 147.386 283.86 146.82C284.334 146.362 284.7 145.803 284.932 145.186C285.164 144.569 285.255 143.907 285.2 143.25C285.2 141.66 285.2 139.83 285.2 137.78C285.2 133.66 285.2 128.63 285.15 122.78C285.15 121.32 285.15 119.78 285.15 118.24C285.191 117.464 285.017 116.692 284.649 116.007C284.28 115.323 283.731 114.753 283.06 114.36C281.68 113.49 279.88 113.87 278.15 113.79H272.77L157.77 113.87C157.115 113.873 156.469 114.031 155.887 114.332C155.304 114.632 154.802 115.067 154.42 115.6C154.04 116.133 153.796 116.751 153.71 117.4C153.659 118.065 153.642 118.733 153.66 119.4V143.79C153.689 144.408 153.857 145.011 154.151 145.554C154.446 146.098 154.859 146.568 155.36 146.93C155.855 147.292 156.426 147.535 157.03 147.64C157.661 147.714 158.296 147.738 158.93 147.71H181.59L233.28 147.77L268.12 147.86L277.6 147.91H280.06C280.62 147.91 280.9 147.91 280.9 147.91H280.06H277.6L268.12 147.97L233.28 148.06L181.59 148.12H158.93C158.262 148.143 157.594 148.116 156.93 148.04C155.888 147.853 154.941 147.318 154.244 146.522C153.546 145.726 153.139 144.717 153.09 143.66C153.09 138.36 153.09 132.973 153.09 127.5V119.24C153.09 118.54 153.09 117.87 153.09 117.12C153.199 116.399 153.476 115.714 153.9 115.12C154.332 114.505 154.905 114.002 155.572 113.654C156.238 113.306 156.978 113.123 157.73 113.12L272.73 113.2H280.73C281.608 113.167 282.476 113.389 283.23 113.84C283.953 114.268 284.545 114.886 284.941 115.626C285.338 116.366 285.524 117.201 285.48 118.04C285.48 119.6 285.48 121.12 285.48 122.58C285.48 128.42 285.48 133.45 285.43 137.58C285.43 139.63 285.43 141.46 285.43 143.05C285.476 143.729 285.37 144.409 285.121 145.042C284.872 145.675 284.486 146.244 283.99 146.71C283.376 147.277 282.613 147.655 281.79 147.8C281.507 147.927 281.207 148.011 280.9 148.05Z" fill="#051EA7"/>
<path d="M172.18 225.79C172.62 225.85 172.86 225.85 172.86 225.89C173.066 225.836 173.277 225.805 173.49 225.8L172.18 225.79Z" fill="#455A64"/>
<path d="M180.05 211.34C179.526 210.609 178.884 209.971 178.15 209.45C176.618 208.32 174.764 207.71 172.86 207.71C170.956 207.71 169.102 208.32 167.57 209.45C166.138 210.492 165.048 211.937 164.44 213.6C163.918 215.011 163.759 216.53 163.975 218.018C164.192 219.507 164.778 220.917 165.68 222.12L166.02 222.53C166.388 221.334 167.096 220.271 168.059 219.472C169.022 218.673 170.197 218.172 171.44 218.03C170.664 217.691 170.004 217.131 169.544 216.42C169.083 215.709 168.842 214.878 168.85 214.03C168.811 213.473 168.887 212.914 169.073 212.387C169.26 211.861 169.552 211.378 169.933 210.97C170.314 210.561 170.775 210.236 171.287 210.013C171.799 209.79 172.352 209.675 172.91 209.675C173.469 209.675 174.021 209.79 174.533 210.013C175.045 210.236 175.506 210.561 175.887 210.97C176.268 211.378 176.561 211.861 176.747 212.387C176.933 212.914 177.009 213.473 176.97 214.03C176.976 214.876 176.736 215.705 176.277 216.416C175.819 217.126 175.163 217.687 174.39 218.03C175.617 218.176 176.775 218.678 177.72 219.474C178.666 220.27 179.358 221.326 179.71 222.51L180.04 222.12C180.942 220.917 181.528 219.507 181.745 218.018C181.962 216.53 181.802 215.011 181.28 213.6C180.988 212.789 180.573 212.026 180.05 211.34Z" fill="#FAFAFA"/>
<path d="M280.9 234.22C280.9 234.22 281.19 234.22 281.73 234.11C282.531 233.945 283.27 233.556 283.86 232.99C284.335 232.53 284.702 231.971 284.934 231.351C285.166 230.732 285.257 230.069 285.2 229.41C285.2 227.83 285.2 226 285.2 223.94C285.2 219.83 285.2 214.79 285.15 208.94C285.15 207.48 285.15 205.94 285.15 204.41C285.19 203.633 285.017 202.859 284.648 202.173C284.28 201.487 283.731 200.916 283.06 200.52C281.68 199.65 279.88 200.03 278.15 199.95H272.77L157.77 200.04C157.114 200.04 156.468 200.197 155.885 200.498C155.302 200.799 154.8 201.235 154.42 201.77C154.039 202.299 153.795 202.914 153.71 203.56C153.659 204.226 153.643 204.893 153.66 205.56V230C153.69 230.617 153.859 231.22 154.153 231.763C154.447 232.307 154.86 232.777 155.36 233.14C155.855 233.502 156.426 233.745 157.03 233.85C157.661 233.92 158.296 233.943 158.93 233.92H181.59L233.28 233.98L268.12 234.08H277.6H280.06C280.62 234.08 280.9 234.08 280.9 234.08C280.9 234.08 280.62 234.08 280.06 234.08H277.6L268.12 234.13L233.28 234.23L181.59 234.29H158.93C158.263 234.316 157.594 234.293 156.93 234.22C155.915 234.038 154.99 233.525 154.297 232.762C153.604 231.999 153.183 231.028 153.1 230C153.1 224.7 153.1 219.313 153.1 213.84V205.58C153.1 204.88 153.1 204.22 153.1 203.46C153.201 202.722 153.479 202.018 153.91 201.41C154.343 200.796 154.917 200.294 155.583 199.946C156.249 199.598 156.989 199.415 157.74 199.41L272.74 199.49H280.74C281.378 199.465 282.014 199.574 282.608 199.81C283.201 200.046 283.739 200.403 284.186 200.859C284.634 201.314 284.981 201.859 285.205 202.457C285.43 203.054 285.527 203.693 285.49 204.33C285.49 205.89 285.49 207.4 285.49 208.86C285.49 214.7 285.49 219.74 285.44 223.86C285.44 225.92 285.44 227.75 285.44 229.33C285.486 230.009 285.381 230.689 285.132 231.322C284.883 231.955 284.496 232.525 284 232.99C283.387 233.559 282.623 233.941 281.8 234.09C281.508 234.177 281.205 234.221 280.9 234.22V234.22Z" fill="#F3826F"/>
<path d="M153.686 159.51L153.612 186.1C153.605 188.271 155.36 190.035 157.531 190.041L281.59 190.388C283.761 190.394 285.525 188.639 285.531 186.469L285.605 159.879C285.611 157.708 283.857 155.944 281.686 155.938L157.627 155.591C155.456 155.585 153.692 157.34 153.686 159.51Z" fill="#006BDC"/>
<path d="M211.51 343.66C211.428 344.21 211.152 344.713 210.731 345.077C210.309 345.44 209.771 345.64 209.215 345.64C208.658 345.64 208.121 345.44 207.699 345.077C207.278 344.713 207.001 344.21 206.92 343.66C207.001 343.11 207.278 342.607 207.699 342.243C208.121 341.88 208.658 341.68 209.215 341.68C209.771 341.68 210.309 341.88 210.731 342.243C211.152 342.607 211.428 343.11 211.51 343.66V343.66Z" fill="#455A64"/>
<path d="M218.63 343.69C218.695 344.159 218.616 344.636 218.402 345.058C218.189 345.48 217.852 345.826 217.436 346.051C217.02 346.276 216.545 346.369 216.075 346.316C215.605 346.264 215.162 346.069 214.806 345.758C214.45 345.447 214.197 345.034 214.082 344.576C213.967 344.117 213.995 343.634 214.161 343.192C214.328 342.749 214.626 342.368 215.016 342.1C215.405 341.832 215.867 341.689 216.34 341.69C216.909 341.652 217.47 341.841 217.899 342.216C218.329 342.591 218.592 343.122 218.63 343.69V343.69Z" fill="#455A64"/>
<path d="M225.74 343.72C225.805 344.189 225.726 344.666 225.512 345.089C225.298 345.511 224.96 345.857 224.543 346.082C224.127 346.307 223.652 346.399 223.181 346.345C222.711 346.292 222.268 346.096 221.912 345.784C221.557 345.472 221.305 345.059 221.191 344.599C221.077 344.14 221.106 343.657 221.274 343.214C221.443 342.772 221.742 342.392 222.133 342.125C222.524 341.858 222.987 341.716 223.46 341.72C224.027 341.684 224.586 341.875 225.013 342.25C225.44 342.624 225.702 343.153 225.74 343.72V343.72Z" fill="#455A64"/>
<path d="M172.18 270.48C172.62 270.54 172.86 270.54 172.86 270.58C172.86 270.62 173.08 270.58 173.49 270.49L172.18 270.48Z" fill="#455A64"/>
<path d="M180.05 256C179.523 255.275 178.881 254.64 178.15 254.12C176.618 252.99 174.764 252.38 172.86 252.38C170.956 252.38 169.102 252.99 167.57 254.12C166.836 254.64 166.191 255.274 165.66 256C165.136 256.688 164.725 257.454 164.44 258.27C163.918 259.681 163.759 261.2 163.975 262.688C164.192 264.176 164.778 265.587 165.68 266.79C165.79 266.93 165.91 267.06 166.02 267.19C166.39 265.997 167.1 264.937 168.062 264.139C169.025 263.342 170.198 262.842 171.44 262.7C170.656 262.358 169.991 261.79 169.53 261.069C169.069 260.348 168.832 259.506 168.85 258.65C168.811 258.093 168.887 257.534 169.073 257.007C169.26 256.481 169.552 255.998 169.933 255.59C170.314 255.181 170.775 254.856 171.287 254.633C171.799 254.41 172.352 254.295 172.91 254.295C173.469 254.295 174.021 254.41 174.533 254.633C175.045 254.856 175.506 255.181 175.887 255.59C176.268 255.998 176.561 256.481 176.747 257.007C176.933 257.534 177.009 258.093 176.97 258.65C176.976 259.496 176.736 260.325 176.277 261.035C175.819 261.746 175.163 262.307 174.39 262.65C175.617 262.796 176.775 263.298 177.72 264.094C178.666 264.89 179.358 265.946 179.71 267.13L180.04 266.74C180.938 265.535 181.522 264.125 181.738 262.637C181.955 261.15 181.797 259.632 181.28 258.22C180.983 257.423 180.569 256.675 180.05 256V256Z" fill="#FAFAFA"/>
<path d="M280.9 278.91C280.9 278.91 281.19 278.91 281.73 278.8C282.531 278.635 283.27 278.246 283.86 277.68C284.335 277.221 284.702 276.661 284.934 276.041C285.166 275.422 285.257 274.759 285.2 274.1C285.2 272.51 285.2 270.69 285.2 268.63C285.2 264.51 285.2 259.48 285.15 253.63C285.15 252.17 285.15 250.63 285.15 249.1C285.19 248.323 285.017 247.549 284.648 246.863C284.28 246.177 283.731 245.606 283.06 245.21C281.68 244.34 279.88 244.72 278.15 244.64H272.77L157.77 244.73C157.114 244.728 156.466 244.884 155.883 245.185C155.3 245.486 154.798 245.924 154.42 246.46C154.037 246.988 153.793 247.603 153.71 248.25C153.659 248.916 153.643 249.583 153.66 250.25V274.7C153.689 275.319 153.857 275.924 154.151 276.469C154.445 277.014 154.859 277.486 155.36 277.85C155.855 278.212 156.426 278.455 157.03 278.56C157.661 278.625 158.296 278.648 158.93 278.63H181.59L233.28 278.69L268.12 278.79L277.6 278.84H280.06C280.62 278.84 280.9 278.84 280.9 278.84H280.06H277.6H268.12L233.28 278.93L181.59 279H158.93C158.262 279.028 157.593 279.001 156.93 278.92C156.239 278.808 155.585 278.534 155.02 278.12C154.448 277.709 153.976 277.173 153.642 276.553C153.308 275.933 153.119 275.244 153.09 274.54C153.09 269.207 153.09 263.82 153.09 258.38V250.12C153.09 249.42 153.09 248.76 153.09 248C153.191 247.262 153.469 246.558 153.9 245.95C154.335 245.338 154.909 244.838 155.575 244.491C156.241 244.143 156.979 243.958 157.73 243.95L272.73 244.04H280.73C281.607 244.017 282.473 244.238 283.23 244.68C283.953 245.111 284.544 245.73 284.941 246.472C285.337 247.214 285.524 248.05 285.48 248.89C285.48 250.45 285.48 251.96 285.48 253.42C285.48 259.26 285.48 264.29 285.43 268.42C285.43 270.48 285.43 272.3 285.43 273.89C285.476 274.569 285.371 275.249 285.122 275.882C284.873 276.515 284.486 277.085 283.99 277.55C283.377 278.119 282.613 278.501 281.79 278.65C281.508 278.78 281.208 278.868 280.9 278.91V278.91Z" fill="#F3826F"/>
<path d="M172.18 314.28C172.62 314.33 172.86 314.34 172.86 314.38C172.86 314.42 173.08 314.33 173.49 314.29L172.18 314.28Z" fill="#455A64"/>
<path d="M180.05 299.82C179.52 299.094 178.879 298.456 178.15 297.93C176.612 296.813 174.761 296.211 172.86 296.211C170.959 296.211 169.108 296.813 167.57 297.93C166.838 298.456 166.193 299.094 165.66 299.82C165.136 300.508 164.725 301.274 164.44 302.09C163.918 303.501 163.759 305.02 163.975 306.508C164.192 307.996 164.778 309.407 165.68 310.61C165.79 310.75 165.91 310.88 166.02 311.01C166.39 309.817 167.1 308.757 168.062 307.959C169.025 307.162 170.198 306.662 171.44 306.52C170.664 306.18 170.006 305.62 169.545 304.909C169.085 304.198 168.843 303.367 168.85 302.52C168.811 301.963 168.887 301.404 169.073 300.877C169.26 300.351 169.552 299.868 169.933 299.46C170.314 299.051 170.775 298.726 171.287 298.503C171.799 298.28 172.352 298.165 172.91 298.165C173.469 298.165 174.021 298.28 174.533 298.503C175.045 298.726 175.506 299.051 175.887 299.46C176.268 299.868 176.561 300.351 176.747 300.877C176.933 301.404 177.009 301.963 176.97 302.52C176.976 303.366 176.736 304.195 176.277 304.905C175.819 305.616 175.163 306.177 174.39 306.52C175.618 306.665 176.776 307.166 177.722 307.963C178.667 308.759 179.359 309.815 179.71 311C179.82 310.87 179.93 310.75 180.04 310.6C180.883 309.482 181.449 308.18 181.69 306.8C181.976 305.222 181.834 303.596 181.28 302.09C180.988 301.275 180.573 300.51 180.05 299.82Z" fill="#FAFAFA"/>
<path d="M280.9 322.71C280.9 322.71 281.19 322.71 281.73 322.6C282.782 322.375 283.716 321.773 284.355 320.907C284.994 320.041 285.295 318.972 285.2 317.9C285.2 316.31 285.2 314.49 285.2 312.43C285.2 308.31 285.2 303.28 285.15 297.43C285.15 295.97 285.15 294.43 285.15 292.9C285.188 292.115 285.006 291.334 284.627 290.646C284.247 289.957 283.684 289.388 283 289C281.62 288.13 279.82 288.51 278.09 288.43H272.71L157.71 288.51C157.053 288.512 156.407 288.671 155.824 288.974C155.241 289.276 154.739 289.714 154.36 290.25C153.977 290.778 153.733 291.393 153.65 292.04C153.599 292.705 153.582 293.373 153.6 294.04V318.5C153.629 319.118 153.797 319.721 154.091 320.264C154.386 320.808 154.799 321.278 155.3 321.64C155.794 322.005 156.366 322.251 156.97 322.36C157.601 322.426 158.236 322.446 158.87 322.42H181.53L233.22 322.48L268.06 322.57L277.54 322.63H280H280.84C280.84 322.63 280.56 322.63 280 322.63H277.54L268.06 322.69L233.22 322.78L181.53 322.84H158.93C158.262 322.863 157.594 322.836 156.93 322.76C156.238 322.644 155.584 322.367 155.02 321.95C154.448 321.541 153.977 321.007 153.642 320.388C153.308 319.77 153.119 319.083 153.09 318.38C153.09 313.08 153.09 307.693 153.09 302.22V293.96C153.09 293.26 153.09 292.6 153.09 291.84C153.191 291.101 153.469 290.398 153.9 289.79C154.334 289.176 154.907 288.675 155.573 288.327C156.239 287.979 156.979 287.795 157.73 287.79L272.73 287.88H280.73C281.607 287.856 282.473 288.078 283.23 288.52C283.954 288.95 284.546 289.569 284.942 290.311C285.339 291.053 285.525 291.89 285.48 292.73C285.48 294.29 285.48 295.8 285.48 297.26C285.48 303.1 285.48 308.13 285.43 312.26C285.43 314.32 285.43 316.14 285.43 317.73C285.476 318.409 285.37 319.089 285.121 319.722C284.872 320.355 284.486 320.924 283.99 321.39C283.379 321.96 282.614 322.339 281.79 322.48C281.507 322.602 281.207 322.68 280.9 322.71Z" fill="#051EA7"/>
<path d="M281.29 165.1C284.968 165.1 287.95 162.118 287.95 158.44C287.95 154.762 284.968 151.78 281.29 151.78C277.612 151.78 274.63 154.762 274.63 158.44C274.63 162.118 277.612 165.1 281.29 165.1Z" fill="#263238"/>
<path d="M278.02 157.9L280.82 160.36L284.55 156.52" stroke="#FAFAFA" stroke-linecap="round" stroke-linejoin="round"/>
<path d="M96.7198 454.97L95.0898 464.44L109.69 465.51L109.74 456.2L96.7198 454.97Z" fill="#D83666"/>
<path d="M103.3 455.1C103.26 457.993 102.925 460.874 102.3 463.7C102.244 462.251 102.331 460.801 102.56 459.37C102.664 457.925 102.912 456.495 103.3 455.1Z" fill="#263238"/>
<path d="M109.69 464.48C108.983 464.491 108.277 464.437 107.58 464.32L102.51 463.76C100.51 463.53 98.7299 463.29 97.4399 463.07C96.7358 462.989 96.042 462.835 95.3699 462.61C96.0765 462.585 96.7838 462.635 97.4799 462.76L102.56 463.33C104.56 463.55 106.33 463.8 107.62 464.02C108.324 464.101 109.018 464.255 109.69 464.48V464.48Z" fill="#263238"/>
<path d="M149.42 460.14V451.64L133.52 451.49L133.35 463.92L134.35 463.99C138.74 464.27 156.68 465.13 159.62 464.27C162.91 463.31 149.42 460.14 149.42 460.14Z" fill="#D83666"/>
<g opacity="0.38">
<path opacity="0.38" d="M139.14 463.85C138.916 462.506 138.204 461.291 137.14 460.44C136.096 459.591 134.773 459.163 133.43 459.24V463.69L139.14 463.85Z" fill="black"/>
</g>
<g opacity="0.38">
<path opacity="0.38" d="M156 461.92C156 461.92 160.72 463.33 160.12 464.11C159.52 464.89 141.36 464.7 133.36 463.92V463.56L154.54 463.95C154.54 463.95 155.08 462 156 461.92Z" fill="black"/>
</g>
<path d="M133.15 463.55H133.42L134.2 463.61L137.09 463.76C139.54 463.87 142.91 463.98 146.64 464.02C150.37 464.06 153.74 464.02 156.19 463.97L159.08 463.88H159.87C159.959 463.893 160.05 463.893 160.14 463.88H159.08H156.19C153.74 463.88 150.37 463.88 146.64 463.88C142.91 463.88 139.54 463.75 137.1 463.67L134.21 463.58H133.42L133.15 463.55Z" fill="#263238"/>
<path d="M154.57 464.2C154.703 463.723 154.891 463.263 155.13 462.83C155.424 462.43 155.76 462.061 156.13 461.73C155.635 461.912 155.223 462.267 154.97 462.73C154.662 463.155 154.52 463.678 154.57 464.2V464.2Z" fill="#263238"/>
<path d="M149.9 461.77C149.9 461.77 150.17 461.53 150.41 461.17C150.581 460.964 150.701 460.721 150.76 460.46C150.76 460.46 150.48 460.7 150.25 461.06C150.02 461.42 149.86 461.74 149.9 461.77Z" fill="#263238"/>
<path d="M148.62 461.08C148.62 461.08 148.91 460.95 149.19 460.71C149.47 460.47 149.66 460.24 149.62 460.2C149.58 460.16 149.34 460.32 149.06 460.57C148.78 460.82 148.59 461 148.62 461.08Z" fill="#263238"/>
<path d="M147.82 459.57C148.367 459.69 148.933 459.69 149.48 459.57C149.48 459.51 149.11 459.46 148.66 459.45C148.374 459.429 148.088 459.47 147.82 459.57V459.57Z" fill="#263238"/>
<path d="M147.55 458.51C147.826 458.692 148.149 458.789 148.48 458.79C148.818 458.856 149.168 458.814 149.48 458.67C149.17 458.611 148.855 458.588 148.54 458.6C148.214 458.535 147.882 458.505 147.55 458.51V458.51Z" fill="#263238"/>
<path d="M150.46 460.39C150.791 460.443 151.129 460.443 151.46 460.39C151.829 460.342 152.193 460.265 152.55 460.16C152.766 460.101 152.974 460.017 153.17 459.91C153.232 459.876 153.288 459.831 153.332 459.776C153.377 459.721 153.41 459.658 153.43 459.59C153.445 459.514 153.439 459.436 153.412 459.364C153.386 459.291 153.34 459.228 153.28 459.18C152.893 458.981 152.448 458.925 152.023 459.022C151.599 459.119 151.223 459.362 150.96 459.71C150.796 459.903 150.679 460.133 150.62 460.38C150.62 460.56 150.62 460.66 150.62 460.66C150.722 460.343 150.881 460.048 151.09 459.79C151.324 459.523 151.629 459.329 151.97 459.23C152.374 459.102 152.812 459.138 153.19 459.33C153.35 459.45 153.28 459.64 153.1 459.75C152.916 459.844 152.726 459.924 152.53 459.99C152.184 460.105 151.83 460.192 151.47 460.25C150.85 460.36 150.46 460.36 150.46 460.39Z" fill="#263238"/>
<path d="M150.72 460.44C150.72 460.44 150.89 460.2 150.85 459.74C150.816 459.472 150.72 459.215 150.57 458.99C150.488 458.836 150.368 458.706 150.22 458.613C150.073 458.52 149.904 458.467 149.73 458.46C149.678 458.47 149.628 458.489 149.584 458.518C149.54 458.547 149.502 458.584 149.472 458.628C149.442 458.672 149.421 458.721 149.411 458.773C149.4 458.825 149.4 458.878 149.41 458.93C149.431 459.091 149.49 459.245 149.58 459.38C149.712 459.607 149.87 459.819 150.05 460.01C150.209 460.192 150.407 460.336 150.63 460.43C150.63 460.43 150.43 460.24 150.15 459.92C149.995 459.724 149.855 459.517 149.73 459.3C149.59 459.08 149.5 458.69 149.73 458.65C149.96 458.61 150.24 458.88 150.4 459.09C150.542 459.29 150.637 459.519 150.68 459.76C150.715 459.985 150.728 460.213 150.72 460.44Z" fill="#263238"/>
<path d="M133.52 459.2C133.52 459.2 133.97 459.2 134.69 459.25C135.624 459.371 136.507 459.748 137.24 460.34C137.969 460.938 138.516 461.728 138.82 462.62C138.936 462.991 139.033 463.368 139.11 463.75C139.127 463.644 139.127 463.536 139.11 463.43C139.082 463.138 139.025 462.85 138.94 462.57C138.658 461.636 138.105 460.808 137.35 460.19C136.592 459.572 135.665 459.199 134.69 459.12C134.401 459.088 134.109 459.088 133.82 459.12C133.716 459.128 133.614 459.155 133.52 459.2V459.2Z" fill="#263238"/>
<path d="M135.23 452.6C135.111 453.682 135.054 454.771 135.06 455.86C134.999 456.949 134.999 458.04 135.06 459.13C135.179 458.047 135.236 456.959 135.23 455.87C135.291 454.78 135.291 453.689 135.23 452.6V452.6Z" fill="#263238"/>
<path d="M141.15 462.32C141.909 462.503 142.689 462.588 143.47 462.57C144.25 462.619 145.034 462.565 145.8 462.41C145.8 462.35 144.8 462.41 143.48 462.41C142.16 462.41 141.16 462.26 141.15 462.32Z" fill="#263238"/>
<path d="M138 462.28C138 462.28 138.08 462.5 138.18 462.74C138.28 462.98 138.34 463.19 138.4 463.19C138.46 463.19 138.48 462.94 138.4 462.66C138.32 462.38 138.07 462.24 138 462.28Z" fill="#263238"/>
<path d="M136.88 460.81C136.88 460.81 136.94 461.01 137.1 461.18C137.26 461.35 137.43 461.45 137.47 461.42C137.51 461.39 137.4 461.21 137.24 461.04C137.08 460.87 136.91 460.77 136.88 460.81Z" fill="#263238"/>
<path d="M135.2 460.12C135.2 460.17 135.42 460.17 135.66 460.26C135.9 460.35 136.06 460.47 136.1 460.43C136.14 460.39 136.01 460.18 135.72 460.08C135.43 459.98 135.19 460.07 135.2 460.12Z" fill="#263238"/>
<path d="M134 459.79C134 459.79 134.07 459.93 134.2 459.98C134.33 460.03 134.45 459.98 134.47 459.98C134.49 459.98 134.4 459.85 134.27 459.8C134.14 459.75 134 459.74 134 459.79Z" fill="#263238"/>
<path d="M125.3 202.06C125.42 199.57 125.69 196.75 125.69 196.75C125.69 196.75 131.85 196.08 132.22 189.75C132.59 183.42 132.22 168.75 132.22 168.75L121 163L108.65 172.74L110.52 204.57L121.88 205.29C122.318 205.309 122.756 205.239 123.167 205.086C123.577 204.933 123.954 204.699 124.272 204.398C124.591 204.096 124.846 203.734 125.023 203.333C125.199 202.931 125.294 202.499 125.3 202.06V202.06Z" fill="#FFBE9D"/>
<path d="M126.41 184.68C126.41 184.68 126.41 184.79 126.31 184.95C126.226 185.053 126.118 185.134 125.997 185.188C125.875 185.242 125.743 185.267 125.61 185.26C124.89 185.26 124.2 184.44 123.95 183.47C123.836 183.007 123.836 182.523 123.95 182.06C123.964 181.849 124.033 181.646 124.151 181.47C124.268 181.294 124.43 181.153 124.62 181.06C124.694 181.028 124.774 181.011 124.855 181.011C124.936 181.011 125.016 181.028 125.09 181.06C125.204 181.111 125.294 181.204 125.34 181.32C125.43 181.5 125.34 181.62 125.34 181.61C125.34 181.6 125.34 181.5 125.22 181.39C125.163 181.307 125.077 181.248 124.979 181.226C124.88 181.204 124.777 181.22 124.69 181.27C124.557 181.358 124.446 181.476 124.368 181.615C124.29 181.755 124.246 181.91 124.24 182.07C124.162 182.489 124.179 182.919 124.29 183.33C124.51 184.2 125.11 184.9 125.64 184.97C125.746 184.984 125.854 184.976 125.958 184.947C126.061 184.918 126.157 184.868 126.24 184.8C126.35 184.76 126.39 184.67 126.41 184.68Z" fill="#EB996E"/>
<path d="M126.37 188.61C126.45 188.38 126.5 188.13 126.57 187.89C126.64 187.65 126.66 187.55 126.72 187.37C126.827 186.846 126.884 186.314 126.89 185.78C126.342 185.992 125.744 186.039 125.17 185.915C124.596 185.79 124.071 185.5 123.66 185.08C123.246 184.642 122.958 184.101 122.824 183.514C122.69 182.926 122.717 182.314 122.9 181.74C123.163 181.111 123.555 180.545 124.051 180.078C124.547 179.611 125.137 179.254 125.78 179.03C127.02 178.51 128.35 178.25 129.57 177.67C132.15 176.45 133.93 173.9 135.15 171.23C136 169.36 136.64 167.23 136.06 165.23C135.2 162.3 132.06 160.85 129.25 160.04C124.93 158.82 120.25 158.28 116.03 159.83C111.81 161.38 106.74 164.12 106.74 168.78C104.25 168.57 102.83 170.78 101.84 173.46C101.353 175.138 100.985 176.849 100.74 178.58" fill="#263238"/>
<path d="M110.14 198C107.027 195.852 104.524 192.934 102.874 189.53C101.225 186.127 100.486 182.354 100.73 178.58C101.37 165.22 126.37 188.58 126.37 188.58C126.37 188.58 121.58 204.32 110.65 197.97" fill="#263238"/>
<path d="M106.43 184.68C106.36 184.62 106.86 184.15 107.27 183.18C107.55 182.564 107.697 181.895 107.702 181.218C107.708 180.542 107.57 179.871 107.3 179.251C107.029 178.63 106.631 178.074 106.132 177.617C105.632 177.16 105.042 176.814 104.4 176.6C103.4 176.24 102.72 176.29 102.72 176.2C103.306 176.019 103.935 176.037 104.51 176.25C105.223 176.451 105.884 176.804 106.447 177.286C107.01 177.768 107.461 178.366 107.77 179.04C108.062 179.723 108.198 180.462 108.169 181.204C108.139 181.946 107.945 182.672 107.6 183.33C107.07 184.34 106.46 184.72 106.43 184.68Z" fill="#D382F5"/>
<path d="M101.28 176.5C101.054 176.529 100.824 176.479 100.63 176.36C100.068 176.084 99.6067 175.64 99.3098 175.09C98.8949 174.265 98.7447 173.333 98.8798 172.42C98.9961 171.316 99.3364 170.248 99.8798 169.28C100.435 168.288 101.309 167.513 102.36 167.08C103.232 166.724 104.208 166.724 105.08 167.08C105.656 167.32 106.145 167.732 106.48 168.26C106.69 168.64 106.72 168.89 106.69 168.89C106.283 168.224 105.668 167.711 104.94 167.43C104.155 167.159 103.296 167.198 102.54 167.54C101.606 167.949 100.83 168.651 100.33 169.54C99.2598 171.45 98.9598 173.64 99.6098 174.91C99.967 175.616 100.557 176.178 101.28 176.5Z" fill="#263238"/>
<path d="M214.83 181C214.38 180.54 213.28 180.76 213.28 180.76C213.385 180.117 213.385 179.462 213.28 178.82C213.08 178.19 211.67 178.31 211.67 178.31C211.603 177.782 211.603 177.248 211.67 176.72C211.677 176.604 211.65 176.489 211.591 176.389C211.532 176.289 211.445 176.209 211.34 176.16C210.673 175.89 209.959 175.761 209.24 175.78C208.37 175.16 211.86 170.28 213.16 168.72C214.46 167.16 214.22 165.95 213.07 165.95C212.28 165.95 208.21 170.64 206.96 172.21C205.71 173.78 202.39 178.16 202.28 174.67C202.17 171.18 200.76 168.53 199.88 168.08C199 167.63 198.06 168.69 198.55 169.66C198.967 170.762 199.23 171.916 199.33 173.09C199.442 174.034 199.398 174.99 199.2 175.92C198.835 177.624 198.334 179.296 197.7 180.92L197.61 180.87C197.61 180.87 173.24 204.24 171.48 205.87C169.9 207.37 138.23 204.09 131.89 203.42C129.727 203.112 127.544 202.965 125.36 202.98C122.61 203.1 122.12 203.49 119.36 203.52C112.807 203.542 106.266 204.09 99.7999 205.16C93.4699 206.23 89.9899 211.16 88.0399 217.29C81.6299 237.29 64.3099 284.29 61.7199 310.89C59.7891 314.396 58.0434 318.001 56.4899 321.69C54.6999 326.58 55.1399 326.75 55.7399 326.86C57.3599 327.16 59.2199 318.39 59.9199 320.5C60.6199 322.61 56.3999 330.97 58.1099 331.21C60.3299 331.53 62.1099 322.31 62.3199 321.54C62.5299 320.77 63.6499 321.05 63.4199 321.73C63.0999 322.73 59.9599 333.13 62.1399 333.47C63.3499 333.65 63.4799 331.47 63.4799 331.47C63.4799 331.47 65.6999 321.47 66.7299 321.7C67.7599 321.93 66.6699 327.79 66.1499 329.75C65.6299 331.71 66.3599 332.75 67.3999 332.23C68.1199 331.9 69.8299 325.93 70.2999 323.98C70.7699 322.03 71.9299 316.66 73.5099 319.78C75.0899 322.9 77.5099 324.7 78.5099 324.78C78.7402 324.769 78.9612 324.687 79.1414 324.543C79.3215 324.399 79.4515 324.202 79.5126 323.98C79.5737 323.758 79.5628 323.522 79.4814 323.306C79.4001 323.091 79.2526 322.906 79.0599 322.78C78.2138 321.955 77.4868 321.016 76.8999 319.99C76.3974 319.182 76.0324 318.297 75.8199 317.37C75.377 315.516 75.1191 313.624 75.0499 311.72L74.8599 310.57C77.3599 298.19 85.8599 255.99 96.1899 232.77L99.1899 247.41L101.04 253.9L89.6699 282L138.14 281.36L130.91 253.52L139.69 224.52C149.2 224.73 173.6 225.09 177.69 223.25C182.8 220.97 209.27 187.61 209.27 187.61C211.013 186.271 212.682 184.839 214.27 183.32C214.27 183.32 215.8 182 214.83 181Z" fill="#FFBE9D"/>
<path d="M87.5599 261.34C88.9599 256.54 96.1799 232.8 96.1799 232.8C96.1799 232.8 99.7299 252.15 98.7999 254.48C97.9403 256.479 96.9203 258.405 95.7499 260.24C87.5599 272.72 88.6299 278.96 88.6299 278.96L138.14 277.45C138.26 270.53 134.14 254.45 133.3 251.86C132.46 249.27 135.3 240.86 135.3 240.86C135.3 240.86 140.9 235.18 140.68 232.26C140.563 229.637 140.229 227.028 139.68 224.46L176.35 225.16L172.25 205.23L136.89 202.64L125.13 201.54C119.21 206.54 110.34 201.54 110.34 201.54C99.0599 202.64 97.4099 204.45 92.7799 209.08C87.2799 214.56 72.4199 256.49 72.4199 256.49L87.5599 261.34Z" fill="#D83666"/>
<path d="M116.84 256.51C115.979 256.66 115.102 256.703 114.23 256.64C112.61 256.64 110.39 256.53 107.94 256.29C105.49 256.05 103.29 255.69 101.71 255.38C100.842 255.272 99.9921 255.053 99.1799 254.73C100.049 254.726 100.917 254.81 101.77 254.98C103.37 255.18 105.56 255.46 108 255.71C110.44 255.96 112.64 256.12 114.24 256.23C115.114 256.234 115.985 256.328 116.84 256.51Z" fill="#263238"/>
<path d="M120.22 252.3C119.362 252.719 118.455 253.028 117.52 253.22C115.297 253.809 113.034 254.24 110.75 254.51C108.468 254.784 106.168 254.894 103.87 254.84C102.916 254.868 101.963 254.781 101.03 254.58C101.97 254.446 102.921 254.396 103.87 254.43C105.62 254.37 108.03 254.25 110.69 253.93C113.35 253.61 115.69 253.18 117.43 252.82C118.343 252.564 119.276 252.39 120.22 252.3V252.3Z" fill="#263238"/>
<path d="M136.88 233.52C136.869 234.371 136.755 235.217 136.54 236.04C136.25 237.59 135.8 239.71 135.23 242.04C134.66 244.37 134.08 246.46 133.62 247.97C133.428 248.799 133.136 249.602 132.75 250.36C132.81 249.511 132.968 248.673 133.22 247.86C133.64 246.12 134.13 244.12 134.66 241.91C135.19 239.7 135.71 237.7 136.14 235.91C136.296 235.088 136.545 234.286 136.88 233.52V233.52Z" fill="#263238"/>
<path d="M88.3 279.3L137.8 277.79L159.34 361.91L155.34 458.4H129.14L132.41 364L113.26 305.4L116.17 459.4L89.71 459.79L87 315.2C86.89 311.11 85.54 301.87 86 297.81L88.3 279.3Z" fill="#455A64"/>
<path d="M119.86 306.59C119.047 306.647 118.231 306.6 117.43 306.45C115.94 306.27 113.89 305.96 111.65 305.51C109.41 305.06 107.39 304.51 105.95 304.14C105.152 303.969 104.379 303.697 103.65 303.33C103.65 303.17 107.29 304.04 111.76 304.94C116.23 305.84 119.88 306.42 119.86 306.59Z" fill="#263238"/>
<path d="M155.13 453.11C155.13 453.27 149.2 453.4 141.88 453.4C134.56 453.4 129.35 453.17 129.35 453.01C129.35 452.85 134.56 452.82 141.88 452.82C149.2 452.82 155.13 453 155.13 453.11Z" fill="#263238"/>
<path d="M115.8 453.4C115.8 453.56 110.04 453.69 102.94 453.69C95.8398 453.69 90.0898 453.56 90.0898 453.4C90.0898 453.24 95.8398 453.11 102.94 453.11C110.04 453.11 115.8 453.24 115.8 453.4Z" fill="#263238"/>
<path d="M112.57 453.4C112.41 453.4 111.71 420.11 111.01 379.04C110.31 337.97 109.88 304.68 110.01 304.67C110.14 304.66 110.9 338 111.6 379C112.3 420 112.73 453.39 112.57 453.4Z" fill="#263238"/>
<path d="M151.61 453.11C151.599 452.957 151.599 452.803 151.61 452.65C151.61 452.32 151.61 451.88 151.61 451.31C151.61 450.11 151.69 448.38 151.76 446.17C151.91 441.68 152.14 435.23 152.41 427.27C153.02 411.27 153.87 389.27 154.8 364.91C154.8 364.68 154.8 364.46 154.8 364.25V364.33C148.93 340.84 143.63 319.6 139.8 304.2L135.35 286C134.84 283.87 134.44 282.21 134.17 281C134.043 280.46 133.943 280.03 133.87 279.71C133.832 279.566 133.806 279.418 133.79 279.27C133.853 279.407 133.9 279.552 133.93 279.7C134.01 280.01 134.13 280.43 134.28 280.97C134.58 282.13 135.02 283.79 135.57 285.91C136.68 290.22 138.27 296.42 140.23 304.07C144.12 319.46 149.48 340.68 155.42 364.16V364.25C155.42 364.45 155.42 364.68 155.42 364.9C154.42 389.24 153.52 411.27 152.86 427.25C152.51 435.25 152.22 441.66 152.02 446.15C151.91 448.36 151.82 450.08 151.76 451.29C151.76 451.85 151.7 452.29 151.68 452.62C151.673 452.785 151.65 452.949 151.61 453.11V453.11Z" fill="#263238"/>
<path d="M143.07 362.29C141.186 362.906 139.247 363.338 137.28 363.58C134.88 363.99 132.8 364.27 131.89 364.33V364.1C132.19 364.18 132.35 364.25 132.34 364.29C132.33 364.33 132.16 364.29 131.85 364.29H131.18L131.85 364.09C132.72 363.83 134.78 363.41 137.19 362.99C139.122 362.565 141.092 362.331 143.07 362.29Z" fill="#263238"/>
<path d="M142.57 365.5C140.83 365.569 139.086 365.489 137.36 365.26C135.617 365.215 133.881 365.024 132.17 364.69C133.908 364.452 135.671 364.452 137.41 364.69C139.159 364.723 140.895 364.996 142.57 365.5V365.5Z" fill="#263238"/>
<path d="M88.0798 281.07C89.2698 282.76 90.9798 283.35 92.9598 283.67C94.9555 283.908 96.9743 283.871 98.9598 283.56C111.74 282.14 125.28 280.83 137.79 277.79C121.59 278.69 104.49 278.39 88.2898 279.3C88.2898 279.3 88.1498 280.41 88.1198 280.68" fill="#263238"/>
<path d="M104.78 303.91L113.9 339.34L113.26 305.4L104.78 303.91Z" fill="#263238"/>
<path d="M102.94 176.91C99.4198 175.97 95.7398 179.72 95.6198 183.36C95.6198 184.36 95.7298 185.6 94.9898 186.36C94.2498 187.12 92.9298 186.91 91.8198 187C90.6861 187.113 89.6249 187.609 88.812 188.408C87.9991 189.206 87.4832 190.258 87.3498 191.39C87.1898 193.01 87.8398 194.75 87.1598 196.23C86.4798 197.71 84.9098 198.31 83.8198 199.41C83.1585 200.158 82.6612 201.037 82.3598 201.99C82.0584 202.942 81.9596 203.947 82.0698 204.94C82.3064 206.924 82.8284 208.864 83.6198 210.7C84.2598 212.41 85.0998 214.31 86.8198 214.92H101.61L102.72 209.34L104.53 214.92H106.94L105.64 178.69C105.64 178.69 105.63 177.62 102.94 176.91Z" fill="#263238"/>
<path d="M82.7099 194.21C82.7099 194.21 82.5499 194.21 82.3099 194.29C82.1381 194.384 82.0071 194.538 81.9425 194.723C81.8778 194.907 81.884 195.11 81.9599 195.29C82.1456 195.698 82.4801 196.02 82.8952 196.19C83.3103 196.36 83.7746 196.365 84.1933 196.205C84.612 196.044 84.9535 195.729 85.148 195.325C85.3426 194.921 85.3754 194.458 85.2399 194.03C85.029 193.55 84.7567 193.1 84.4299 192.69C83.6722 191.68 83.3451 190.411 83.5199 189.16C83.6095 188.467 83.8583 187.803 84.2469 187.222C84.6355 186.641 85.1534 186.158 85.7599 185.81C86.409 185.43 87.139 185.209 87.8899 185.166C88.6408 185.122 89.3913 185.257 90.0799 185.56C91.4399 186.15 92.6199 187.02 93.9299 186.84C94.2252 186.828 94.5129 186.743 94.7663 186.591C95.0197 186.439 95.2307 186.225 95.3799 185.97C95.5906 185.402 95.6592 184.791 95.5799 184.19C95.501 183.042 95.6681 181.891 96.0699 180.813C96.4717 179.736 97.0991 178.756 97.9099 177.94C99.0516 176.871 100.566 176.289 102.13 176.32C102.545 176.332 102.955 176.402 103.35 176.53C103.492 176.564 103.627 176.622 103.75 176.7C103.215 176.598 102.674 176.538 102.13 176.52C100.63 176.554 99.1999 177.159 98.1299 178.21C97.3738 179.004 96.7948 179.949 96.4311 180.984C96.0674 182.018 95.9272 183.118 96.0199 184.21C96.1092 184.886 96.0267 185.574 95.7799 186.21C95.5958 186.542 95.3303 186.822 95.0085 187.023C94.6866 187.224 94.3189 187.34 93.9399 187.36C93.1988 187.431 92.4524 187.299 91.7799 186.98C91.0999 186.69 90.4799 186.32 89.8399 186.05C89.225 185.781 88.5554 185.659 87.8849 185.696C87.2145 185.732 86.562 185.925 85.9799 186.26C85.438 186.572 84.9756 187.005 84.6286 187.526C84.2817 188.046 84.0597 188.64 83.9799 189.26C83.808 190.4 84.0957 191.562 84.7799 192.49C85.1215 192.933 85.4007 193.421 85.6099 193.94C85.7041 194.199 85.7456 194.473 85.7318 194.748C85.7181 195.023 85.6494 195.292 85.5299 195.54C85.3229 195.979 84.9693 196.333 84.5299 196.54C84.1281 196.719 83.6795 196.764 83.2499 196.67C82.9079 196.605 82.5901 196.447 82.331 196.215C82.0719 195.982 81.8814 195.683 81.7799 195.35C81.7067 195.136 81.7176 194.902 81.8105 194.696C81.9033 194.49 82.0712 194.327 82.2799 194.24C82.5699 194.1 82.7199 194.21 82.7099 194.21Z" fill="#263238"/>
<path d="M140 224.14C139.622 224.192 139.238 224.192 138.86 224.14C137.819 224.014 136.806 223.72 135.86 223.27C134.448 222.607 133.189 221.661 132.16 220.49C130.854 219.071 129.973 217.313 129.62 215.417C129.266 213.521 129.453 211.564 130.16 209.77C130.706 208.308 131.551 206.977 132.64 205.86C133.362 205.102 134.203 204.467 135.13 203.98C135.458 203.783 135.816 203.641 136.19 203.56C134.981 204.249 133.876 205.108 132.91 206.11C131.899 207.219 131.118 208.517 130.61 209.93C129.951 211.644 129.778 213.506 130.107 215.312C130.437 217.118 131.258 218.799 132.48 220.17C133.457 221.31 134.645 222.251 135.98 222.94C137.26 223.519 138.612 223.923 140 224.14V224.14Z" fill="#263238"/>
</svg>
